<svg width="41" height="41" viewBox="0 0 41 41" fill="none" xmlns="http://www.w3.org/2000/svg">
<path d="M3.41675 20.4999C3.41675 14.0574 3.41675 10.8361 5.41819 8.83469C7.41962 6.83325 10.6409 6.83325 17.0834 6.83325H23.9167C30.3593 6.83325 33.5805 6.83325 35.582 8.83469C37.5834 10.8361 37.5834 14.0574 37.5834 20.4999C37.5834 26.9424 37.5834 30.1637 35.582 32.1651C33.5805 34.1666 30.3593 34.1666 23.9167 34.1666H17.0834C10.6409 34.1666 7.41962 34.1666 5.41819 32.1651C3.41675 30.1637 3.41675 26.9424 3.41675 20.4999Z" stroke="#EDD118" stroke-width="1.5"/>
<path d="M10.25 13.6667L13.9381 16.7402C17.0757 19.3548 18.6445 20.6622 20.5 20.6622C22.3555 20.6622 23.9243 19.3548 27.0619 16.7402L30.75 13.6667" stroke="#EDD118" stroke-width="1.5" stroke-linecap="round"/>
</svg>
