<svg width="127" height="127" viewBox="0 0 127 127" fill="none" xmlns="http://www.w3.org/2000/svg">
<circle cx="64" cy="64" r="63" fill="white"/>
<path d="M35.2877 50.4297C35.2877 47.2431 35.2866 44.1102 35.288 40.9772C35.2887 39.4002 35.4528 39.2388 37.0346 39.2385C40.3765 39.2379 43.7183 39.2372 47.0601 39.237C48.2367 39.2369 48.5407 39.5424 48.5407 40.7216C48.5407 41.935 48.5407 43.1484 48.5407 44.3555C48.8033 44.425 48.9185 44.2604 49.0459 44.1532C52.9999 40.8256 56.9739 37.5217 60.8923 34.152C62.6765 32.6177 64.9123 32.6594 66.511 34.0189C68.9537 36.096 71.4566 38.1014 73.9358 40.1349C74.5647 40.6507 74.6148 40.6295 75.0086 39.8928C75.7105 38.5797 76.0062 37.151 76.1966 35.6938C76.2641 35.1771 76.4265 34.7423 76.9773 34.6067C77.6129 34.4503 78.0799 34.8253 78.192 35.5442C78.3595 36.6186 78.5135 37.6953 78.8726 38.7291C79.7563 41.2729 81.5328 42.8567 84.0646 43.6167C84.6574 43.7947 85.2696 43.9069 85.8724 44.0514C86.5646 44.2173 86.9063 44.5326 86.9246 45.0188C86.9425 45.4921 86.5632 45.8999 85.8892 46.0765C85.0655 46.2922 84.2366 46.4868 83.4479 46.818C83.1372 46.9485 82.8259 47.078 82.5045 47.32C83.2776 47.9684 84.0323 48.6077 84.7936 49.2389C88.5794 52.3772 92.3669 55.5134 96.154 58.6502C97.4162 59.6957 98.6842 60.7342 99.9395 61.788C100.779 62.4928 101.104 63.408 100.845 64.4757C100.564 65.64 99.6007 66.336 98.3036 66.3594C97.2552 66.3782 96.2061 66.3656 95.1574 66.3659C94.301 66.3661 94.3005 66.3655 94.3005 67.2532C94.3003 78.6749 94.3003 90.0966 94.3002 101.518C94.3002 101.697 94.3057 101.877 94.2976 102.055C94.2701 102.66 93.961 102.976 93.3663 102.993C92.9578 103.005 92.5487 102.997 92.1399 102.997C73.1021 102.997 54.0643 102.997 35.0264 102.996C34.7776 102.996 34.5272 103.009 34.2803 102.987C33.7807 102.941 33.4745 102.621 33.4347 102.115C33.4192 101.919 33.4287 101.722 33.4287 101.525C33.4288 90.0671 33.4292 78.6096 33.4291 67.1521C33.4291 66.3677 33.4272 66.3855 32.6433 66.3617C31.4023 66.324 30.1515 66.5032 28.9215 66.2688C27.1685 65.9347 26.365 63.913 27.3741 62.4295C27.917 61.6313 28.7305 61.1198 29.4483 60.5125C31.217 59.016 33.0042 57.5415 34.7995 56.0775C35.1621 55.7818 35.3149 55.4854 35.3007 54.994C35.2572 53.4916 35.2867 51.9871 35.2877 50.4297ZM59.9547 96.0308C59.9547 97.4629 59.9545 98.8949 59.9549 100.327C59.9551 101.096 59.9556 101.097 60.702 101.097C71.0292 101.097 81.3564 101.097 91.6836 101.097C92.4285 101.097 92.4308 101.097 92.4308 100.324C92.4308 89.3505 92.4319 78.3769 92.4271 67.4033C92.4266 66.2497 92.5951 66.3402 91.3721 66.3399C76.6901 66.3358 62.0081 66.3349 47.326 66.3329C43.5578 66.3323 39.7895 66.3307 36.0212 66.3299C35.2186 66.3297 35.2181 66.3304 35.2174 67.164C35.2164 68.2369 35.2158 69.3098 35.216 70.3827C35.2169 75.2314 35.2192 80.08 35.2188 84.9287C35.2184 90.138 35.2196 95.3473 35.2064 100.557C35.2053 100.986 35.351 101.108 35.7644 101.104C37.6661 101.087 39.5681 101.098 41.47 101.097C42.1861 101.097 42.1908 101.095 42.1911 100.348C42.1932 95.2456 42.1895 90.1437 42.1974 85.0418C42.1987 84.221 42.253 83.401 42.3845 82.5881C43.2035 77.5264 48.2402 74.5199 52.7228 75.484C57.094 76.424 59.954 80.0749 59.9546 84.5917C59.9551 88.3689 59.9547 92.1461 59.9547 96.0308ZM83.7391 58.723C81.9325 57.2337 80.1258 55.7444 78.2481 54.1965C78.2151 54.4152 78.2062 54.5003 78.1891 54.5837C78.0763 55.1328 77.744 55.4501 77.267 55.4666C76.7698 55.4838 76.4215 55.1731 76.3031 54.5903C76.2251 54.2065 76.1674 53.8187 76.0932 53.4342C75.6423 51.0961 74.5979 49.1305 72.5964 47.7586C71.326 46.8879 69.8981 46.4191 68.4223 46.0688C68.0816 45.988 67.7244 45.8761 67.6051 45.5375C67.4356 45.0566 67.0556 44.8082 66.7041 44.517C65.991 43.9261 65.2712 43.3434 64.5566 42.7543C64.0096 42.3034 63.6923 42.2988 63.1482 42.7532C61.6033 44.0433 60.0633 45.3395 58.5154 46.626C55.4058 49.2101 52.2876 51.7837 49.1815 54.372C45.8836 57.1204 42.5951 59.8803 39.3035 62.6364C38.6353 63.1959 37.9716 63.7609 37.2834 64.3424C55.0308 64.3424 72.7038 64.3424 90.5459 64.3424C88.212 62.4169 86.004 60.5951 83.7391 58.723ZM44.7138 81.2525C44.2294 82.3686 44.0581 83.5419 44.0591 84.7522C44.0637 89.9609 44.0614 95.1696 44.062 100.378C44.0621 101.094 44.0632 101.096 44.7522 101.097C48.9643 101.097 53.1765 101.087 57.3885 101.109C57.9264 101.111 58.0809 100.967 58.0788 100.419C58.0588 95.2099 58.0674 90.0012 58.0664 84.7925C58.0663 84.2928 58.0433 83.7979 57.9786 83.2977C57.5662 80.1123 54.9183 77.5002 51.7811 77.22C48.7937 76.9531 46.1254 78.4553 44.7138 81.2525ZM62.9941 35.0961C62.653 35.2209 62.3763 35.4505 62.1046 35.6785C60.1267 37.3382 58.1553 39.0058 56.1797 40.6682C52.2278 43.9935 48.2826 47.3269 44.32 50.6391C39.3187 54.8193 34.3034 58.9823 29.2917 63.1498C29.0065 63.3869 28.8271 63.6652 28.9477 64.0345C29.0658 64.3959 29.4001 64.3901 29.7057 64.3909C30.7898 64.3938 31.8765 64.3458 32.9572 64.4075C33.7905 64.4551 34.4829 64.2915 35.06 63.6519C35.332 63.3504 35.6824 63.1208 35.997 62.8584C40.0199 59.5042 44.0429 56.1503 48.0654 52.7956C52.7997 48.8474 57.5319 44.8965 62.2689 40.9516C63.1937 40.1814 64.3608 40.1648 65.3042 40.9085C66.0731 41.5147 66.8259 42.142 67.5772 42.7703C69.1582 44.0927 69.3835 44.1308 71.289 43.2767C71.9644 42.9739 72.6266 42.6424 73.1966 42.0646C72.4778 41.4692 71.8098 40.913 71.1387 40.3605C69.1726 38.7417 67.2087 37.1201 65.2363 35.509C64.5981 34.9878 63.8959 34.6976 62.9941 35.0961ZM83.2608 50.502C82.5746 49.9352 81.8757 49.3829 81.2078 48.795C80.9031 48.5268 80.7079 48.5742 80.4642 48.859C79.7849 49.6528 79.2629 50.534 78.8814 51.5099C78.7213 51.9196 78.7791 52.1665 79.1362 52.4564C81.2773 54.1949 83.3916 55.9667 85.5205 57.7203C88.1036 59.848 90.6918 61.9694 93.2797 64.091C93.4425 64.2244 93.5975 64.3837 93.8334 64.383C95.325 64.3786 96.8165 64.3762 98.3081 64.3693C98.5795 64.368 98.8001 64.2543 98.89 63.9845C98.9778 63.7207 98.883 63.4924 98.6849 63.3075C98.5939 63.2226 98.4986 63.1422 98.403 63.0626C96.8853 61.7975 95.3699 60.5296 93.8487 59.2687C90.3407 56.3607 86.8298 53.456 83.2608 50.502ZM41.7314 41.1789C40.2466 41.1789 38.7617 41.1789 37.2689 41.1789C37.2689 45.4266 37.2689 49.6227 37.2689 53.8129C37.4268 53.8435 37.5031 53.757 37.5814 53.692C40.502 51.2679 43.4194 48.8399 46.3436 46.42C46.5923 46.2142 46.6602 45.9759 46.6581 45.67C46.6488 44.3452 46.6356 43.02 46.6643 41.6957C46.674 41.2444 46.5029 41.1646 46.1044 41.1705C44.6825 41.1913 43.2602 41.1787 41.7314 41.1789ZM73.0344 44.4781C72.6302 44.684 72.226 44.8899 71.7636 45.1254C72.9521 45.7601 74.0546 46.405 74.9829 47.3054C75.9098 48.2045 76.5835 49.2895 77.2367 50.5412C77.7962 49.2663 78.4862 48.2247 79.3772 47.3133C80.2671 46.4031 81.3634 45.7921 82.5463 45.0827C79.9641 43.9961 78.242 42.2021 77.203 39.6637C76.3059 41.7592 74.9852 43.347 73.0344 44.4781Z" fill="black"/>
<path d="M81.6456 21.1072C81.7602 20.6048 81.842 20.1411 81.9638 19.6888C82.088 19.2272 82.4393 19.0042 82.8812 19C83.3123 18.996 83.6089 19.2524 83.7577 19.671C84.0497 20.4928 84.0911 21.3702 84.2966 22.2122C84.9074 24.7145 85.9282 25.6639 88.4347 26.0485C88.9933 26.1342 89.5484 26.248 90.1007 26.3698C90.5828 26.4761 90.9048 26.7793 90.9304 27.2983C90.9574 27.8465 90.6419 28.1985 90.1495 28.327C89.379 28.5282 88.5964 28.6816 87.817 28.8464C86.504 29.1241 85.3196 29.5818 84.7692 30.9957C84.3728 32.0139 84.2052 33.0864 84.0129 34.1545C83.9457 34.5275 83.8754 34.9024 83.769 35.2649C83.632 35.7311 83.2945 36.0117 82.824 35.9996C82.3593 35.9877 82.0089 35.7176 81.9101 35.2308C81.72 34.2937 81.564 33.3495 81.383 32.4104C81.3147 32.0556 81.2339 31.7013 81.129 31.3563C80.6281 29.7087 79.3736 29.0895 77.841 28.8453C77.2296 28.7478 76.6184 28.6399 76.0155 28.4988C75.6359 28.41 75.2699 28.2616 75.0659 27.8665C74.7349 27.2258 75.0327 26.5614 75.7927 26.3801C76.5483 26.1997 77.3179 26.0788 78.0832 25.9427C79.7445 25.6471 80.7806 24.6575 81.207 22.9988C81.3642 22.3872 81.4902 21.7671 81.6456 21.1072ZM80.2553 27.6457C81.6644 28.262 82.4163 29.437 82.863 30.9354C83.367 29.1039 84.5387 28.0149 86.3495 27.391C84.5448 26.8076 83.4739 25.6433 82.8589 23.896C82.3871 25.6875 81.2917 26.7416 79.6886 27.3963C79.9048 27.4902 80.0459 27.5514 80.2553 27.6457Z" fill="black"/>
<path d="M31.7174 28.8366C32.3851 30.1589 33.5836 30.4143 34.7943 30.6459C35.2031 30.7241 35.6166 30.7801 36.0207 30.8785C36.5735 31.0132 36.9256 31.4367 36.9319 31.9262C36.938 32.3967 36.634 32.7524 36.0471 32.9096C35.4263 33.0759 34.7999 33.2209 34.1736 33.364C32.3658 33.7769 31.5101 35.0532 31.2387 36.8668C31.1372 37.5448 31.0318 38.2223 30.9215 38.8988C30.8776 39.1678 30.799 39.4271 30.6395 39.6507C30.4 39.9865 30.0607 40.0491 29.7043 39.9683C29.2508 39.8656 29.073 39.4778 28.9913 39.0565C28.8334 38.2422 28.7166 37.4192 28.5585 36.605C28.4761 36.181 28.3678 35.7582 28.2261 35.352C27.903 34.426 27.2967 33.8083 26.3723 33.5202C25.5701 33.2702 24.7388 33.1999 23.9265 33.0187C23.2698 32.8721 22.9362 32.5267 22.932 32.0205C22.928 31.5189 23.2558 31.1508 23.9023 30.9779C24.4724 30.8255 25.0467 30.6858 25.6244 30.5693C27.519 30.1873 28.4043 28.8853 28.662 26.9918C28.7593 26.2766 28.8627 25.5616 28.9911 24.852C29.0727 24.401 29.2623 24.0258 29.7892 24.0021C30.3359 23.9775 30.6419 24.1649 30.7718 24.754C30.9889 25.7387 31.1486 26.7371 31.3431 27.7274C31.4163 28.0997 31.525 28.4634 31.7174 28.8366ZM29.8611 34.5958C29.8966 34.6759 29.932 34.756 29.9974 34.9038C30.4238 33.4336 31.3732 32.5415 32.7313 31.9225C31.3007 31.3828 30.4189 30.4373 29.9956 28.9211C29.5533 30.3579 28.6908 31.2993 27.48 31.9794C28.6102 32.5759 29.3771 33.4015 29.8611 34.5958Z" fill="black"/>
<path d="M104.789 97.8104C104.641 98.4898 104.507 99.1285 104.358 99.7638C104.302 100.003 104.236 100.246 104.133 100.467C103.972 100.811 103.707 101.014 103.302 100.999C102.911 100.984 102.691 100.749 102.557 100.423C102.25 99.68 102.222 98.8732 102.1 98.0939C101.862 96.5725 101.034 95.6859 99.5523 95.3848C98.9538 95.2633 98.3602 95.1149 97.768 94.9638C97.2868 94.841 96.9428 94.5765 96.9322 94.0203C96.9215 93.452 97.289 93.2056 97.7553 93.0662C98.1569 92.9462 98.5656 92.8489 98.9741 92.7543C101.178 92.2437 101.929 91.4282 102.289 89.1531C102.357 88.7178 102.43 88.283 102.509 87.8495C102.611 87.2957 102.922 87.0092 103.418 87.0003C103.964 86.9905 104.231 87.1987 104.357 87.7924C104.514 88.5334 104.629 89.2833 104.785 90.0244C105.043 91.2454 105.721 92.0891 106.932 92.4731C107.634 92.6955 108.342 92.8831 109.058 93.0448C109.555 93.1572 109.892 93.4195 109.93 93.9573C109.963 94.434 109.649 94.7855 109.067 94.9327C108.576 95.0569 108.082 95.1799 107.584 95.2628C106.126 95.5052 105.153 96.2825 104.789 97.8104ZM102.877 92.632C102.395 93.2151 101.809 93.6635 100.992 93.9674C102.162 94.4558 102.951 95.1724 103.429 96.3386C103.933 95.2173 104.705 94.4871 105.749 93.9481C105.173 93.6647 104.741 93.3678 104.354 93.0042C103.975 92.648 103.75 92.1755 103.459 91.7259C103.263 92.0376 103.094 92.3055 102.877 92.632Z" fill="black"/>
<path d="M92.5044 40.3818C93.2214 39.5027 93.3114 38.4322 93.4766 37.3891C93.5041 37.2154 93.5196 37.039 93.5554 36.8674C93.6848 36.2476 93.9501 35.9925 94.4455 36.0002C94.9161 36.0075 95.2265 36.3111 95.3336 36.9C95.4439 37.5056 95.5349 38.1151 95.6365 38.7225C95.8669 40.1006 96.5967 40.9835 97.8935 41.2978C98.3127 41.3993 98.7363 41.4806 99.1541 41.5878C99.6139 41.7059 99.9359 41.959 99.932 42.5295C99.9282 43.0799 99.6144 43.3048 99.1698 43.4181C98.6873 43.5411 98.2066 43.6718 97.725 43.7989C96.5692 44.1039 95.9113 44.9197 95.6574 46.1272C95.5309 46.7289 95.4387 47.3391 95.3433 47.9477C95.2444 48.579 94.9247 48.9662 94.4535 48.9982C94.0209 49.0276 93.7049 48.6963 93.5657 48.04C93.4309 47.4042 93.301 46.7669 93.1883 46.1263C92.9231 44.6182 92.0341 43.8427 90.6522 43.6217C90.3257 43.5695 90.0029 43.4882 89.6805 43.4102C89.2189 43.2985 88.9357 42.9732 88.932 42.4825C88.9285 42.0088 89.2273 41.6959 89.645 41.5685C90.1217 41.4231 90.6127 41.3316 91.0936 41.2007C91.6146 41.059 92.0983 40.8338 92.5044 40.3818ZM93.4512 42.9567C93.8527 43.301 94.1632 43.7308 94.4632 44.2499C94.8773 43.5048 95.4368 42.9745 96.1157 42.4471C95.337 42.0242 94.8525 41.4156 94.4347 40.6458C94.0419 41.4654 93.4968 42.0098 92.8291 42.478C93.076 42.6657 93.2364 42.7876 93.4512 42.9567Z" fill="black"/>
<path d="M23.3594 85.8646C23.3228 85.7237 23.2946 85.6249 23.2744 85.5246C23.0237 84.2815 22.3219 83.456 20.9971 83.1867C20.5485 83.0956 20.101 82.9866 19.6663 82.847C19.2363 82.7089 18.915 82.4426 18.9327 81.9536C18.9502 81.4703 19.266 81.2187 19.7173 81.1079C20.127 81.0072 20.5401 80.918 20.9543 80.8366C22.3271 80.5668 23.0426 79.707 23.2753 78.4187C23.3631 77.9322 23.4139 77.4393 23.504 76.9532C23.5776 76.5563 23.7105 76.169 24.1669 76.0409C24.4666 75.9569 24.7736 75.9925 24.9984 76.2395C25.2411 76.5061 25.3305 76.8382 25.3678 77.1819C25.4268 77.7261 25.5438 78.2582 25.6856 78.7871C25.9889 79.9187 26.7893 80.5408 27.9107 80.834C28.3531 80.9496 28.8013 81.0449 29.2458 81.1534C29.6778 81.2588 29.9087 81.5392 29.9305 81.9606C29.9527 82.389 29.7247 82.6844 29.3136 82.819C28.9302 82.9446 28.5388 83.0618 28.1412 83.1297C26.5994 83.3933 25.8412 84.3512 25.5883 85.7714C25.5105 86.2083 25.4436 86.647 25.3686 87.0844C25.2688 87.6669 24.9531 87.9881 24.4743 87.9996C23.9663 88.0117 23.7175 87.7692 23.5873 87.115C23.5074 86.7135 23.4429 86.3091 23.3594 85.8646ZM24.9657 82.9393C25.2911 82.5825 25.6659 82.2784 26.1247 81.9999C25.4331 81.5674 24.9049 81.056 24.4403 80.4034C24.0317 81.0965 23.4884 81.5722 22.8372 82.0034C23.5703 82.4261 24.0835 82.9694 24.4741 83.6224C24.6386 83.388 24.7769 83.1907 24.9657 82.9393Z" fill="black"/>
<path d="M65.9331 85.7383C65.9326 80.9294 65.9321 76.1736 65.932 71.4177C65.932 70.2873 66.2299 70.0003 67.4023 70.0003C73.7858 70.0001 80.1694 69.9997 86.5529 70.0004C87.6687 70.0006 87.9318 70.2512 87.9318 71.3048C87.9321 77.1214 87.9321 82.9381 87.9316 88.7547C87.9315 89.6733 87.6064 89.9984 86.6376 89.9988C80.1799 90.0014 73.7221 89.9998 67.2644 89.9942C66.2635 89.9933 65.939 89.6687 65.9354 88.7085C65.9317 87.7361 65.9336 86.7637 65.9331 85.7383ZM77.9109 82.6094C77.911 84.2687 77.9171 85.9279 77.9062 87.5871C77.9039 87.9407 77.9676 88.1477 78.4162 88.145C80.7875 88.131 83.159 88.1366 85.5305 88.1416C85.8179 88.1423 85.9879 88.0698 85.987 87.759C85.9811 85.6056 85.9799 83.4521 85.9827 81.2987C85.9831 81.0043 85.8454 80.8946 85.5431 80.8953C83.1531 80.9013 80.7631 80.902 78.3732 80.898C78.0462 80.8974 77.8982 81.0201 77.909 81.3389C77.9222 81.7268 77.9114 82.1154 77.9109 82.6094ZM76.0519 85.367C76.0518 84.0432 76.0432 82.7193 76.0574 81.3956C76.0613 81.0331 75.9287 80.8924 75.5421 80.8941C73.1892 80.9039 70.8363 80.9055 68.4835 80.8928C68.0865 80.8907 67.9704 81.0411 67.9721 81.3941C67.9818 83.4768 67.9834 85.5597 67.9733 87.6424C67.9716 87.9985 68.0873 88.1463 68.4822 88.1443C70.835 88.1326 73.1879 88.1331 75.5407 88.1445C75.9315 88.1464 76.0645 88.0041 76.0561 87.644C76.0392 86.9207 76.0515 86.1968 76.0519 85.367ZM70.4672 71.9459C69.6572 71.9459 68.8472 71.9459 68.0341 71.9459C68.0061 72.0743 67.9788 72.1413 67.9787 72.2082C67.9757 74.3454 67.9798 76.4825 67.9707 78.6196C67.9689 79.0408 68.2404 79.0498 68.5608 79.0494C70.8597 79.0462 73.1586 79.0384 75.4573 79.0555C75.919 79.0589 76.0642 78.9119 76.0599 78.4752C76.0406 76.4971 76.0375 74.5187 76.0622 72.5407C76.0681 72.0636 75.8881 71.9348 75.4171 71.9403C73.8045 71.959 72.1914 71.9464 70.4672 71.9459ZM84.2738 79.0494C84.6258 79.049 84.98 79.0248 85.3292 79.0541C85.8413 79.0969 85.9995 78.9006 85.9937 78.4178C85.9705 76.4766 85.9676 74.5347 85.9955 72.5936C86.003 72.0693 85.8003 71.9348 85.285 71.9388C82.951 71.9569 80.6166 71.9448 78.2824 71.9445C78.1738 71.9445 78.057 71.9231 77.9673 72.0256C77.879 72.1657 77.9129 72.3283 77.9127 72.4839C77.9101 74.4784 77.9251 76.473 77.9006 78.4672C77.8947 78.9489 78.0788 79.061 78.5495 79.0559C80.4204 79.0352 82.2916 79.0485 84.2738 79.0494Z" fill="black"/>
</svg>
