<svg width="127" height="127" viewBox="0 0 127 127" fill="none" xmlns="http://www.w3.org/2000/svg">
<path d="M30.5207 43.6563C30.5207 39.9773 30.5194 36.3602 30.5211 32.7432C30.5219 30.9225 30.7126 30.7361 32.5519 30.7357C36.4377 30.735 40.3234 30.7342 44.2092 30.734C45.5772 30.7339 45.9307 31.0866 45.9307 32.448C45.9307 33.8489 45.9307 35.2498 45.9307 36.6435C46.236 36.7237 46.37 36.5337 46.5181 36.4099C51.1156 32.5681 55.7365 28.7536 60.2926 24.8633C62.3672 23.0918 64.9668 23.1399 66.8258 24.7095C69.6661 27.1077 72.5763 29.4229 75.4591 31.7706C76.1903 32.3661 76.2485 32.3418 76.7064 31.4912C77.5225 29.9751 77.8664 28.3257 78.0878 26.6433C78.1663 26.0468 78.355 25.5447 78.9955 25.3882C79.7346 25.2076 80.2776 25.6406 80.4079 26.4706C80.6027 27.711 80.7817 28.9541 81.1993 30.1476C82.2268 33.0845 84.2925 34.913 87.2364 35.7905C87.9257 35.996 88.6375 36.1256 89.3384 36.2924C90.1432 36.4839 90.5405 36.848 90.5618 37.4093C90.5826 37.9557 90.1416 38.4266 89.3578 38.6304C88.4001 38.8795 87.4363 39.1041 86.5193 39.4866C86.158 39.6372 85.796 39.7867 85.4223 40.0661C86.3212 40.8147 87.1987 41.5528 88.084 42.2815C92.486 45.9048 96.8899 49.5257 101.293 53.1471C102.761 54.3542 104.235 55.5532 105.695 56.7698C106.671 57.5836 107.049 58.6402 106.748 59.873C106.421 61.2171 105.301 62.0207 103.793 62.0476C102.574 62.0695 101.354 62.0549 100.135 62.0552C99.1388 62.0555 99.1381 62.0547 99.1381 63.0796C99.1379 76.2663 99.1379 89.4531 99.1378 102.64C99.1378 102.846 99.1442 103.053 99.1347 103.26C99.1028 103.958 98.7434 104.323 98.052 104.343C97.577 104.356 97.1013 104.347 96.6259 104.347C74.4896 104.347 52.3532 104.347 30.2169 104.346C29.9276 104.346 29.6365 104.361 29.3493 104.335C28.7684 104.282 28.4124 103.912 28.3661 103.329C28.3481 103.103 28.3591 102.874 28.3591 102.647C28.3592 89.419 28.3597 76.191 28.3596 62.9629C28.3596 62.0573 28.3574 62.0778 27.4458 62.0503C26.003 62.0068 24.5485 62.2137 23.1183 61.9431C21.08 61.5574 20.1458 59.2232 21.3191 57.5105C21.9504 56.589 22.8962 55.9985 23.7309 55.2972C25.7875 53.5695 27.8656 51.8671 29.9531 50.1769C30.3747 49.8355 30.5524 49.4934 30.5358 48.9259C30.4852 47.1914 30.5195 45.4544 30.5207 43.6563ZM59.2024 96.3043C59.2024 97.9576 59.2022 99.611 59.2027 101.264C59.2029 102.152 59.2034 102.153 60.0713 102.153C72.0793 102.154 84.0874 102.154 96.0954 102.154C96.9615 102.154 96.9641 102.154 96.9641 101.261C96.9642 88.5917 96.9655 75.9223 96.9598 63.2529C96.9592 61.921 97.1552 62.0256 95.7332 62.0252C78.6616 62.0204 61.59 62.0194 44.5183 62.017C40.1368 62.0164 35.7552 62.0145 31.3736 62.0136C30.4404 62.0134 30.4398 62.0142 30.4389 62.9766C30.4378 64.2153 30.4371 65.454 30.4373 66.6927C30.4383 72.2907 30.441 77.8886 30.4406 83.4865C30.4401 89.5008 30.4415 95.5152 30.4261 101.529C30.4248 102.025 30.5943 102.166 31.0749 102.162C33.2862 102.142 35.4978 102.154 37.7092 102.153C38.5419 102.153 38.5473 102.151 38.5477 101.288C38.5501 95.3978 38.5458 89.5074 38.555 83.6171C38.5564 82.6695 38.6196 81.7228 38.7725 80.7843C39.7249 74.9403 45.5812 71.4693 50.7935 72.5823C55.8761 73.6676 59.2016 77.8826 59.2023 83.0975C59.2029 87.4584 59.2024 91.8193 59.2024 96.3043ZM86.8579 53.2312C84.7572 51.5118 82.6564 49.7923 80.4732 48.0053C80.4348 48.2577 80.4244 48.356 80.4045 48.4522C80.2734 49.0862 79.887 49.4526 79.3323 49.4716C78.7542 49.4915 78.3493 49.1327 78.2116 48.4598C78.1209 48.0168 78.0538 47.5691 77.9675 47.1251C77.4432 44.4258 76.2288 42.1564 73.9015 40.5725C72.4244 39.5672 70.7641 39.026 69.0481 38.6216C68.652 38.5283 68.2367 38.3991 68.0979 38.0081C67.9009 37.453 67.459 37.1661 67.0503 36.8299C66.2211 36.1477 65.3842 35.4749 64.5532 34.7949C63.9172 34.2743 63.5483 34.2689 62.9157 34.7935C61.1193 36.2831 59.3287 37.7796 57.5288 39.2648C53.9131 42.2483 50.2874 45.2195 46.6758 48.2079C42.8411 51.3809 39.0174 54.5674 35.1901 57.7494C34.4131 58.3953 33.6415 59.0477 32.8412 59.719C53.4771 59.719 74.0264 59.719 94.7725 59.719C92.0588 57.4959 89.4914 55.3926 86.8579 53.2312ZM41.4809 79.2422C40.9177 80.5308 40.7185 81.8854 40.7197 83.2827C40.725 89.2964 40.7223 95.31 40.7231 101.324C40.7231 102.15 40.7245 102.153 41.5255 102.153C46.4232 102.154 51.321 102.142 56.2186 102.167C56.844 102.17 57.0236 102.003 57.0212 101.37C56.9979 95.3565 57.0079 89.3429 57.0067 83.3292C57.0066 82.7523 56.9799 82.181 56.9046 81.6035C56.4251 77.9258 53.3463 74.9101 49.6985 74.5866C46.2248 74.2785 43.1223 76.0129 41.4809 79.2422ZM62.7364 25.9532C62.3398 26.0973 62.0182 26.3624 61.7022 26.6256C59.4024 28.5418 57.1101 30.4671 54.8129 32.3864C50.2179 36.2256 45.6306 40.0741 41.023 43.8981C35.2078 48.7242 29.3762 53.5306 23.5488 58.3421C23.2171 58.6159 23.0086 58.9372 23.1489 59.3636C23.2861 59.7808 23.6749 59.7741 24.0302 59.775C25.2908 59.7783 26.5543 59.723 27.8108 59.7942C28.7798 59.8491 29.5848 59.6602 30.256 58.9217C30.5722 58.5737 30.9796 58.3086 31.3455 58.0057C36.023 54.1331 40.7009 50.2609 45.3781 46.3879C50.8829 41.8295 56.3852 37.2681 61.8932 32.7135C62.9685 31.8243 64.3256 31.8052 65.4226 32.6638C66.3166 33.3637 67.1919 34.0879 68.0655 34.8134C69.9038 36.3401 70.1658 36.384 72.3814 35.398C73.1668 35.0484 73.9367 34.6656 74.5995 33.9986C73.7637 33.3111 72.987 32.669 72.2067 32.0311C69.9205 30.1622 67.637 28.29 65.3436 26.43C64.6016 25.8282 63.785 25.4932 62.7364 25.9532ZM86.3017 43.7398C85.5038 43.0854 84.6912 42.4478 83.9146 41.769C83.5603 41.4594 83.3333 41.5142 83.0499 41.8429C82.26 42.7594 81.6531 43.7767 81.2096 44.9035C81.0234 45.3764 81.0906 45.6615 81.5058 45.9962C83.9953 48.0034 86.4538 50.049 88.9292 52.0736C91.9327 54.5301 94.9421 56.9792 97.9512 59.4288C98.1405 59.5828 98.3208 59.7667 98.5951 59.7659C100.329 59.7608 102.064 59.758 103.798 59.7501C104.114 59.7486 104.37 59.6173 104.475 59.3058C104.577 59.0013 104.466 58.7377 104.236 58.5242C104.13 58.4262 104.02 58.3334 103.908 58.2414C102.144 56.7808 100.382 55.317 98.6129 53.8613C94.5339 50.5038 90.4516 47.1503 86.3017 43.7398ZM38.0132 32.976C36.2867 32.976 34.5602 32.976 32.8243 32.976C32.8243 37.8802 32.8243 42.7246 32.8243 47.5623C33.0079 47.5977 33.0966 47.4979 33.1877 47.4228C36.5837 44.6241 39.9759 41.8208 43.3759 39.0271C43.6652 38.7894 43.7442 38.5142 43.7417 38.1611C43.7309 36.6316 43.7155 35.1016 43.7489 33.5727C43.7602 33.0516 43.5612 32.9595 43.0978 32.9663C41.4446 32.9903 39.7908 32.9758 38.0132 32.976ZM74.4108 36.7851C73.9408 37.0228 73.4709 37.2604 72.9332 37.5323C74.3152 38.2651 75.5971 39.0097 76.6765 40.0493C77.7542 41.0873 78.5376 42.3399 79.2972 43.785C79.9477 42.3132 80.75 41.1106 81.786 40.0584C82.8207 39.0075 84.0954 38.3021 85.4709 37.4831C82.4684 36.2285 80.466 34.1574 79.2579 31.2266C78.2148 33.646 76.6792 35.4791 74.4108 36.7851Z" fill="#EDD118"/>
<path d="M84.7241 10.5879C84.8574 10.0164 84.9526 9.48901 85.0943 8.97442C85.2389 8.44937 85.6476 8.19575 86.1618 8.19097C86.6633 8.18632 87.0085 8.47799 87.1815 8.95421C87.5213 9.88903 87.5695 10.8871 87.8086 11.8449C88.5192 14.6914 89.707 15.7714 92.6234 16.2089C93.2732 16.3064 93.9191 16.4358 94.5617 16.5744C95.1227 16.6953 95.4974 17.0402 95.5271 17.6306C95.5585 18.2542 95.1915 18.6546 94.6186 18.8008C93.7221 19.0297 92.8114 19.2042 91.9047 19.3916C90.3769 19.7075 88.9988 20.2282 88.3584 21.8366C87.8972 22.9948 87.7023 24.2148 87.4784 25.4298C87.4003 25.8541 87.3185 26.2806 87.1947 26.6929C87.0353 27.2233 86.6426 27.5425 86.0952 27.5288C85.5544 27.5152 85.1468 27.208 85.0318 26.6542C84.8106 25.5882 84.6291 24.5141 84.4186 23.4458C84.339 23.0422 84.245 22.6393 84.1229 22.2468C83.5401 20.3725 82.0805 19.6682 80.2973 19.3904C79.5859 19.2795 78.8748 19.1567 78.1734 18.9963C77.7316 18.8952 77.3058 18.7264 77.0684 18.277C76.6833 17.5481 77.0299 16.7924 77.9141 16.5861C78.7933 16.3809 79.6887 16.2434 80.5792 16.0885C82.5121 15.7522 83.7177 14.6266 84.2137 12.7398C84.3966 12.044 84.5432 11.3386 84.7241 10.5879ZM83.1064 18.0257C84.746 18.7269 85.6208 20.0634 86.1406 21.768C86.727 19.6846 88.0902 18.4458 90.1971 17.7361C88.0973 17.0724 86.8514 15.7479 86.1358 13.7603C85.5868 15.7982 84.3122 16.9973 82.447 17.7421C82.6986 17.8489 82.8628 17.9185 83.1064 18.0257Z" fill="#EDD118"/>
<path d="M26.9033 18.8552C27.6969 20.3614 29.1215 20.6524 30.5606 20.9161C31.0464 21.0052 31.538 21.069 32.0183 21.1811C32.6754 21.3345 33.0939 21.8169 33.1014 22.3744C33.1086 22.9104 32.7473 23.3155 32.0497 23.4946C31.3117 23.684 30.5672 23.8492 29.8227 24.0122C27.674 24.4825 26.6568 25.9362 26.3342 28.002C26.2136 28.7743 26.0884 29.5459 25.9572 30.3165C25.905 30.623 25.8116 30.9183 25.622 31.173C25.3373 31.5555 24.934 31.6267 24.5103 31.5348C23.9713 31.4178 23.76 30.976 23.6629 30.4961C23.4752 29.5686 23.3364 28.6312 23.1484 27.7038C23.0505 27.2209 22.9218 26.7392 22.7533 26.2765C22.3693 25.2218 21.6486 24.5182 20.5498 24.1901C19.5963 23.9053 18.6081 23.8253 17.6426 23.6188C16.8621 23.4519 16.4655 23.0584 16.4606 22.4819C16.4558 21.9105 16.8454 21.4912 17.6139 21.2943C18.2915 21.1207 18.9741 20.9616 19.6609 20.8289C21.9129 20.3938 22.9651 18.9108 23.2715 16.754C23.3872 15.9393 23.51 15.1249 23.6626 14.3167C23.7597 13.8029 23.985 13.3755 24.6114 13.3486C25.2611 13.3206 25.6248 13.534 25.7792 14.205C26.0373 15.3266 26.2272 16.4638 26.4584 17.5919C26.5453 18.0159 26.6745 18.4302 26.9033 18.8552ZM24.6968 25.4152C24.7389 25.5065 24.7811 25.5977 24.8588 25.766C25.3657 24.0914 26.4941 23.0753 28.1084 22.3702C26.408 21.7555 25.3598 20.6785 24.8567 18.9515C24.3309 20.5881 23.3057 21.6603 21.8665 22.435C23.2099 23.1144 24.1214 24.0549 24.6968 25.4152Z" fill="#EDD118"/>
<path d="M110.802 98.7665C110.628 99.5591 110.469 100.304 110.293 101.045C110.227 101.325 110.15 101.608 110.028 101.866C109.839 102.267 109.526 102.504 109.048 102.487C108.587 102.469 108.328 102.195 108.169 101.814C107.808 100.948 107.775 100.006 107.631 99.0973C107.35 97.3223 106.374 96.288 104.626 95.9368C103.92 95.7949 103.22 95.6219 102.522 95.4456C101.954 95.3024 101.549 94.9938 101.536 94.3449C101.523 93.6819 101.957 93.3945 102.507 93.2318C102.98 93.0918 103.462 92.9783 103.944 92.8679C106.543 92.2722 107.429 91.3209 107.853 88.6667C107.934 88.1588 108.02 87.6515 108.113 87.1458C108.233 86.4998 108.6 86.1656 109.185 86.1552C109.829 86.1437 110.144 86.3867 110.292 87.0792C110.477 87.9437 110.614 88.8185 110.798 89.6832C111.101 91.1076 111.901 92.0918 113.33 92.5399C114.157 92.7993 114.993 93.0181 115.837 93.2068C116.423 93.3379 116.82 93.644 116.864 94.2714C116.904 94.8275 116.533 95.2376 115.847 95.4093C115.268 95.5542 114.686 95.6977 114.098 95.7944C112.379 96.0772 111.231 96.984 110.802 98.7665ZM108.547 92.7252C107.978 93.4055 107.288 93.9286 106.324 94.2832C107.704 94.8529 108.634 95.6889 109.198 97.0494C109.793 95.7413 110.703 94.8894 111.934 94.2607C111.255 93.93 110.745 93.5837 110.289 93.1595C109.842 92.7439 109.577 92.1927 109.234 91.6682C109.002 92.0318 108.803 92.3444 108.547 92.7252Z" fill="#EDD118"/>
<path d="M96.6004 32.6033C97.4921 31.5781 97.604 30.3296 97.8094 29.1131C97.8436 28.9106 97.8629 28.7049 97.9074 28.5047C98.0682 27.7819 98.3982 27.4844 99.0142 27.4934C99.5994 27.5019 99.9854 27.856 100.119 28.5428C100.256 29.249 100.369 29.9599 100.495 30.6682C100.782 32.2753 101.689 33.3049 103.302 33.6715C103.823 33.7899 104.35 33.8847 104.869 34.0098C105.441 34.1474 105.842 34.4426 105.837 35.1079C105.832 35.7498 105.442 36.0121 104.889 36.1442C104.289 36.2877 103.691 36.4401 103.092 36.5883C101.655 36.944 100.837 37.8954 100.521 39.3036C100.364 40.0053 100.249 40.717 100.131 41.4267C100.008 42.1629 99.6101 42.6145 99.0242 42.6518C98.4862 42.6861 98.0933 42.2997 97.9202 41.5343C97.7526 40.7929 97.591 40.0496 97.4509 39.3026C97.1211 37.5439 96.0156 36.6395 94.2972 36.3817C93.8912 36.3208 93.4898 36.2259 93.0889 36.135C92.5149 36.0048 92.1628 35.6253 92.1582 35.0532C92.1538 34.5007 92.5254 34.1357 93.0447 33.9872C93.6376 33.8176 94.2481 33.7109 94.8462 33.5583C95.4939 33.393 96.0954 33.1304 96.6004 32.6033ZM97.7778 35.6061C98.2771 36.0077 98.6632 36.5089 99.0363 37.1143C99.5511 36.2454 100.247 35.6269 101.091 35.0119C100.123 34.5187 99.5204 33.8089 99.0008 32.9111C98.5124 33.867 97.8345 34.5019 97.0043 35.0479C97.3113 35.2668 97.5107 35.409 97.7778 35.6061Z" fill="#EDD118"/>
<path d="M17.1659 84.6514C17.1231 84.4814 17.0902 84.3622 17.0666 84.2411C16.7739 82.7411 15.9546 81.7448 14.4079 81.42C13.8841 81.3099 13.3617 81.1784 12.8541 81.0099C12.3521 80.8433 11.977 80.522 11.9976 79.9318C12.0181 79.3487 12.3867 79.0451 12.9137 78.9113C13.392 78.7899 13.8742 78.6823 14.3579 78.584C15.9606 78.2585 16.796 77.2209 17.0676 75.6662C17.1702 75.0791 17.2294 74.4844 17.3347 73.8979C17.4206 73.4189 17.5757 72.9515 18.1086 72.797C18.4585 72.6955 18.817 72.7385 19.0794 73.0365C19.3627 73.3583 19.4671 73.7591 19.5107 74.1738C19.5796 74.8305 19.7162 75.4725 19.8817 76.1109C20.2358 77.4763 21.1703 78.2271 22.4795 78.5808C22.9961 78.7204 23.5193 78.8353 24.0383 78.9662C24.5426 79.0934 24.8122 79.4318 24.8377 79.9403C24.8636 80.4573 24.5973 80.8138 24.1175 80.9762C23.6698 81.1278 23.2128 81.2691 22.7486 81.3512C20.9485 81.6692 20.0634 82.8251 19.7681 84.5389C19.6772 85.0661 19.5992 85.5955 19.5117 86.1233C19.395 86.8262 19.0266 87.2139 18.4675 87.2277C17.8744 87.2424 17.584 86.9497 17.4319 86.1603C17.3386 85.6758 17.2634 85.1878 17.1659 84.6514ZM19.0412 81.1214C19.4211 80.6908 19.8587 80.3238 20.3944 79.9878C19.5869 79.4659 18.9703 78.8487 18.4278 78.0612C17.9508 78.8977 17.3164 79.4716 16.5561 79.992C17.4121 80.5021 18.0112 81.1577 18.4673 81.9456C18.6593 81.6628 18.8208 81.4248 19.0412 81.1214Z" fill="#EDD118"/>
<path d="M66.6973 84.8321C66.6968 79.2101 66.6962 73.65 66.6961 68.09C66.6961 66.7685 67.0279 66.433 68.3338 66.433C75.444 66.4327 82.5542 66.4322 89.6644 66.4331C90.9072 66.4333 91.2003 66.7263 91.2003 67.958C91.2005 74.7582 91.2007 81.5584 91.2001 88.3585C91.2 89.4324 90.8378 89.8125 89.7588 89.813C82.5659 89.816 75.373 89.8141 68.1801 89.8076C67.0653 89.8065 66.7039 89.4271 66.6999 88.3045C66.6958 87.1677 66.6979 86.0309 66.6973 84.8321ZM80.0386 81.1742C80.0387 83.114 80.0455 85.0538 80.0334 86.9935C80.0308 87.4069 80.1018 87.6488 80.6014 87.6457C83.2427 87.6294 85.8842 87.6359 88.5256 87.6418C88.8457 87.6425 89.0351 87.5579 89.0341 87.1945C89.0275 84.6769 89.0262 82.1594 89.0293 79.6418C89.0297 79.2976 88.8764 79.1693 88.5396 79.1702C85.8776 79.1772 83.2155 79.178 80.5535 79.1733C80.1893 79.1726 80.0245 79.3161 80.0366 79.6887C80.0513 80.1422 80.0392 80.5966 80.0386 81.1742ZM77.968 84.398C77.9679 82.8503 77.9583 81.3026 77.9741 79.7551C77.9785 79.3313 77.8308 79.1669 77.4001 79.1687C74.7795 79.1802 72.1587 79.1821 69.5381 79.1673C69.0958 79.1648 68.9666 79.3407 68.9684 79.7533C68.9792 82.1882 68.981 84.6233 68.9698 87.0582C68.9679 87.4745 69.0968 87.6472 69.5366 87.6449C72.1572 87.6312 74.778 87.6318 77.3987 87.6451C77.8338 87.6473 77.982 87.481 77.9727 87.0601C77.9539 86.2144 77.9676 85.3681 77.968 84.398ZM71.7476 68.7076C70.8453 68.7076 69.9431 68.7076 69.0374 68.7076C69.0063 68.8577 68.9759 68.9359 68.9758 69.0143C68.9724 71.5127 68.977 74.0113 68.9669 76.5097C68.9649 77.0021 69.2673 77.0126 69.6242 77.0121C72.1847 77.0084 74.7453 76.9993 77.3057 77.0192C77.82 77.0233 77.9817 76.8514 77.977 76.3409C77.9554 74.0284 77.952 71.7153 77.9795 69.4029C77.9861 68.8451 77.7856 68.6946 77.261 68.701C75.4647 68.7229 73.6681 68.7081 71.7476 68.7076ZM87.1258 77.0121C87.5179 77.0117 87.9124 76.9834 88.3014 77.0176C88.8718 77.0678 89.048 76.8383 89.0416 76.2738C89.0157 74.0043 89.0125 71.7341 89.0435 69.4647C89.0519 68.8518 88.8261 68.6945 88.2522 68.6992C85.6524 68.7204 83.0524 68.7063 80.4525 68.7059C80.3315 68.7059 80.2014 68.6809 80.1015 68.8008C80.0031 68.9645 80.0408 69.1546 80.0406 69.3365C80.0378 71.6682 80.0545 74.0001 80.0272 76.3315C80.0206 76.8947 80.2256 77.0258 80.75 77.0197C82.8338 76.9956 84.918 77.0111 87.1258 77.0121Z" fill="#EDD118"/>
</svg>
