<svg width="87" height="87" viewBox="0 0 87 87" fill="none" xmlns="http://www.w3.org/2000/svg">
<path fill-rule="evenodd" clip-rule="evenodd" d="M7.25 21.75C7.25 13.7419 13.7419 7.25 21.75 7.25H65.25C73.258 7.25 79.75 13.7419 79.75 21.75V65.25C79.75 73.258 73.258 79.75 65.25 79.75H21.75C13.7419 79.75 7.25 73.258 7.25 65.25V21.75ZM21.75 14.5C17.7459 14.5 14.5 17.7459 14.5 21.75V65.25C14.5 69.2542 17.7459 72.5 21.75 72.5H43.5V47.125H39.875C37.8729 47.125 36.25 45.5021 36.25 43.5C36.25 41.4979 37.8729 39.875 39.875 39.875H43.5V34.4375C43.5 27.4304 49.1804 21.75 56.1875 21.75H58.3625C60.3646 21.75 61.9875 23.373 61.9875 25.375C61.9875 27.377 60.3646 29 58.3625 29H56.1875C53.1846 29 50.75 31.4344 50.75 34.4375V39.875H58.3625C60.3646 39.875 61.9875 41.4979 61.9875 43.5C61.9875 45.5021 60.3646 47.125 58.3625 47.125H50.75V72.5H65.25C69.2542 72.5 72.5 69.2542 72.5 65.25V21.75C72.5 17.7459 69.2542 14.5 65.25 14.5H21.75Z" fill="#EDD118"/>
</svg>
