<svg width="110" height="110" viewBox="0 0 110 110" fill="none" xmlns="http://www.w3.org/2000/svg">
<g clip-path="url(#clip0_22_399)">
<circle cx="55" cy="55" r="55" fill="white"/>
<path d="M37.8803 77.1208C34.9838 77.1157 32.1317 77.1655 29.2827 77.0914C25.9285 77.0042 22.5772 77.1372 19.2245 77.1139C18.9338 77.1119 18.6319 77.1355 18.3683 77.01C17.9333 76.803 17.7324 76.4499 17.7182 75.9375C17.5572 70.1084 17.6753 64.2784 17.6614 58.449C17.6344 47.1895 17.6425 35.9299 17.6361 24.6703C17.6355 23.5519 17.9242 23.2676 19.0441 23.2542C30.5529 23.1161 42.0623 23.1811 53.5714 23.1645C58.6784 23.1572 63.7854 23.1656 68.8923 23.1703C69.2269 23.1706 69.5642 23.1777 69.8955 23.2198C70.5801 23.3067 70.836 23.6051 70.8377 24.3175C70.8433 26.5601 70.8117 28.8033 70.8458 31.0454C70.9486 37.8031 70.9661 44.5612 70.8956 51.3187C70.8686 53.901 70.856 56.4832 70.8389 59.0654C70.8345 59.7285 70.5241 60.1012 69.9539 60.1319C69.397 60.1619 68.8274 59.6803 68.774 59.1214C68.7549 58.9221 68.766 58.7196 68.7665 58.5186C68.7729 55.8274 68.774 53.1362 68.7927 50.4452C68.7957 50.0093 68.7077 49.6418 68.4392 49.2884C67.6981 48.3126 66.985 47.315 66.1759 46.2101C66.1759 46.6436 66.1764 46.9441 66.1759 47.2446C66.1723 49.147 66.1682 51.0493 66.1651 52.9517C66.1647 53.1995 66.1482 53.4426 66.0913 53.687C65.9904 54.1202 65.7324 54.3685 65.3013 54.3946C64.8624 54.4213 64.4868 54.2755 64.2733 53.8518C64.1321 53.5715 64.0972 53.268 64.098 52.9525C64.1039 50.8336 64.0972 48.7146 64.1064 46.5958C64.1078 46.2822 64.0455 46.1094 63.7049 46.0013C62.2402 45.5364 60.798 44.9967 59.3269 44.5556C58.8045 44.399 58.2604 44.2566 57.683 44.2823C56.694 44.3264 55.7017 44.2977 54.7108 44.292C53.8444 44.287 53.5855 44.0218 53.5801 43.1693C53.5743 42.2705 53.6855 42.344 52.7759 42.3423C51.2666 42.3394 49.7574 42.3418 48.2482 42.342C47.3513 42.3421 47.0926 42.08 47.0899 41.1491C47.0858 39.6953 47.0727 38.2412 47.0963 36.7877C47.1034 36.348 46.9834 36.2045 46.5355 36.2058C41.4591 36.2208 36.3826 36.2206 31.3061 36.208C30.8819 36.207 30.7656 36.3402 30.7651 36.7633C30.7634 38.2779 30.8116 39.7939 30.6883 41.3069C30.6305 42.0154 30.3113 42.3387 29.6097 42.3407C28.0548 42.345 26.4998 42.3422 24.9449 42.3429C24.3502 42.3431 24.3512 42.3438 24.3507 42.9234C24.3468 46.9601 24.3719 50.9971 24.3282 55.0334C24.2983 57.8005 24.2994 60.5676 24.2658 63.3344C24.2599 63.8145 24.4256 63.9137 24.8636 63.95C26.4937 64.0851 28.1235 63.8719 29.7518 63.9875C30.4303 64.0356 30.7686 64.3788 30.772 65.0834C30.7792 66.5991 30.7863 68.115 30.7712 69.6305C30.7674 70.0069 30.8749 70.1424 31.2612 70.1418C37.4048 70.1319 43.5484 70.1318 49.692 70.142C50.0874 70.1426 50.23 70.0256 50.2215 69.6148C50.2002 68.5945 50.2024 67.5731 50.227 66.5528C50.2375 66.1207 50.0804 65.994 49.6664 66.0017C48.4472 66.0244 47.2271 65.9943 46.0079 66.0172C45.5245 66.0263 45.2305 65.8306 45.0576 65.3905C44.9118 65.0194 45.0093 64.3067 45.2464 64.0675C45.4052 63.9072 45.6037 63.9199 45.8027 63.9206C47.0985 63.9247 48.3945 63.9153 49.6899 63.9375C50.0797 63.9442 50.2349 63.8289 50.2308 63.4151C50.2169 61.9924 50.231 60.5695 50.2366 59.1467C50.2375 58.9149 50.2367 58.682 50.2585 58.4518C50.3253 57.744 50.6422 57.4706 51.3364 57.506C51.9391 57.5368 52.2807 57.926 52.2798 58.5805C52.2775 60.1736 52.2752 61.7666 52.273 63.3596C52.2727 63.5276 52.2729 63.6956 52.2729 63.827C52.4368 63.9984 52.5976 63.9344 52.743 63.9347C53.8254 63.9371 54.908 63.9208 55.99 63.9389C56.3796 63.9455 56.5337 63.8307 56.5183 63.4125C56.4894 62.6248 56.4954 61.8349 56.5147 61.0466C56.5352 60.2065 56.9799 59.7349 57.7089 59.7331C58.1891 59.7319 58.4025 59.9179 58.4872 60.3969C58.6609 61.3794 58.5747 62.371 58.571 63.3577C58.5693 63.8062 58.7014 63.9572 59.1413 63.9331C59.7951 63.8972 60.4518 63.9099 61.1073 63.9101C61.7662 63.9102 62.1666 64.2172 62.2328 64.7595C62.3114 65.4039 62.0468 65.7904 61.3563 65.94C60.6357 66.0962 59.898 66.011 59.1698 65.9976C58.715 65.9892 58.5545 66.1107 58.5723 66.5932C58.6088 67.5817 58.6094 68.5734 58.5732 69.5619C58.5553 70.0503 58.7288 70.181 59.1776 70.1508C59.7089 70.1151 60.2446 70.1206 60.7775 70.1382C61.702 70.1686 62.2226 71.0943 61.7832 71.8846C61.6003 72.2136 61.3168 72.308 60.9802 72.3106C60.34 72.3157 59.6997 72.3157 59.0594 72.3157C47.2752 72.3163 35.4911 72.3075 23.707 72.3313C22.547 72.3337 22.4027 71.8259 22.3784 70.9537C21.9975 57.316 22.3226 43.6757 22.2176 30.0372C22.2138 29.5434 22.2096 29.0513 22.2959 28.5586C22.362 28.1819 22.551 27.9685 22.9097 27.9214C23.2714 27.8739 23.6369 27.8293 24.0007 27.8292C37.2026 27.8275 50.4044 27.8293 63.6062 27.8404C64.167 27.8409 64.7312 27.9097 65.2877 27.9904C65.9773 28.0903 66.1724 28.3366 66.1741 29.042C66.1785 30.9444 66.1756 32.8468 66.1757 34.7492C66.1758 37.2084 66.1812 39.6676 66.1701 42.1267C66.1686 42.4705 66.2562 42.7502 66.4535 43.026C67.2128 44.0877 67.9571 45.1603 68.7511 46.2916C68.764 46.0887 68.7805 45.9451 68.7811 45.8014C68.809 39.6773 68.8905 33.5534 68.8484 27.4291C68.8445 26.8575 68.7994 26.2861 68.8003 25.7146C68.8009 25.3744 68.6741 25.2564 68.3383 25.2614C67.2714 25.2773 66.2041 25.2667 65.137 25.2667C50.1819 25.2672 35.2269 25.2678 20.2718 25.2684C19.6192 25.2684 19.613 25.2682 19.6194 25.9239C19.7493 39.2551 19.7183 52.5867 19.679 65.918C19.6705 68.7776 19.6319 71.6379 19.6091 74.4979C19.6057 74.9327 19.7392 75.0456 20.1542 75.0451C29.4991 75.0346 38.8445 75.0849 48.189 75.017C53.2345 74.9803 58.2795 75.0097 63.3246 74.982C64.0828 74.9779 64.0952 74.9874 64.1357 74.2251C64.2268 72.5109 64.1796 70.7945 64.1911 69.0791C64.1954 68.441 64.3934 68.1889 64.9718 68.0927C65.5358 67.9989 65.9284 68.2643 66.1062 68.8373C66.1723 69.0503 66.1744 69.263 66.1745 69.4788C66.1756 71.6132 66.1759 73.7476 66.176 75.882C66.176 76.6852 66.0388 76.8527 65.2662 77.071C65.0242 77.1393 64.7844 77.1365 64.5418 77.1364C55.6698 77.1321 46.7979 77.1264 37.8803 77.1208ZM61.6131 43.123C62.6531 43.4146 63.5975 44.0107 64.7304 44.1113C61.6951 40.3565 58.7858 36.5183 55.6385 32.8411C55.527 33.0409 55.5685 33.1974 55.5683 33.3458C55.565 36.1119 55.5654 38.8779 55.5656 41.644C55.5656 42.2787 55.5669 42.2668 56.1875 42.2826C57.2479 42.3095 58.3169 42.1663 59.3647 42.4602C60.0933 42.6646 60.7886 42.9831 61.6131 43.123ZM64.1033 38.7361C64.1027 36.0152 64.0901 33.2941 64.1124 30.5734C64.1164 30.0882 63.9594 29.9856 63.5119 29.9838C61.2884 29.975 59.0637 30.07 56.8415 29.9165C56.5621 29.8972 56.2803 29.9139 55.8664 29.9139C58.7236 33.2468 61.3947 36.5461 63.9854 39.9131C64.0249 39.8892 64.0643 39.8654 64.1037 39.8415C64.1037 39.5035 64.1037 39.1655 64.1033 38.7361ZM26.9497 34.2051C27.3913 34.2049 27.8337 34.1879 28.2743 34.2097C28.6171 34.2267 28.7269 34.0879 28.7233 33.7508C28.7114 32.6231 28.7141 31.4951 28.7267 30.3674C28.7304 30.0357 28.6232 29.899 28.2788 29.9037C27.1217 29.9195 25.9641 29.9164 24.8069 29.9063C24.5032 29.9037 24.3628 29.998 24.3652 30.3286C24.3736 31.4872 24.3696 32.6461 24.3558 33.8047C24.3522 34.1058 24.4616 34.2165 24.7568 34.2107C25.457 34.1971 26.1577 34.2056 26.9497 34.2051ZM49.1629 30.7675C49.1629 31.7404 49.1744 32.7136 49.157 33.6862C49.1508 34.0344 49.2777 34.1439 49.6099 34.1387C50.7818 34.1204 51.954 34.1146 53.126 34.124C53.4538 34.1266 53.5907 34.0316 53.5791 33.6778C53.542 32.5516 53.5262 31.4246 53.5102 30.2978C53.5065 30.0329 53.4179 29.9048 53.1352 29.907C51.9328 29.9163 50.7302 29.914 49.5276 29.91C49.284 29.9092 49.1527 30 49.1634 30.2616C49.169 30.4003 49.1634 30.5395 49.1629 30.7675ZM24.3468 68.713C24.3513 69.0687 24.3606 69.4244 24.3586 69.78C24.3572 70.03 24.4619 70.1453 24.7149 70.1441C25.9192 70.1385 27.1234 70.1372 28.3277 70.141C28.5936 70.1419 28.7119 70.04 28.7103 69.7575C28.704 68.6749 28.7063 67.5922 28.7182 66.5097C28.7215 66.2148 28.6203 66.0958 28.3198 66.0984C27.1156 66.1087 25.9112 66.108 24.707 66.0968C24.3904 66.0939 24.2673 66.2161 24.2815 66.5354C24.3123 67.2301 24.3258 67.9256 24.3468 68.713ZM34.8862 34.0241C34.9892 32.7604 34.9491 31.4945 34.9429 30.2291C34.9417 29.9913 34.8189 29.9074 34.5959 29.9083C33.438 29.9127 32.2802 29.9145 31.1223 29.9085C30.8701 29.9072 30.7661 30.0073 30.7675 30.2646C30.7741 31.4393 30.7737 32.614 30.7712 33.7887C30.7707 34.0145 30.8549 34.1431 31.0893 34.139C32.3362 34.1174 33.5846 34.1918 34.8862 34.0241ZM54.3904 70.1439C54.9696 70.1436 55.5489 70.14 56.1281 70.1445C56.3911 70.1465 56.5131 70.0433 56.5109 69.759C56.5019 68.6455 56.5022 67.5319 56.5115 66.4184C56.514 66.1217 56.4049 66.0029 56.1088 66.0054C54.9656 66.0151 53.8222 66.0147 52.679 66.0077C52.3896 66.0059 52.2677 66.116 52.2701 66.4176C52.2793 67.531 52.2791 68.6447 52.27 69.7581C52.2676 70.0425 52.3862 70.1427 52.6526 70.1397C53.2013 70.1336 53.7501 70.1417 54.3904 70.1439ZM50.6405 40.1651C51.4929 40.164 52.3453 40.1578 53.1977 40.1651C53.4621 40.1673 53.5862 40.0794 53.5837 39.7917C53.5744 38.7262 53.5746 37.6605 53.5837 36.5949C53.5861 36.3152 53.4813 36.2136 53.2068 36.2155C51.9891 36.224 50.7713 36.2219 49.5536 36.2156C49.2922 36.2143 49.1593 36.3007 49.1613 36.5882C49.1685 37.6537 49.1697 38.7194 49.1596 39.7849C49.1568 40.0731 49.2823 40.167 49.5447 40.1613C49.8794 40.1541 50.2144 40.1631 50.6405 40.1651ZM37.7515 34.1297C38.7093 34.13 39.6671 34.1236 40.6248 34.1346C40.9321 34.1381 41.0585 34.0329 41.0548 33.7055C41.0422 32.5951 41.0428 31.4843 41.0592 30.374C41.0647 30.0021 40.9135 29.8982 40.5682 29.9038C39.5347 29.9204 38.5005 29.9213 37.467 29.9056C37.1122 29.9002 36.9886 30.0239 36.9889 30.3876C36.9898 31.5285 36.9663 32.6696 36.9372 33.8101C36.9316 34.0291 36.99 34.1318 37.2074 34.1291C37.3594 34.1272 37.5114 34.1294 37.7515 34.1297ZM24.3533 38.2745C24.3515 38.7531 24.3634 39.2324 24.3432 39.7102C24.3287 40.0553 24.4696 40.1725 24.7989 40.1696C25.9554 40.1592 27.1122 40.1583 28.2687 40.1722C28.6142 40.1763 28.7114 40.0334 28.7068 39.7013C28.6928 38.6825 28.6953 37.6631 28.7104 36.6442C28.7151 36.3258 28.612 36.2079 28.2906 36.2119C27.1188 36.2265 25.9467 36.2272 24.775 36.2133C24.4475 36.2095 24.3501 36.3442 24.3575 36.6532C24.3696 37.1624 24.3561 37.6722 24.3533 38.2745ZM43.1305 33.9451C43.2032 34.1672 43.3935 34.1235 43.5517 34.1242C44.5858 34.1292 45.62 34.117 46.6538 34.1332C47.0008 34.1387 47.0966 33.9983 47.0922 33.6663C47.0775 32.5711 47.0753 31.4754 47.0925 30.3803C47.0984 30.0052 46.9457 29.9016 46.6031 29.9063C45.5997 29.9199 44.5957 29.922 43.5924 29.9045C43.2311 29.8983 43.1161 30.0352 43.1204 30.3929C43.1343 31.5498 43.1224 32.707 43.1305 33.9451Z" fill="black"/>
<path d="M84.3696 75.14C86.5639 77.6306 88.7626 80.074 90.8961 82.5745C92.0345 83.9087 92.3772 85.5469 91.9176 87.2244C91.3822 89.1788 90.0947 90.5414 88.1194 91.0499C86.1671 91.5525 84.3687 91.2005 82.9255 89.6641C80.2675 86.8344 77.7078 83.9143 75.2034 80.9442C74.9559 80.6507 74.7019 80.3617 74.4347 80.0867C73.6546 79.2838 73.3063 78.2254 72.8204 77.2535C72.4809 76.5746 71.9984 75.9914 71.6688 75.3114C71.5867 75.142 71.4436 75.0767 71.2541 75.0878C71.0109 75.1021 70.7666 75.101 70.5228 75.1005C69.3188 75.0984 68.2232 73.9923 68.0091 72.7904C67.7787 71.4974 68.5032 70.8474 69.3822 70.2247C69.4912 70.1474 69.6458 70.132 69.7295 69.9381C69.198 69.3371 68.662 68.7109 68.1046 68.105C66.9631 66.8641 65.8116 65.6325 64.6615 64.3998C62.5974 62.1877 60.6688 59.853 58.7349 57.5272C58.0992 56.7625 57.3543 56.3693 56.4844 56.074C56.0805 55.9369 55.6841 55.7769 55.2846 55.6265C54.8937 55.4794 54.625 55.1607 54.559 54.7878C54.4618 54.2392 54.1374 53.8292 53.8719 53.3934C53.4384 52.6816 53.0598 51.9406 52.6922 51.1976C52.3732 50.5528 52.2972 49.7334 53.1976 49.1946C53.7344 48.8734 54.226 48.4907 54.6798 48.0446C55.325 47.4104 56.1291 47.3793 56.7716 47.9805C57.6734 48.8242 58.7176 49.4606 59.7034 50.1824C60.1234 50.4899 60.6251 50.7854 60.7055 51.3349C60.7984 51.9699 61.0808 52.5354 61.2034 53.1464C61.266 53.4582 61.3855 53.6707 61.5911 53.889C63.1379 55.5306 64.702 57.1567 66.2065 58.8375C67.9975 60.8383 69.7586 62.8673 71.4682 64.9416C72.0036 65.5912 72.5996 66.1894 73.1698 66.8133C73.5318 66.5409 73.8704 66.2846 74.2106 66.0305C75.4532 65.1026 76.616 65.3571 77.4545 66.6739C77.9698 67.4833 78.0377 68.3581 77.9495 69.2547C77.9157 69.5983 78.0495 69.7127 78.2731 69.8627C79.2895 70.5444 80.3136 71.2158 81.3075 71.9301C82.2071 72.5765 82.9375 73.4085 83.6276 74.2763C83.857 74.5648 84.1065 74.8369 84.3696 75.14ZM76.5368 79.3298C76.8786 79.7437 77.2072 80.1697 77.5644 80.5695C79.8854 83.1674 82.2129 85.7594 84.5373 88.3542C84.6723 88.505 84.8288 88.6182 85.0069 88.7144C86.2959 89.4108 87.504 89.195 88.7294 88.4869C89.9355 87.7899 90.6427 85.366 89.4294 84.059C88.9497 83.5422 88.4829 83.0129 88.019 82.4814C86.3132 80.527 84.6217 78.5595 82.9028 76.6169C82.0906 75.6989 81.3339 74.7323 80.4178 73.9041C79.2935 72.8877 77.9181 72.2644 76.7282 71.3539C76.2215 70.9662 75.9163 70.5673 75.8597 69.884C75.8173 69.3724 76.0686 68.8975 75.9134 68.3868C75.8345 68.1272 75.7824 67.8349 75.5387 67.7405C75.3085 67.6514 75.1329 67.8995 74.9751 68.0584C74.4505 68.5865 73.9943 69.2074 73.4032 69.6397C72.289 70.4543 71.2737 71.3842 70.2108 72.2578C69.9114 72.5038 69.924 72.6784 70.2532 72.8806C70.6119 73.1008 70.9873 73.0263 71.3543 72.9002C71.8565 72.7275 72.2972 72.8305 72.6342 73.2356C73.3829 74.1356 73.9727 75.1381 74.5191 76.1787C75.0894 77.2646 75.6198 78.3887 76.5368 79.3298ZM56.7649 50.5787C56.4269 50.3241 56.0889 50.0694 55.7293 49.7985C55.4273 50.1879 55.0424 50.4293 54.655 50.6565C54.9732 51.4621 55.5775 52.0394 55.8726 52.7765C56.1981 53.5894 56.6603 54.1551 57.5509 54.2771C57.6399 54.2892 57.7289 54.3196 57.8119 54.3557C58.2539 54.548 58.7601 54.6034 59.1102 54.9916C60.3216 56.3349 61.5599 57.6542 62.7416 59.0238C64.6775 61.2675 66.6206 63.5044 68.6022 65.7064C69.3196 66.5038 70.1248 67.2188 70.7715 68.084C70.9768 68.3587 71.1477 68.6724 71.4645 68.8455C71.631 68.6532 71.7548 68.4909 71.5518 68.2653C70.7915 67.4201 70.189 66.4348 69.4131 65.6137C67.2104 63.2829 65.1447 60.8263 62.9622 58.478C62.0645 57.5121 61.1824 56.5314 60.2892 55.5612C60.0716 55.3249 59.8456 55.0951 59.61 54.8774C59.2761 54.5689 59.4212 54.1155 59.2598 53.7549C59.0401 53.2643 58.8136 52.7735 58.7891 52.2204C58.7818 52.0553 58.6524 51.9932 58.5428 51.9107C57.9683 51.4785 57.3955 51.044 56.7649 50.5787Z" fill="black"/>
<path d="M46.2362 48.5671C46.3923 49.8798 45.8871 50.8899 44.9564 51.7819C45.8955 52.1198 46.7289 52.5589 47.5961 52.9149C47.8601 53.0233 48.1988 52.9387 48.5027 52.954C49.1163 52.985 49.6347 53.6366 49.512 54.2437C49.438 54.6095 49.2085 54.8168 48.8236 54.8796C47.6424 55.072 46.5626 54.7653 45.5197 54.2407C45.2919 54.1261 45.0814 53.9638 44.7754 53.9493C44.7722 54.8114 44.9546 55.6442 44.9822 56.4859C45.0356 58.115 45.3475 59.7519 44.9455 61.3726C44.6379 62.6122 44.087 63.7305 43.0216 64.4807C41.5711 65.5021 39.3438 64.9901 38.2466 63.4258C37.6944 62.6385 37.3433 61.7579 37.0645 60.8438C36.3308 61.8345 35.7633 62.9094 35.4247 64.1047C35.3471 64.3788 35.3331 64.648 35.3628 64.9285C35.4283 65.5489 35.1776 65.8688 34.5174 66.0285C34.0216 66.1484 33.6117 65.8962 33.4125 65.3895C33.0768 64.5355 33.4377 63.7541 33.6304 62.954C33.7656 62.3929 34.1134 61.9256 34.3335 61.3398C33.7 61.3939 33.0905 61.5685 32.4852 61.3659C32.2833 61.2984 32.0744 61.2502 31.8766 61.1725C31.3202 60.9539 31.1861 60.6176 31.2641 60.013C31.3435 59.3968 31.0977 58.8141 30.9308 58.2037C30.713 58.552 30.612 58.95 30.3475 59.2658C29.6253 60.1279 28.6778 60.5401 27.6113 60.6755C27.0307 60.7492 26.5339 60.361 26.5109 59.9362C26.4772 59.3111 26.8931 58.8096 27.5036 58.6987C28.1821 58.5755 28.6952 58.2797 28.9131 57.5238C29.0845 56.9292 29.6356 56.6416 30.1575 56.3717C30.3549 56.2695 30.7021 56.2787 30.614 55.9136C30.5269 55.5524 30.2081 55.7193 29.9956 55.7142C28.4549 55.6774 27.1907 55.1121 26.2804 53.8089C25.3497 52.4765 25.5246 50.6493 26.629 49.4718C27.7686 48.2567 29.2053 47.7122 30.7631 47.3778C32.0126 47.1095 33.2676 46.8805 34.5434 46.7895C35.0251 46.7551 35.5075 46.7307 36.0204 46.6999C35.3151 46.0485 34.6623 45.4056 34.2425 44.5417C33.835 43.7033 33.8265 42.8109 33.7793 41.9238C33.7547 41.4627 34.3207 41.0561 34.8444 41.0747C35.4665 41.0968 35.8026 41.4131 35.8085 41.9808C35.8217 43.2325 36.1893 44.3145 37.2336 45.0806C37.5458 45.3095 37.7388 45.3486 38.0435 44.9749C38.6422 44.2406 39.3074 43.5396 40.3156 43.3716C40.5762 43.3282 40.7102 43.1781 40.694 42.8909C40.6355 41.851 40.6856 40.7991 40.2217 39.8181C40.0067 39.3633 40.3425 38.7481 40.8355 38.6073C41.5808 38.3944 42.2249 38.7603 42.3804 39.5568C42.5187 40.2648 42.5863 40.9882 42.6598 41.7076C42.7146 42.2438 42.7359 42.7841 42.7583 43.3231C42.7681 43.5596 42.9101 43.6254 43.0976 43.6901C43.4715 43.8193 43.8375 43.9718 44.2072 44.1138C44.9875 44.4135 45.4537 45.0306 45.7777 45.767C45.8989 46.0425 46.0221 46.0842 46.2968 46.0047C47.5888 45.6309 48.8261 45.8053 50.0066 46.4435C50.5743 46.7505 50.8177 47.4287 50.5337 47.9226C50.2137 48.4792 49.5424 48.6761 48.9906 48.2988C48.25 47.7925 47.4686 47.8655 46.6623 47.9932C46.3507 48.0426 46.1992 48.2004 46.2362 48.5671ZM39.6422 54.3296C39.1583 55.5545 38.9209 56.8419 38.7442 58.139C38.5508 59.5594 39.1367 60.7998 39.7415 62.0107C39.9862 62.5006 40.4479 62.8298 41.0149 62.8748C41.8196 62.9388 42.362 62.5617 42.6909 61.7354C43.0539 60.8232 43.1809 59.8795 43.0822 58.8913C43.0179 58.2482 43.1091 57.5879 43.032 56.9476C42.8756 55.65 42.7303 54.3505 42.5277 53.0576C42.4324 52.4489 42.2456 52.0598 41.6108 51.9652C41.4211 51.9369 41.2339 51.8382 41.0638 51.7394C40.8029 51.5878 40.6608 51.6501 40.5367 51.9249C40.1941 52.6839 39.8815 53.4531 39.6422 54.3296ZM36.5712 48.655C35.2528 48.7396 33.9498 48.9349 32.6461 49.1519C31.4129 49.3571 30.1836 49.5539 29.0486 50.1077C28.3704 50.4386 27.8067 50.9184 27.7368 51.7459C27.6609 52.6437 28.5171 53.5399 29.4776 53.5961C29.9327 53.6227 30.3965 53.6516 30.8457 53.5941C32.1052 53.4329 33.3841 53.346 34.5181 52.6497C35.3976 52.1097 36.2896 51.5869 37.2026 51.1085C37.7268 50.8339 38.234 50.5422 38.7573 50.1964C38.5552 49.9343 38.3115 49.7199 38.1964 49.4493C37.8908 48.7313 37.3609 48.5392 36.5712 48.655ZM43.464 46.0527C42.9872 45.8078 42.422 45.7995 41.9708 45.4964C41.6491 45.2802 41.3121 45.2827 40.9621 45.3494C40.2696 45.4814 39.8103 45.917 39.44 46.5057C39.1549 46.9591 39.2111 47.3213 39.4768 47.7727C40.2439 49.0756 41.4036 49.7863 42.7908 50.1969C43.4991 50.4066 43.7959 50.2714 44.1054 49.6042C44.2754 49.2379 44.3136 48.8687 44.1861 48.4806C44.1041 48.2311 44.0779 47.9814 44.107 47.7087C44.1738 47.0824 44.0186 46.5168 43.464 46.0527ZM33.9581 57.1909C34.2142 57.4086 34.4873 57.6089 34.7232 57.8471C35.4993 58.6311 35.4943 58.6367 36.4472 58.2232C36.4693 58.2136 36.4799 58.1766 36.4961 58.1518C35.4328 56.9994 34.131 56.1942 32.7563 55.364C32.702 55.739 32.5809 56.0521 32.8084 56.2164C33.2013 56.5003 33.4752 56.9201 33.9581 57.1909ZM35.0964 54.3767C34.9899 54.4546 34.8427 54.4822 34.7742 54.6704C35.6697 55.1343 36.2764 55.9977 37.1716 56.5125C37.2693 56.2126 37.352 55.9495 37.441 55.6887C37.5023 55.5091 37.4926 55.3658 37.3108 55.2552C36.8173 54.9551 36.3179 54.6626 35.8439 54.3328C35.5863 54.1536 35.3778 54.1684 35.0964 54.3767ZM37.7564 52.9047C37.5962 53.0129 37.436 53.121 37.2379 53.2548C37.5387 53.4245 37.7621 53.6535 38.111 53.7242C38.2329 53.3391 38.3485 52.9737 38.479 52.5612C38.1714 52.5966 38.002 52.7585 37.7564 52.9047ZM33.6483 59.351C33.8271 59.3096 33.779 59.2065 33.6946 59.1231C33.5087 58.9395 33.3118 58.7674 33.0867 58.5606C33.0485 59.4289 33.067 59.4554 33.6483 59.351Z" fill="black"/>
<path d="M85.5618 86.0081C84.2126 84.5351 82.974 83.0105 81.7051 81.512C80.7657 80.4027 79.8636 79.2491 78.7998 78.2505C78.3838 77.8601 78.0169 77.4268 77.6868 76.9633C77.2994 76.419 77.3174 75.9648 77.7087 75.6447C78.069 75.35 78.8005 75.4696 79.1586 75.8716C80.2901 77.142 81.4407 78.3953 82.5546 79.6814C83.7284 81.0364 84.9393 82.3601 86.0203 83.7964C86.2039 84.0405 86.4345 84.2484 86.6456 84.4709C86.7512 84.5822 86.8654 84.6852 86.9695 84.7979C87.333 85.1916 87.4105 85.7147 87.1605 86.0617C86.9522 86.3508 86.2886 86.4467 85.8896 86.238C85.7823 86.1818 85.688 86.1001 85.5618 86.0081Z" fill="black"/>
</g>
<defs>
<clipPath id="clip0_22_399">
<rect width="110" height="110" fill="white"/>
</clipPath>
</defs>
</svg>
