<svg width="108" height="99" viewBox="0 0 108 99" fill="none" xmlns="http://www.w3.org/2000/svg">
<path d="M31.6804 77.1661C27.6699 77.159 23.7209 77.2276 19.7761 77.1256C15.1318 77.0056 10.4915 77.1886 5.84938 77.1566C5.44691 77.1538 5.02887 77.1862 4.66387 77.0137C4.06156 76.729 3.78331 76.2435 3.76371 75.539C3.54077 67.524 3.70431 59.5078 3.68501 51.4923C3.64773 36.0105 3.65895 20.5285 3.65002 5.04665C3.64914 3.50881 4.0489 3.11791 5.59958 3.09944C21.5349 2.90957 37.4709 2.99893 53.4066 2.97614C60.4778 2.96602 67.549 2.97768 74.6202 2.98406C75.0835 2.98448 75.5505 2.99432 76.0092 3.05215C76.9571 3.17164 77.3114 3.582 77.3138 4.56152C77.3216 7.64514 77.2777 10.7294 77.325 13.8123C77.4673 23.1042 77.4915 32.3966 77.3939 41.6882C77.3566 45.2388 77.3391 48.7893 77.3154 52.3399C77.3093 53.2517 76.8796 53.7641 76.0901 53.8063C75.3189 53.8475 74.5302 53.1854 74.4563 52.4169C74.43 52.1428 74.4453 51.8644 74.4459 51.588C74.4549 47.8877 74.4564 44.1873 74.4822 40.487C74.4864 39.8878 74.3645 39.3825 73.9928 38.8965C72.9667 37.5548 71.9793 36.1831 70.859 34.6638C70.859 35.2599 70.8597 35.6731 70.8589 36.0862C70.854 38.702 70.8484 41.3178 70.8441 43.9335C70.8435 44.2743 70.8206 44.6085 70.7418 44.9445C70.6021 45.5402 70.2448 45.8816 69.648 45.9175C69.0403 45.9542 68.5203 45.7537 68.2247 45.1712C68.0291 44.7858 67.9807 44.3685 67.9819 43.9346C67.9901 41.0211 67.9808 38.1076 67.9935 35.1941C67.9954 34.7629 67.9092 34.5254 67.4375 34.3767C65.4096 33.7374 63.4127 32.9954 61.3758 32.3889C60.6524 32.1736 59.8991 31.9778 59.0996 32.0131C57.7302 32.0737 56.3562 32.0343 54.9842 32.0264C53.7846 32.0195 53.4261 31.6549 53.4186 30.4827C53.4107 29.2468 53.5645 29.348 52.3051 29.3456C50.2154 29.3416 48.1257 29.3449 46.036 29.3452C44.7942 29.3454 44.4359 28.985 44.4323 27.705C44.4266 25.7059 44.4084 23.7065 44.4411 21.708C44.4509 21.1035 44.2848 20.9061 43.6646 20.908C36.6357 20.9286 29.6067 20.9282 22.5778 20.9109C21.9904 20.9095 21.8293 21.0928 21.8286 21.6745C21.8262 23.757 21.8931 25.8416 21.7223 27.9219C21.6423 28.8961 21.2002 29.3406 20.2289 29.3433C18.0759 29.3493 15.9229 29.3454 13.7699 29.3464C12.9465 29.3467 12.9479 29.3477 12.9471 30.1446C12.9418 35.695 12.9765 41.246 12.9161 46.7959C12.8746 50.6006 12.8762 54.4053 12.8296 58.2097C12.8215 58.8698 13.0508 59.0062 13.6574 59.0562C15.9144 59.242 18.1711 58.9487 20.4257 59.1077C21.3651 59.1739 21.8335 59.6458 21.8382 60.6146C21.8482 62.6987 21.858 64.783 21.8371 66.8669C21.8319 67.3844 21.9807 67.5707 22.5156 67.5699C31.0221 67.5563 39.5286 67.5561 48.0351 67.5702C48.5826 67.5711 48.7801 67.4101 48.7682 66.8453C48.7388 65.4424 48.7418 64.0379 48.7759 62.6351C48.7904 62.0409 48.5729 61.8667 47.9997 61.8773C46.3116 61.9085 44.6222 61.8671 42.9341 61.8986C42.2648 61.9111 41.8576 61.642 41.6182 61.0369C41.4164 60.5266 41.5514 59.5467 41.8796 59.2177C42.0996 58.9973 42.3744 59.0148 42.6499 59.0157C44.4441 59.0213 46.2385 59.0085 48.0323 59.039C48.572 59.0482 48.7868 58.8897 48.7812 58.3206C48.762 56.3645 48.7814 54.408 48.7891 52.4516C48.7904 52.133 48.7894 51.8127 48.8195 51.4962C48.912 50.523 49.3508 50.1471 50.312 50.1957C51.1465 50.238 51.6195 50.7732 51.6182 51.6732C51.615 53.8636 51.6119 56.054 51.6088 58.2444C51.6085 58.4754 51.6087 58.7064 51.6087 58.8871C51.8356 59.1227 52.0582 59.0348 52.2596 59.0352C53.7583 59.0384 55.2572 59.0161 56.7554 59.041C57.2948 59.0499 57.5082 58.8921 57.4869 58.3172C57.4469 57.2341 57.4553 56.1479 57.4819 55.064C57.5104 53.9089 58.1261 53.2604 59.1354 53.258C59.8003 53.2564 60.0958 53.5121 60.2131 54.1706C60.4537 55.5216 60.3342 56.885 60.3291 58.2417C60.3268 58.8585 60.5097 59.0661 61.1187 59.0329C62.024 58.9836 62.9333 59.0011 63.8409 59.0013C64.7532 59.0015 65.3077 59.4236 65.3993 60.1692C65.5082 61.0553 65.1418 61.5867 64.1857 61.7925C63.1879 62.0072 62.1666 61.8901 61.1582 61.8716C60.5285 61.8601 60.3063 62.0272 60.3309 62.6906C60.3815 64.0497 60.3823 65.4134 60.3322 66.7726C60.3074 67.4441 60.5476 67.6238 61.169 67.5823C61.9047 67.5331 62.6465 67.5407 63.3843 67.5649C64.6644 67.6068 65.3851 68.8796 64.7767 69.9663C64.5235 70.4186 64.131 70.5484 63.665 70.552C62.7785 70.559 61.8919 70.559 61.0054 70.559C44.6889 70.5599 28.3723 70.5477 12.0559 70.5805C10.4497 70.5837 10.25 69.8855 10.2162 68.6862C9.68883 49.9344 10.139 31.179 9.99364 12.4261C9.98838 11.7471 9.98252 11.0705 10.1021 10.393C10.1936 9.87501 10.4552 9.58159 10.9519 9.51682C11.4528 9.45153 11.9588 9.39021 12.4626 9.39014C30.7421 9.38778 49.0215 9.39025 67.3009 9.40547C68.0774 9.40612 68.8587 9.50084 69.6292 9.61168C70.584 9.74904 70.8541 10.0877 70.8564 11.0577C70.8626 13.6735 70.8586 16.2893 70.8587 18.9051C70.8588 22.2865 70.8663 25.6679 70.851 29.0492C70.8488 29.5219 70.9701 29.9064 71.2433 30.2857C72.2947 31.7455 73.3253 33.2204 74.4247 34.776C74.4425 34.4969 74.4653 34.2995 74.4662 34.1019C74.5048 25.6812 74.6176 17.2609 74.5594 8.83989C74.5539 8.05396 74.4915 7.26826 74.4928 6.48252C74.4936 6.01474 74.318 5.85244 73.853 5.85932C72.3758 5.88121 70.898 5.86664 69.4205 5.86669C48.7135 5.8674 28.0065 5.86822 7.29952 5.86893C6.39589 5.86896 6.38722 5.86868 6.39607 6.77031C6.57602 25.1007 6.53311 43.4316 6.4786 61.7622C6.46691 65.6941 6.41348 69.6271 6.38193 73.5595C6.37713 74.1573 6.56208 74.3126 7.13657 74.312C20.0758 74.2975 33.0155 74.3667 45.9541 74.2733C52.9401 74.2229 59.9255 74.2633 66.9111 74.2252C67.9608 74.2195 67.9781 74.2326 68.0341 73.1845C68.1602 70.8274 68.0949 68.4674 68.1108 66.1087C68.1167 65.2313 68.3909 64.8847 69.1918 64.7524C69.9727 64.6234 70.5163 64.9884 70.7625 65.7763C70.854 66.0691 70.8569 66.3615 70.857 66.6583C70.8586 69.5931 70.8589 72.5278 70.8591 75.4626C70.8592 76.5671 70.6691 76.7975 69.5994 77.0975C69.2644 77.1915 68.9323 77.1877 68.5963 77.1875C56.3121 77.1815 44.0279 77.1738 31.6804 77.1661ZM64.5413 30.4191C65.9813 30.82 67.2889 31.6396 68.8575 31.778C64.6548 26.6151 60.6266 21.3376 56.2687 16.2814C56.1144 16.5562 56.1718 16.7713 56.1716 16.9754C56.167 20.7787 56.1675 24.5821 56.1678 28.3854C56.1678 29.2582 56.1696 29.2418 57.0289 29.2635C58.4972 29.3005 59.9772 29.1036 61.4282 29.5078C62.4369 29.7887 63.3997 30.2267 64.5413 30.4191ZM67.9892 24.387C67.9883 20.6458 67.971 16.9044 68.0019 13.1634C68.0074 12.4962 67.7899 12.3551 67.1703 12.3526C64.0917 12.3405 61.0113 12.4711 57.9344 12.2602C57.5475 12.2336 57.1574 12.2565 56.5844 12.2565C60.5404 16.8392 64.2389 21.3758 67.826 26.0055C67.8806 25.9727 67.9352 25.9398 67.9897 25.9069C67.9897 25.4422 67.9897 24.9775 67.9892 24.387ZM16.5457 18.157C17.1572 18.1566 17.7698 18.1333 18.3798 18.1633C18.8544 18.1866 19.0065 17.9958 19.0016 17.5323C18.985 15.9817 18.9889 14.4307 19.0063 12.8801C19.0114 12.424 18.863 12.236 18.3861 12.2425C16.7839 12.2643 15.1811 12.26 13.5788 12.2461C13.1583 12.2425 12.9639 12.3723 12.9673 12.8267C12.9788 14.4199 12.9733 16.0133 12.9542 17.6064C12.9493 18.0204 13.1007 18.1726 13.5095 18.1647C14.479 18.1459 15.4492 18.1576 16.5457 18.157ZM47.3025 13.4302C47.3026 14.768 47.3184 16.1061 47.2943 17.4435C47.2857 17.9222 47.4614 18.0728 47.9215 18.0656C49.544 18.0405 51.1671 18.0325 52.7898 18.0454C53.2437 18.049 53.4333 17.9184 53.4172 17.4319C53.3659 15.8833 53.344 14.3337 53.3219 12.7844C53.3167 12.4202 53.194 12.244 52.8027 12.2471C51.1377 12.2599 49.4726 12.2566 47.8076 12.2512C47.4702 12.2501 47.2884 12.3749 47.3032 12.7346C47.311 12.9253 47.3033 13.1167 47.3025 13.4302ZM12.9417 65.6054C12.9479 66.0944 12.9609 66.5835 12.9581 67.0725C12.9562 67.4162 13.1011 67.5747 13.4515 67.5731C15.1189 67.5653 16.7864 67.5635 18.4538 67.5689C18.822 67.57 18.9858 67.4299 18.9835 67.0415C18.9749 65.553 18.978 64.0642 18.9945 62.5758C18.999 62.1703 18.8589 62.0066 18.4428 62.0102C16.7755 62.0244 15.1079 62.0234 13.4405 62.0081C13.0021 62.004 12.8317 62.1721 12.8513 62.6111C12.894 63.5663 12.9128 64.5227 12.9417 65.6054ZM27.5348 17.908C27.6775 16.1705 27.6219 14.4299 27.6132 12.69C27.6116 12.363 27.4416 12.2477 27.1328 12.2488C25.5296 12.2548 23.9264 12.2574 22.3233 12.2491C21.974 12.2473 21.83 12.385 21.832 12.7388C21.8411 14.354 21.8406 15.9692 21.8371 17.5844C21.8365 17.8948 21.953 18.0717 22.2775 18.0661C24.004 18.0363 25.7325 18.1387 27.5348 17.908ZM54.5405 67.5729C55.3426 67.5724 56.1446 67.5675 56.9466 67.5736C57.3108 67.5764 57.4798 67.4345 57.4766 67.0435C57.4643 65.5125 57.4647 63.9813 57.4775 62.4503C57.481 62.0423 57.3299 61.8789 56.92 61.8824C55.3371 61.8956 53.7539 61.8952 52.171 61.8856C51.7703 61.8831 51.6014 62.0345 51.6048 62.4491C51.6175 63.9801 51.6172 65.5113 51.6046 67.0423C51.6014 67.4333 51.7656 67.5711 52.1344 67.567C52.8941 67.5586 53.6541 67.5697 54.5405 67.5729ZM49.3484 26.3519C50.5286 26.3505 51.709 26.342 52.8891 26.3519C53.2553 26.355 53.4271 26.2341 53.4237 25.8385C53.4108 24.3734 53.4111 22.9081 53.4236 21.443C53.4269 21.0583 53.2818 20.9187 52.9018 20.9213C51.2158 20.933 49.5296 20.9301 47.8435 20.9214C47.4815 20.9196 47.2976 21.0384 47.3003 21.4336C47.3102 22.8988 47.3119 24.3641 47.2979 25.8291C47.2941 26.2254 47.4679 26.3546 47.8312 26.3468C48.2945 26.3368 48.7584 26.3492 49.3484 26.3519ZM31.5021 18.0533C32.8283 18.0537 34.1545 18.0449 35.4805 18.06C35.906 18.0648 36.0811 17.9202 36.0759 17.47C36.0584 15.9432 36.0593 14.4159 36.0821 12.8892C36.0897 12.3778 35.8803 12.235 35.4022 12.2426C33.9711 12.2655 32.5392 12.2667 31.1081 12.2451C30.617 12.2376 30.4458 12.4078 30.4462 12.9079C30.4475 14.4766 30.4149 16.0456 30.3746 17.6139C30.3669 17.9149 30.4478 18.0561 30.7488 18.0524C30.9592 18.0498 31.1697 18.0528 31.5021 18.0533ZM12.9508 23.7523C12.9483 24.4105 12.9648 25.0694 12.9368 25.7265C12.9166 26.201 13.1118 26.3621 13.5677 26.3581C15.1691 26.3439 16.7708 26.3426 18.3722 26.3617C18.8504 26.3674 18.9851 26.1708 18.9787 25.7143C18.9593 24.3133 18.9628 22.9117 18.9837 21.5107C18.9902 21.0729 18.8474 20.9108 18.4024 20.9163C16.78 20.9363 15.1571 20.9374 13.5347 20.9183C13.0812 20.9129 12.9464 21.0982 12.9565 21.5231C12.9733 22.2232 12.9546 22.9242 12.9508 23.7523ZM38.95 17.7994C39.0507 18.1049 39.3142 18.0447 39.5332 18.0457C40.9649 18.0526 42.3969 18.0358 43.8284 18.0581C44.3088 18.0656 44.4415 17.8726 44.4353 17.4161C44.4151 15.9102 44.412 14.4036 44.4358 12.8979C44.444 12.3821 44.2325 12.2397 43.7582 12.2461C42.3688 12.2648 40.9788 12.2677 39.5895 12.2437C39.0892 12.2351 38.93 12.4233 38.936 12.9152C38.9552 14.5059 38.9388 16.0971 38.95 17.7994Z" fill="#EDD118"/>
<path d="M96.0502 74.4425C99.0885 77.8672 102.133 81.2268 105.087 84.6651C106.663 86.4996 107.138 88.752 106.501 91.0586C105.76 93.746 103.977 95.6195 101.242 96.3187C98.5392 97.0098 96.0491 96.5258 94.0508 94.4132C90.3705 90.5224 86.8263 86.5073 83.3586 82.4234C83.016 82.0198 82.6642 81.6224 82.2943 81.2443C81.2141 80.1403 80.7319 78.685 80.059 77.3487C79.589 76.4152 78.9209 75.6132 78.4645 74.6782C78.3509 74.4454 78.1528 74.3556 77.8903 74.3709C77.5536 74.3905 77.2153 74.3889 76.8777 74.3883C75.2108 74.3854 73.6937 72.8645 73.3972 71.2119C73.0783 69.434 74.0814 68.5403 75.2985 67.684C75.4494 67.5778 75.6635 67.5566 75.7793 67.2899C75.0434 66.4636 74.3012 65.6026 73.5295 64.7695C71.9489 63.0632 70.3547 61.3698 68.7621 59.6748C65.9042 56.6332 63.2338 53.423 60.5561 50.225C59.6758 49.1736 58.6445 48.6328 57.44 48.2268C56.8807 48.0383 56.3319 47.8183 55.7788 47.6116C55.2374 47.4093 54.8655 46.9711 54.774 46.4583C54.6395 45.704 54.1903 45.1403 53.8227 44.541C53.2225 43.5623 52.6982 42.5435 52.1893 41.5218C51.7476 40.6352 51.6423 39.5085 52.889 38.7677C53.6323 38.326 54.313 37.7998 54.9414 37.1864C55.8347 36.3143 56.948 36.2717 57.8377 37.0982C59.0864 38.2583 60.5321 39.1334 61.897 40.1259C62.4787 40.5488 63.1733 40.9551 63.2846 41.7105C63.4133 42.5838 63.8043 43.3613 63.974 44.2015C64.0606 44.6302 64.2261 44.9223 64.5109 45.2224C66.6525 47.4796 68.8182 49.7155 70.9014 52.0266C73.3813 54.7778 75.8197 57.5676 78.1869 60.4199C78.9282 61.313 79.7533 62.1355 80.5429 62.9934C81.0442 62.6188 81.513 62.2664 81.984 61.9171C83.7045 60.6412 85.3146 60.9911 86.4755 62.8017C87.1891 63.9146 87.283 65.1175 87.1609 66.3503C87.1142 66.8228 87.2994 66.98 87.609 67.1862C89.0162 68.1237 90.4342 69.0468 91.8105 70.0289C93.056 70.9178 94.0674 72.0618 95.0229 73.2549C95.3405 73.6516 95.686 74.0258 96.0502 74.4425ZM85.2049 80.2035C85.6782 80.7727 86.1332 81.3585 86.6277 81.9082C89.8414 85.4803 93.0641 89.0442 96.2824 92.6121C96.4694 92.8194 96.6861 92.9751 96.9326 93.1074C98.7175 94.0649 100.39 93.7682 102.087 92.7945C103.757 91.8362 104.736 88.5034 103.056 86.7062C102.392 85.9957 101.746 85.2679 101.103 84.5371C98.7414 81.8497 96.3993 79.1444 94.0194 76.4733C92.8947 75.2111 91.847 73.882 90.5786 72.7432C89.0218 71.3457 87.1174 70.4886 85.4699 69.2367C84.7683 68.7036 84.3457 68.1551 84.2673 67.2156C84.2087 66.5121 84.5566 65.8592 84.3418 65.157C84.2325 64.7999 84.1603 64.398 83.8229 64.2683C83.5041 64.1458 83.261 64.487 83.0425 64.7054C82.3162 65.4315 81.6845 66.2853 80.866 66.8796C79.3233 67.9998 77.9175 69.2783 76.4457 70.4795C76.0312 70.8178 76.0487 71.0579 76.5046 71.3359C77.0011 71.6387 77.521 71.5363 78.0291 71.3628C78.7245 71.1255 79.3346 71.267 79.8012 71.824C80.8379 73.0615 81.6545 74.4399 82.4112 75.8709C83.2007 77.3639 83.9352 78.9096 85.2049 80.2035ZM57.8284 40.6708C57.3604 40.3207 56.8924 39.9705 56.3944 39.598C55.9763 40.1335 55.4433 40.4653 54.907 40.7778C55.3476 41.8854 56.1842 42.6793 56.5929 43.6928C57.0436 44.8106 57.6835 45.5884 58.9167 45.756C59.0399 45.7728 59.1631 45.8146 59.2781 45.8642C59.89 46.1286 60.591 46.2048 61.0757 46.7386C62.753 48.5856 64.4676 50.3997 66.1039 52.2829C68.7843 55.3679 71.4748 58.4437 74.2184 61.4715C75.2119 62.5678 76.3267 63.551 77.2221 64.7406C77.5064 65.1182 77.743 65.5496 78.1817 65.7877C78.4122 65.5233 78.5836 65.3001 78.3026 64.9899C77.2498 63.8278 76.4156 62.4729 75.3412 61.344C72.2914 58.1391 69.4312 54.7613 66.4092 51.5323C65.1663 50.2043 63.9449 48.8558 62.7082 47.5218C62.4069 47.1968 62.094 46.8809 61.7677 46.5815C61.3055 46.1573 61.5064 45.5339 61.2828 45.0381C60.9786 44.3635 60.665 43.6887 60.6311 42.9282C60.621 42.7011 60.4419 42.6157 60.2901 42.5023C59.4946 41.9081 58.7015 41.3106 57.8284 40.6708Z" fill="#EDD118"/>
<path d="M43.2502 37.9048C43.4663 39.7098 42.7667 41.0985 41.4782 42.3251C42.7785 42.7896 43.9323 43.3935 45.1331 43.883C45.4986 44.032 45.9676 43.9156 46.3884 43.9367C47.238 43.9794 47.9557 44.8752 47.7858 45.71C47.6834 46.2131 47.3656 46.4981 46.8327 46.5844C45.1972 46.849 43.702 46.4273 42.258 45.7059C41.9426 45.5484 41.6512 45.3252 41.2275 45.3053C41.2231 46.4906 41.4756 47.6358 41.5138 48.7931C41.5877 51.0331 42.0197 53.2838 41.4629 55.5123C41.0371 57.2167 40.2743 58.7544 38.7991 59.7859C36.7908 61.1903 33.7069 60.4863 32.1876 58.3355C31.423 57.2529 30.9369 56.0421 30.5509 54.7852C29.535 56.1474 28.7492 57.6254 28.2804 59.269C28.1729 59.6458 28.1536 60.0159 28.1946 60.4017C28.2854 61.2548 27.9382 61.6946 27.0241 61.9142C26.3376 62.0791 25.7701 61.7323 25.4943 61.0355C25.0295 59.8612 25.5291 58.7869 25.7959 57.6867C25.9831 56.9152 26.4647 56.2727 26.7695 55.4672C25.8923 55.5415 25.0484 55.7816 24.2102 55.5031C23.9307 55.4103 23.6414 55.344 23.3676 55.2371C22.5973 54.9365 22.4116 54.4741 22.5195 53.6429C22.6294 52.7955 22.2891 51.9943 22.0581 51.1551C21.7565 51.634 21.6166 52.1812 21.2503 52.6155C20.2505 53.8009 18.9386 54.3676 17.4619 54.5538C16.6579 54.6551 15.97 54.1213 15.9382 53.5373C15.8915 52.6778 16.4674 51.9881 17.3127 51.8357C18.2522 51.6663 18.9626 51.2595 19.2643 50.2202C19.5016 49.4026 20.2647 49.0072 20.9873 48.636C21.2607 48.4956 21.7414 48.5082 21.6195 48.0062C21.4988 47.5095 21.0574 47.739 20.7632 47.732C18.6299 47.6814 16.8795 46.9041 15.619 45.1122C14.3303 43.2802 14.5726 40.7678 16.1017 39.1487C17.6797 37.478 19.6689 36.7293 21.8258 36.2694C23.5559 35.9005 25.2936 35.5857 27.0601 35.4605C27.7271 35.4132 28.395 35.3797 29.1052 35.3374C28.1286 34.4416 27.2247 33.5576 26.6434 32.3699C26.0792 31.217 26.0675 29.99 26.0021 28.7701C25.9681 28.1363 26.7518 27.5771 27.4769 27.6027C28.3383 27.633 28.8036 28.068 28.8118 28.8486C28.83 30.5696 29.3391 32.0575 30.7851 33.1108C31.2172 33.4256 31.4846 33.4793 31.9065 32.9654C32.7353 31.9558 33.6564 30.9919 35.0524 30.761C35.4133 30.7013 35.5987 30.4949 35.5763 30.1C35.4953 28.6701 35.5647 27.2237 34.9224 25.8748C34.6246 25.2495 35.0896 24.4035 35.7722 24.21C36.8042 23.9173 37.696 24.4203 37.9114 25.5155C38.1028 26.489 38.1964 27.4838 38.2982 28.4729C38.3741 29.2102 38.4036 29.953 38.4345 30.6943C38.4481 31.0195 38.6447 31.1098 38.9043 31.1989C39.4221 31.3765 39.9289 31.5862 40.4407 31.7814C41.5211 32.1935 42.1667 33.042 42.6152 34.0546C42.7831 34.4334 42.9537 34.4907 43.334 34.3814C45.123 33.8674 46.8361 34.1072 48.4706 34.9848C49.2567 35.4069 49.5937 36.3395 49.2006 37.0185C48.7574 37.7839 47.8279 38.0546 47.0639 37.5358C46.0385 36.8396 44.9565 36.9401 43.8401 37.1156C43.4087 37.1835 43.1989 37.4005 43.2502 37.9048ZM34.12 45.8281C33.45 47.5124 33.1212 49.2825 32.8766 51.0661C32.6088 53.0191 33.42 54.7247 34.2575 56.3897C34.5963 57.0633 35.2355 57.5159 36.0206 57.5779C37.1349 57.6658 37.8859 57.1472 38.3412 56.0111C38.8439 54.7568 39.0197 53.4593 38.883 52.1005C38.7941 51.2162 38.9203 50.3084 38.8135 49.4279C38.597 47.6437 38.3957 45.8569 38.1153 44.0791C37.9833 43.2422 37.7247 42.7072 36.8458 42.5771C36.583 42.5383 36.3239 42.4025 36.0884 42.2666C35.7271 42.0582 35.5303 42.1439 35.3586 42.5217C34.8841 43.5654 34.4513 44.623 34.12 45.8281ZM29.8678 38.0255C28.0423 38.1419 26.2383 38.4104 24.4331 38.7088C22.7256 38.991 21.0234 39.2615 19.4519 40.0231C18.5129 40.4781 17.7323 41.1378 17.6355 42.2756C17.5305 43.51 18.716 44.7424 20.0459 44.8196C20.676 44.8562 21.3182 44.8959 21.9402 44.8168C23.6841 44.5952 25.455 44.4757 27.0251 43.5183C28.2428 42.7758 29.4779 42.0569 30.742 41.3992C31.4679 41.0216 32.1702 40.6206 32.8947 40.145C32.6149 39.7846 32.2775 39.4898 32.118 39.1177C31.6949 38.1305 30.9613 37.8664 29.8678 38.0255ZM39.4117 34.4474C38.7515 34.1107 37.9689 34.0993 37.3443 33.6825C36.8988 33.3852 36.4321 33.3886 35.9476 33.4804C34.9887 33.6619 34.3527 34.2609 33.8401 35.0704C33.4452 35.6938 33.523 36.1917 33.891 36.8124C34.9531 38.6039 36.5588 39.5812 38.4796 40.1458C39.4603 40.434 39.8713 40.2481 40.2998 39.3307C40.5351 38.827 40.588 38.3195 40.4115 37.7858C40.298 37.4427 40.2617 37.0994 40.302 36.7244C40.3945 35.8633 40.1796 35.0856 39.4117 34.4474ZM26.2497 49.7624C26.6043 50.0617 26.9824 50.3372 27.309 50.6648C28.3837 51.7427 28.3767 51.7504 29.6961 51.1819C29.7268 51.1687 29.7414 51.1177 29.7639 51.0837C28.2916 49.4991 26.489 48.392 24.5857 47.2504C24.5105 47.766 24.3428 48.1966 24.6578 48.4226C25.2018 48.8129 25.5811 49.39 26.2497 49.7624ZM27.8258 45.893C27.6784 46.0001 27.4745 46.038 27.3796 46.2967C28.6195 46.9346 29.4597 48.1219 30.6991 48.8296C30.8344 48.4172 30.949 48.0555 31.0722 47.6969C31.1571 47.45 31.1436 47.2529 30.8919 47.1009C30.2086 46.6882 29.5171 46.286 28.8608 45.8326C28.5041 45.5862 28.2155 45.6065 27.8258 45.893ZM31.5088 43.8689C31.287 44.0176 31.0652 44.1664 30.791 44.3503C31.2074 44.5837 31.5167 44.8985 31.9999 44.9957C32.1686 44.4662 32.3287 43.9638 32.5094 43.3966C32.0834 43.4453 31.8489 43.6679 31.5088 43.8689ZM25.8207 52.7326C26.0684 52.6756 26.0018 52.5339 25.8848 52.4192C25.6275 52.1667 25.3548 51.9301 25.0432 51.6458C24.9902 52.8397 25.0159 52.8762 25.8207 52.7326Z" fill="#EDD118"/>
<path d="M97.701 89.3859C95.833 87.3606 94.1179 85.2642 92.3609 83.2038C91.0603 81.6785 89.8112 80.0923 88.3382 78.7193C87.7623 78.1825 87.2542 77.5866 86.7973 76.9493C86.2607 76.201 86.2856 75.5765 86.8275 75.1363C87.3264 74.731 88.3392 74.8955 88.835 75.4483C90.4017 77.1951 91.9949 78.9184 93.5373 80.6867C95.1625 82.5499 96.8391 84.3699 98.3358 86.3449C98.5901 86.6804 98.9094 86.9663 99.2016 87.2722C99.3479 87.4253 99.506 87.567 99.6501 87.722C100.153 88.2632 100.261 88.9825 99.9146 89.4596C99.6261 89.8571 98.7073 89.9891 98.155 89.702C98.0064 89.6248 97.8758 89.5125 97.701 89.3859Z" fill="#EDD118"/>
</svg>
