<svg width="44" height="35" viewBox="0 0 44 35" fill="none" xmlns="http://www.w3.org/2000/svg">
<path d="M0.488 26.944V21.712L16.328 0.399998H24.488L8.984 21.712L5.192 20.608H31.64V26.944H0.488ZM18.584 34V26.944L18.824 20.608V14.32H26.168V34H18.584ZM39.3193 34.384C38.0393 34.384 36.9353 33.952 36.0073 33.088C35.1113 32.192 34.6633 31.056 34.6633 29.68C34.6633 28.304 35.1113 27.2 36.0073 26.368C36.9353 25.504 38.0393 25.072 39.3193 25.072C40.6313 25.072 41.7353 25.504 42.6313 26.368C43.5273 27.2 43.9753 28.304 43.9753 29.68C43.9753 31.056 43.5273 32.192 42.6313 33.088C41.7353 33.952 40.6313 34.384 39.3193 34.384Z" fill="#EDD118"/>
</svg>
