<svg width="106" height="78" viewBox="0 0 106 78" fill="none" xmlns="http://www.w3.org/2000/svg">
<path d="M66.3313 75.1017C57.3538 75.1012 48.4296 75.1807 39.5076 75.0721C33.5764 74.9999 29.1188 72.225 26.2057 67.0082C25.1458 65.1101 24.6887 63.0445 24.448 60.9037C24.2102 58.7884 23.8998 56.6814 23.6259 54.5701C23.3938 52.7811 23.1706 50.9909 22.9391 49.2018C22.7354 47.6274 22.5228 46.0541 22.3195 44.4797C22.1253 42.9767 21.9417 41.4724 21.7468 39.9695C21.5126 38.1631 21.2701 36.3577 21.0335 34.5515C20.8368 33.0495 20.6413 31.5472 20.449 30.0445C20.2979 28.864 20.1504 27.683 20.0061 26.5016C19.9674 26.1848 19.7223 26.0561 19.4979 25.9078C17.3112 24.4626 15.0676 23.1091 12.8311 21.7443C9.46856 19.6924 6.10274 17.6459 2.73606 15.6009C1.91873 15.1044 1.47368 14.3995 1.6053 13.4327C1.7426 12.4242 2.26534 11.6866 3.27632 11.3632C3.84757 11.1805 4.38429 11.2616 4.8871 11.5663C9.40014 14.3014 13.9138 17.0353 18.422 19.7784C22.9919 22.5589 27.5587 25.3445 32.1212 28.137C36.0059 30.5146 39.8872 32.8978 43.7569 35.2997C44.2179 35.5858 44.4178 35.5171 44.6507 35.045C45.2182 33.8946 45.835 32.7687 46.4498 31.5991C45.7234 31.0197 44.9409 30.5718 44.1735 30.1073C39.737 27.4215 35.2865 24.7589 30.8537 22.067C26.6833 19.5345 22.5324 16.9697 18.3665 14.4297C14.2009 11.8898 10.028 9.3619 5.8567 6.83131C5.0325 6.33128 4.49738 5.6674 4.491 4.64473C4.48568 3.78991 4.81912 3.14761 5.53949 2.69088C6.27486 2.22463 7.01221 2.2422 7.73726 2.67818C10.1377 4.12161 12.532 5.57541 14.9265 7.02873C20.3335 10.3104 25.7376 13.597 31.1461 16.8763C35.5967 19.5748 40.0507 22.2676 44.5056 24.9589C46.5008 26.1644 48.5018 27.3605 50.5005 28.5602C51.6685 29.2613 52.0013 30.2783 51.3904 31.5154C50.4363 33.4474 49.442 35.3593 48.4594 37.277C48.0218 38.131 47.5728 38.9792 47.1264 39.8286C46.478 41.0624 45.2033 41.4254 44.0107 40.7015C41.0755 38.92 38.1449 37.1308 35.2125 35.3446C35.1353 35.2976 35.0627 35.2415 34.9819 35.2024C34.794 35.1115 34.6086 34.9091 34.3898 35.0682C34.2048 35.2026 34.2687 35.4439 34.2956 35.6299C34.5123 37.129 34.7451 38.6257 34.9714 40.1234C35.2136 41.7262 35.4536 43.3294 35.6957 44.9323C35.7684 45.4137 35.8058 45.9049 35.9293 46.3729C36.0798 46.9429 36.6044 46.8317 37.0054 46.8206C37.7312 46.8004 38.3451 46.4639 38.9249 46.0327C39.7624 45.4098 40.6911 44.9966 41.7474 44.8857C43.0471 44.7493 44.2035 45.1257 45.2864 45.8038C45.5619 45.9764 45.8403 46.1487 46.0943 46.3505C46.9865 47.0591 49.0259 47.0879 49.9956 46.188C51.8363 44.4798 54.6723 44.4519 56.7604 46.0476C58.2866 47.214 59.6529 47.1836 61.2392 46.0927C62.8697 44.9713 64.6167 44.4854 66.5574 45.2194C67.1744 45.4527 67.6913 45.8522 68.2288 46.2167C69.5771 47.1312 71.0051 47.1116 72.2852 46.1147C73.7868 44.9453 75.4478 44.592 77.2748 45.0981C77.7733 45.2362 77.9271 45.0143 77.996 44.5929C78.8684 39.252 79.7457 33.9119 80.6147 28.5705C81.2693 24.5466 81.9131 20.521 82.5634 16.4964C82.7389 15.4104 82.9224 14.3257 83.0984 13.2398C83.2784 12.1287 84.229 11.2792 85.3571 11.2777C90.758 11.2702 96.1589 11.2705 101.56 11.2775C102.766 11.279 103.609 12.1534 103.655 13.3722C103.765 16.2713 103.758 19.1701 103.66 22.0692C103.605 23.6708 102.797 24.4886 101.183 24.5044C99.1424 24.5245 97.1011 24.5108 95.0599 24.5131C94.3474 24.5139 94.3189 24.5624 94.2222 25.2613C93.8809 27.7275 93.5203 30.1911 93.1752 32.6569C92.8674 34.8551 92.5767 37.0557 92.2667 39.2536C91.9946 41.182 91.6965 43.1067 91.4275 45.0356C91.1532 47.0015 90.9037 48.9709 90.6371 50.9379C90.3852 52.7971 90.1323 54.6563 89.8664 56.5136C89.5953 58.4074 89.2838 60.2958 89.0329 62.1922C88.5625 65.7466 86.8761 68.6526 84.3076 71.0587C82.0316 73.1907 79.3104 74.4662 76.2343 74.9565C75.685 75.044 75.1236 75.0907 74.5675 75.0936C71.8402 75.1079 69.1128 75.1011 66.3313 75.1017ZM26.0928 39.5931C26.3306 41.3797 26.5741 43.1655 26.8045 44.9531C27.0396 46.7777 27.2557 48.6048 27.4911 50.4294C27.8003 52.8261 28.1187 55.2216 28.4359 57.6173C28.6255 59.0488 28.7673 60.4892 29.0224 61.909C29.8973 66.7787 34.3822 70.7119 39.7143 70.6917C51.1293 70.6483 62.5445 70.678 73.9597 70.6767C74.482 70.6766 74.9994 70.6509 75.5217 70.5799C79.7606 70.0041 83.46 66.6815 84.4971 62.4929C84.7452 61.4911 84.839 60.4661 84.9769 59.4469C85.2407 57.4988 85.5267 55.5538 85.7989 53.6068C86.1036 51.4274 86.3996 49.2468 86.7059 47.0677C87.0149 44.8704 87.3337 42.6746 87.6449 40.4776C87.9131 38.5842 88.1731 36.6896 88.4432 34.7964C88.7514 32.636 89.0701 30.4771 89.3779 28.3167C89.6782 26.2095 89.9551 24.0988 90.2732 21.9943C90.4224 21.0066 91.148 20.3058 92.0597 20.2077C92.5433 20.1556 93.0323 20.138 93.5189 20.1355C95.2709 20.1269 97.0231 20.1195 98.7749 20.138C99.2904 20.1434 99.4823 19.9535 99.468 19.4348C99.4406 18.4385 99.4623 17.4409 99.459 16.4438C99.4566 15.7309 99.4347 15.7081 98.7286 15.7078C95.1884 15.7062 91.6483 15.7068 88.1081 15.7071C87.9818 15.7071 87.8548 15.705 87.7291 15.7155C87.4146 15.7418 87.2212 15.8443 87.1612 16.2253C86.7512 18.8276 86.3085 21.4248 85.8811 24.0244C85.3514 27.2463 84.8284 30.4694 84.2986 33.6913C83.8155 36.6286 83.3241 39.5644 82.8422 42.5019C82.3923 45.2439 81.9554 47.9882 81.503 50.7298C81.1271 53.0078 80.7341 55.2828 80.3542 57.5601C79.986 59.7673 79.6309 61.9768 79.258 64.1832C79.0817 65.2268 78.4301 65.9131 77.4873 66.0574C76.9713 66.1364 76.4523 66.1839 75.9257 66.1836C63.3365 66.1769 50.7473 66.1784 38.1582 66.1765C37.5092 66.1764 36.8631 66.1716 36.2135 66.089C35.0371 65.9394 34.3734 65.4029 34.1209 64.238C34.0029 63.6934 33.9563 63.1333 33.8727 62.581C33.4111 59.5316 32.9383 56.4838 32.4881 53.4327C31.9643 49.8827 31.4655 46.329 30.9453 42.7784C30.4487 39.3886 29.9351 36.0013 29.4378 32.6115C29.3657 32.1204 29.1889 31.7559 28.7266 31.4888C27.6631 30.8745 26.6352 30.1985 25.5882 29.5551C25.4116 29.4467 25.2358 29.229 25.0073 29.3538C24.7497 29.4943 24.8411 29.784 24.8664 29.9996C25.0455 31.5216 25.246 33.041 25.4393 34.5613C25.6485 36.2069 25.8572 37.8526 26.0928 39.5931ZM58.8045 50.8421C57.2125 50.847 55.8112 50.3037 54.5201 49.3932C53.6279 48.7641 53.2665 48.7813 52.43 49.4258C50.5766 50.8538 48.487 51.0887 46.2687 50.677C45.1802 50.4749 44.2504 49.9279 43.3535 49.3015C42.4568 48.6753 41.7629 48.7311 40.9574 49.4508C40.1497 50.1725 39.1955 50.5689 38.1389 50.7304C37.6341 50.8076 37.1246 50.8542 36.5815 50.9189C36.8342 52.5769 37.0805 54.1624 37.3163 55.7495C37.5841 57.5515 37.843 59.3548 38.1044 61.1577C38.1633 61.5639 38.3204 61.7675 38.802 61.7668C50.724 61.751 62.646 61.7512 74.5679 61.7614C75.0545 61.7618 75.2246 61.572 75.2959 61.1154C75.6244 59.0122 75.9815 56.9136 76.326 54.8129C76.5975 53.1571 76.8552 51.4989 77.1436 49.8462C77.205 49.4941 77.0814 49.3163 76.8083 49.1398C76.1349 48.7047 75.5298 48.8881 74.9593 49.3226C73.885 50.1408 72.6933 50.6638 71.3463 50.7889C69.4462 50.9654 67.6326 50.7751 66.0953 49.4736C65.1927 48.7093 64.6192 48.6669 63.6717 49.3559C62.2463 50.3923 60.6689 50.9006 58.8045 50.8421Z" fill="#EDD118"/>
<path d="M61.9888 9.84538C63.1848 9.6177 64.3199 9.36522 65.3297 8.70628C67.1779 7.50025 68.1631 5.77365 68.461 3.61375C68.5299 3.11399 68.578 2.60911 68.6851 2.11741C68.8187 1.50349 69.2356 1.24273 69.9396 1.26719C70.5212 1.2874 70.9253 1.6304 71.0231 2.20831C71.1313 2.84799 71.2053 3.49394 71.328 4.13061C71.9132 7.1686 73.7716 8.95415 76.7397 9.63664C77.055 9.70913 77.3747 9.7659 77.6851 9.85557C78.2584 10.0212 78.5081 10.3717 78.507 10.9686C78.5059 11.5386 78.2304 11.9444 77.6868 12.1008C77.2731 12.2199 76.8401 12.2707 76.425 12.3854C73.5805 13.1715 71.9318 15.0649 71.3587 17.939C71.239 18.5396 71.176 19.1527 71.0359 19.748C70.8803 20.4093 70.4051 20.7437 69.7811 20.7051C69.205 20.6695 68.7858 20.2756 68.6762 19.634C68.488 18.5322 68.3981 17.4088 67.949 16.3661C66.9238 13.9864 65.0776 12.6711 62.5777 12.2234C61.6565 12.0585 61.2526 11.7577 61.2034 11.1118C61.1584 10.5211 61.391 10.0932 61.9888 9.84538ZM67.0332 10.3359C66.7884 10.5087 66.5435 10.6815 66.2332 10.9005C67.8372 11.9421 69.0101 13.2799 69.8869 15.012C70.7467 13.3369 71.8573 12.0322 73.4057 10.9737C71.8735 10.015 70.7298 8.81418 69.8627 7.24459C69.0727 8.46526 68.2168 9.50382 67.0332 10.3359Z" fill="#EDD118"/>
<path d="M67.3132 28.4327C66.6567 28.5888 66.0454 28.7475 65.4792 29.0381C63.6345 29.9853 62.7797 31.5755 62.5782 33.5776C62.5224 34.1318 62.3802 34.6132 61.8168 34.8474C60.9886 35.1917 60.2204 34.6589 60.117 33.68C59.8985 31.6125 58.9844 30.0023 57.0758 29.0537C56.5067 28.7708 55.8987 28.6001 55.2862 28.4432C54.6401 28.2777 54.3677 27.9312 54.372 27.2905C54.3763 26.6565 54.6564 26.3057 55.3312 26.1814C57.6786 25.7491 59.2504 24.435 59.9281 22.1164C60.074 21.6172 60.1299 21.0912 60.2213 20.5765C60.3222 20.0083 60.6799 19.6743 61.2395 19.6363C61.8791 19.5929 62.3157 19.863 62.466 20.4559C62.5987 20.9791 62.6596 21.5204 62.782 22.0467C63.304 24.2901 64.9031 25.7946 67.1521 26.1746C67.8605 26.2943 68.1728 26.5906 68.2164 27.1841C68.2669 27.8709 68.049 28.1859 67.3132 28.4327ZM62.1198 28.6807C62.5988 28.1431 63.1573 27.6954 63.8286 27.2387C62.7969 26.6831 62.035 25.9346 61.3515 24.9513C60.6719 25.9533 59.8886 26.7036 58.8604 27.3074C59.9008 27.9483 60.6126 28.8171 61.3112 29.7444C61.5925 29.3686 61.8287 29.053 62.1198 28.6807Z" fill="#EDD118"/>
</svg>
