<svg width="110" height="110" viewBox="0 0 110 110" fill="none" xmlns="http://www.w3.org/2000/svg">
<g clip-path="url(#clip0_22_435)">
<circle cx="55" cy="55" r="55" fill="white"/>
<path d="M65.0734 87.9787C58.1307 87.9784 51.2292 88.0396 44.3294 87.956C39.7425 87.9004 36.2952 85.7654 34.0424 81.7516C33.2227 80.2911 32.8692 78.7019 32.683 77.0547C32.4992 75.4272 32.2591 73.806 32.0473 72.1816C31.8677 70.8051 31.6951 69.4277 31.5161 68.0511C31.3586 66.8398 31.1942 65.6293 31.0369 64.4179C30.8868 63.2615 30.7448 62.1041 30.5941 60.9478C30.413 59.5579 30.2254 58.1688 30.0425 56.7791C29.8903 55.6234 29.7391 54.4675 29.5904 53.3114C29.4736 52.4031 29.3595 51.4944 29.2479 50.5854C29.218 50.3417 29.0284 50.2426 28.8549 50.1285C27.1638 49.0166 25.4287 47.9752 23.6991 46.9251C21.0987 45.3463 18.4958 43.7718 15.8921 42.1983C15.2601 41.8163 14.9159 41.274 15.0177 40.5301C15.1238 39.7542 15.5281 39.1866 16.3099 38.9378C16.7517 38.7972 17.1668 38.8596 17.5556 39.0941C21.0458 41.1984 24.5365 43.302 28.0229 45.4125C31.5569 47.5519 35.0887 49.6951 38.6171 51.8437C41.6213 53.673 44.6229 55.5067 47.6156 57.3547C47.9721 57.5749 48.1267 57.522 48.3067 57.1588C48.7456 56.2737 49.2227 55.4074 49.6981 54.5075C49.1364 54.0617 48.5312 53.7171 47.9378 53.3596C44.5068 51.2931 41.065 49.2446 37.6369 47.1734C34.4117 45.2249 31.2016 43.2515 27.9799 41.2972C24.7584 39.3429 21.5313 37.398 18.3055 35.4509C17.6681 35.0662 17.2543 34.5554 17.2493 33.7685C17.2452 33.1108 17.5031 32.6166 18.0602 32.2652C18.6289 31.9065 19.1991 31.92 19.7598 32.2554C21.6162 33.366 23.4678 34.4846 25.3196 35.6028C29.5011 38.1278 33.6804 40.6565 37.863 43.1796C41.3049 45.2558 44.7494 47.3277 48.1945 49.3985C49.7376 50.3259 51.285 51.2462 52.8307 52.1693C53.734 52.7087 53.9914 53.4913 53.5189 54.4431C52.7811 55.9295 52.0121 57.4006 51.2522 58.8761C50.9138 59.5332 50.5666 60.1858 50.2214 60.8393C49.7199 61.7886 48.7341 62.0679 47.8118 61.5109C45.5419 60.1402 43.2755 58.7636 41.0078 57.3893C40.9481 57.3531 40.8919 57.31 40.8294 57.2799C40.6841 57.21 40.5407 57.0542 40.3715 57.1766C40.2285 57.2801 40.2778 57.4657 40.2986 57.6088C40.4662 58.7622 40.6463 59.9138 40.8213 61.0661C41.0086 62.2994 41.1942 63.5329 41.3814 64.7662C41.4376 65.1365 41.4665 65.5145 41.5621 65.8746C41.6785 66.3131 42.0842 66.2276 42.3943 66.219C42.9556 66.2035 43.4304 65.9446 43.8787 65.6128C44.5264 65.1335 45.2446 64.8156 46.0615 64.7303C47.0666 64.6253 47.9609 64.9149 48.7984 65.4367C49.0114 65.5695 49.2268 65.7021 49.4232 65.8573C50.1132 66.4025 51.6903 66.4247 52.4402 65.7323C53.8637 64.418 56.057 64.3965 57.6718 65.6243C58.8521 66.5217 59.9087 66.4984 61.1355 65.659C62.3964 64.7962 63.7474 64.4223 65.2483 64.9871C65.7254 65.1666 66.1252 65.474 66.5409 65.7544C67.5835 66.458 68.688 66.4429 69.6779 65.6759C70.8391 64.7761 72.1237 64.5043 73.5366 64.8937C73.9221 65 74.0411 64.8292 74.0943 64.505C74.769 60.3957 75.4474 56.287 76.1195 52.1772C76.6258 49.0812 77.1236 45.9839 77.6265 42.8873C77.7622 42.0517 77.9042 41.2172 78.0402 40.3816C78.1795 39.5268 78.9146 38.8732 79.787 38.872C83.9638 38.8662 88.1406 38.8664 92.3174 38.8718C93.2499 38.873 93.9023 39.5458 93.9379 40.4835C94.0228 42.7141 94.0175 44.9445 93.9413 47.1751C93.8992 48.4074 93.2745 49.0366 92.0262 49.0488C90.4479 49.0642 88.8692 49.0536 87.2907 49.0554C86.7397 49.0561 86.7176 49.0933 86.6428 49.6311C86.3789 51.5287 86.1001 53.4242 85.8331 55.3213C85.5951 57.0126 85.3703 58.7058 85.1305 60.3969C84.9201 61.8806 84.6896 63.3615 84.4815 64.8456C84.2694 66.3582 84.0765 67.8735 83.8703 69.3869C83.6755 70.8174 83.4799 72.2479 83.2743 73.6769C83.0646 75.1341 82.8237 76.5869 82.6297 78.0461C82.2659 80.7809 80.9617 83.0168 78.9754 84.868C77.2152 86.5084 75.1109 87.4898 72.7319 87.8671C72.3071 87.9344 71.873 87.9703 71.4429 87.9725C69.3337 87.9835 67.2245 87.9783 65.0734 87.9787ZM33.9551 60.6581C34.1389 62.0327 34.3273 63.4068 34.5054 64.7821C34.6873 66.186 34.8544 67.5918 35.0364 68.9957C35.2755 70.8397 35.5218 72.6829 35.7671 74.5261C35.9137 75.6275 36.0234 76.7358 36.2206 77.8282C36.8973 81.575 40.3656 84.6012 44.4892 84.5857C53.317 84.5523 62.145 84.5751 70.9728 84.5741C71.3768 84.5741 71.7769 84.5543 72.1808 84.4997C75.459 84.0566 78.3199 81.5002 79.122 78.2775C79.3138 77.5066 79.3863 76.718 79.493 75.9338C79.697 74.4349 79.9182 72.9384 80.1287 71.4404C80.3643 69.7636 80.5932 68.0858 80.8302 66.4091C81.0691 64.7186 81.3157 63.029 81.5563 61.3387C81.7637 59.8819 81.9648 58.4241 82.1737 56.9675C82.412 55.3053 82.6584 53.6442 82.8965 51.982C83.1287 50.3606 83.3429 48.7366 83.5889 47.1174C83.7043 46.3575 84.2654 45.8183 84.9705 45.7428C85.3444 45.7028 85.7226 45.6892 86.099 45.6873C87.4539 45.6806 88.8089 45.675 90.1636 45.6892C90.5624 45.6933 90.7107 45.5472 90.6997 45.1482C90.6785 44.3816 90.6953 43.614 90.6927 42.8468C90.6909 42.2984 90.6739 42.2808 90.1278 42.2805C87.3901 42.2793 84.6523 42.2798 81.9145 42.28C81.8168 42.28 81.7186 42.2784 81.6214 42.2865C81.3782 42.3067 81.2286 42.3856 81.1822 42.6787C80.8652 44.681 80.5228 46.6792 80.1923 48.6794C79.7826 51.1584 79.3782 53.6383 78.9684 56.1173C78.5949 58.3772 78.2148 60.6361 77.8421 62.8961C77.4942 65.0059 77.1563 67.1174 76.8065 69.2268C76.5158 70.9795 76.2118 72.7299 75.918 74.4821C75.6333 76.1804 75.3587 77.8803 75.0703 79.578C74.9339 80.381 74.43 80.909 73.7009 81.02C73.3019 81.0808 72.9005 81.1173 72.4933 81.1171C62.7574 81.1119 53.0216 81.1131 43.2858 81.1117C42.7839 81.1116 42.2842 81.1079 41.7819 81.0443C40.8721 80.9292 40.3589 80.5165 40.1636 79.6202C40.0723 79.2011 40.0363 78.7702 39.9716 78.3452C39.6146 75.999 39.249 73.654 38.9008 71.3065C38.4957 68.5751 38.11 65.8408 37.7077 63.1089C37.3236 60.5008 36.9265 57.8945 36.5419 55.2865C36.4862 54.9085 36.3494 54.6281 35.9919 54.4226C35.1695 53.9499 34.3745 53.4298 33.5648 52.9348C33.4283 52.8514 33.2923 52.6839 33.1156 52.7799C32.9164 52.888 32.987 53.1109 33.0066 53.2768C33.1451 54.4478 33.3002 55.6169 33.4497 56.7866C33.6114 58.0528 33.7729 59.319 33.9551 60.6581ZM59.2526 69.3132C58.0214 69.3169 56.9378 68.899 55.9392 68.1984C55.2493 67.7144 54.9698 67.7276 54.3229 68.2235C52.8896 69.3222 51.2736 69.503 49.5581 69.1861C48.7163 69.0307 47.9972 68.6098 47.3036 68.1279C46.6101 67.646 46.0735 67.689 45.4505 68.2427C44.8259 68.798 44.088 69.103 43.2708 69.2273C42.8805 69.2867 42.4865 69.3225 42.0665 69.3723C42.2619 70.648 42.4524 71.8679 42.6347 73.089C42.8418 74.4755 43.042 75.8629 43.2442 77.2501C43.2897 77.5627 43.4113 77.7193 43.7837 77.7188C53.0035 77.7066 62.2234 77.7068 71.4432 77.7146C71.8195 77.7149 71.9511 77.5689 72.0062 77.2176C72.2603 75.5994 72.5364 73.9847 72.8029 72.3684C73.0128 71.0944 73.2121 69.8186 73.4351 68.5469C73.4826 68.2761 73.387 68.1393 73.1758 68.0035C72.655 67.6687 72.1871 67.8098 71.7459 68.1441C70.9151 68.7736 69.9935 69.176 68.9518 69.2723C67.4823 69.4081 66.0798 69.2617 64.891 68.2602C64.1929 67.6722 63.7494 67.6396 63.0166 68.1697C61.9143 68.9672 60.6944 69.3583 59.2526 69.3132Z" fill="black"/>
<path d="M61.6396 37.6193C62.607 37.4437 63.5251 37.2489 64.3419 36.7405C65.8367 35.8101 66.6336 34.478 66.8745 32.8116C66.9303 32.426 66.9691 32.0365 67.0557 31.6572C67.1639 31.1835 67.501 30.9823 68.0705 31.0012C68.5409 31.0168 68.8677 31.2814 68.9468 31.7273C69.0343 32.2208 69.0942 32.7192 69.1934 33.2104C69.6667 35.5542 71.1698 36.9317 73.5706 37.4583C73.8256 37.5142 74.0842 37.558 74.3352 37.6272C74.7989 37.755 75.0009 38.0254 75 38.4859C74.9992 38.9256 74.7763 39.2388 74.3366 39.3594C74.002 39.4513 73.6518 39.4905 73.316 39.579C71.0153 40.1855 69.6818 41.6462 69.2183 43.8636C69.1214 44.327 69.0705 44.8 68.9572 45.2592C68.8313 45.7694 68.447 46.0274 67.9423 45.9977C67.4763 45.9702 67.1373 45.6663 67.0486 45.1713C66.8964 44.3212 66.8237 43.4545 66.4604 42.6501C65.6312 40.8142 64.1379 39.7994 62.1159 39.454C61.3708 39.3268 61.0442 39.0947 61.0044 38.5964C60.968 38.1406 61.1561 37.8105 61.6396 37.6193ZM65.7197 37.9978C65.5217 38.1311 65.3236 38.2644 65.0726 38.4334C66.37 39.2369 67.3186 40.269 68.0278 41.6054C68.7233 40.3131 69.6216 39.3065 70.874 38.4898C69.6346 37.7502 68.7096 36.8238 68.0082 35.6128C67.3693 36.5546 66.677 37.3558 65.7197 37.9978Z" fill="black"/>
<path d="M66.2772 52.319C65.7558 52.4311 65.2703 52.545 64.8207 52.7537C63.3558 53.4337 62.6769 54.5755 62.5169 56.013C62.4726 56.4109 62.3597 56.7565 61.9123 56.9247C61.2545 57.1719 60.6445 56.7894 60.5624 56.0865C60.3888 54.602 59.663 53.446 58.1473 52.7648C57.6953 52.5617 57.2125 52.4392 56.7261 52.3265C56.213 52.2077 55.9966 51.9589 56 51.4989C56.0034 51.0436 56.2259 50.7918 56.7618 50.7026C58.626 50.3922 59.8742 49.4487 60.4124 47.7839C60.5282 47.4255 60.5726 47.0478 60.6452 46.6783C60.7253 46.2703 61.0094 46.0305 61.4538 46.0032C61.9617 45.9721 62.3084 46.166 62.4278 46.5916C62.5332 46.9673 62.5815 47.356 62.6788 47.7338C63.0933 49.3446 64.3633 50.4249 66.1493 50.6977C66.7118 50.7836 66.9599 50.9963 66.9945 51.4225C67.0346 51.9156 66.8615 52.1418 66.2772 52.319ZM62.1529 52.497C62.5333 52.1111 62.9768 51.7896 63.5099 51.4617C62.6906 51.0628 62.0855 50.5254 61.5428 49.8194C61.0031 50.5388 60.381 51.0775 59.5645 51.511C60.3907 51.9712 60.956 52.595 61.5108 53.2608C61.7341 52.9909 61.9217 52.7643 62.1529 52.497Z" fill="black"/>
</g>
<defs>
<clipPath id="clip0_22_435">
<rect width="110" height="110" fill="white"/>
</clipPath>
</defs>
</svg>
