<svg width="99" height="103" viewBox="0 0 99 103" fill="none" xmlns="http://www.w3.org/2000/svg">
<path d="M82.5991 70.8689C80.3015 70.8704 78.0632 70.8887 75.8253 70.868C74.2792 70.8537 72.8331 70.5391 71.7748 69.268C71.1287 68.4919 70.8237 67.585 70.7995 66.5949C70.7699 65.3906 70.7742 64.1848 70.7965 62.9803C70.8243 61.4833 71.613 59.7283 73.8664 59.5779C74.0934 59.5628 74.263 59.5006 74.264 59.2458C74.2711 57.4317 74.3095 55.62 73.5436 53.901C72.7316 52.0785 71.2944 51.0589 69.4284 50.5295C68.4717 50.2581 67.4861 50.193 66.5088 50.0636C66.0616 50.0044 65.753 50.1603 65.4377 50.5129C62.3717 53.9416 58.5056 55.8637 53.9632 56.4736C48.4565 57.2129 43.4376 56.0258 38.9702 52.6763C38.1117 52.0327 37.3283 51.3049 36.6466 50.4818C36.3725 50.1508 36.0913 50.0428 35.6828 50.0548C30.1782 50.2163 24.6722 50.0926 19.1669 50.1206C18.1774 50.1256 17.187 50.0986 16.1983 50.0556C15.7354 50.0355 15.5661 50.1961 15.5741 50.664C15.5906 51.629 15.6574 52.6032 15.439 53.5545C14.9583 55.6485 13.2196 57.0122 10.9309 57.0453C8.65365 57.0782 6.37546 57.0659 4.09783 57.0501C2.88279 57.0417 2.10179 56.2346 2.10138 55.0234C2.09812 45.5419 2.09746 36.0604 2.09973 26.579C2.10001 25.4001 2.82593 24.633 4.01655 24.6206C6.29403 24.597 8.57269 24.5795 10.8495 24.626C13.255 24.6752 15.0008 25.9974 15.4348 28.0771C15.6404 29.0625 15.6181 30.0799 15.5758 31.0856C15.5555 31.5687 15.7179 31.7341 16.2167 31.7334C22.6934 31.7234 29.1701 31.7304 35.6468 31.7409C36.0179 31.7415 36.2709 31.6306 36.485 31.31C37.3455 30.021 38.4363 28.9763 39.8644 28.3264C40.2018 28.1728 40.2502 27.9282 40.2484 27.6098C40.2414 26.3259 40.3085 25.0383 40.2327 23.7589C40.1358 22.1236 41.1403 20.7352 43.2232 20.7198C44.055 20.7136 44.8873 20.6989 45.7186 20.7184C46.1351 20.7281 46.3303 20.6196 46.3222 20.1573C46.2991 18.854 46.3152 17.55 46.3177 16.2463C46.3181 16.045 46.3128 15.8436 46.1508 15.6979C45.7376 15.3264 45.4574 14.9002 45.4651 14.3146C45.4688 14.0327 45.2644 14.0394 45.0406 14.0753C43.0728 14.3909 41.1035 14.6975 39.135 15.0089C38.0625 15.1785 36.9966 15.4217 35.9176 15.5119C31.6049 15.8725 28.6899 12.3057 28.8384 9.01477C28.9644 6.22237 31.4678 3.52356 34.2338 3.13643C35.449 2.96635 36.5905 3.27478 37.7527 3.44296C40.0941 3.78182 42.4254 4.19043 44.7611 4.56924C45.2162 4.64306 45.4571 4.56642 45.5063 3.98981C45.6192 2.66639 46.715 1.74122 48.0468 1.73778C50.0274 1.73266 52.0081 1.73549 53.9887 1.73718C55.4103 1.7384 56.4043 2.68131 56.4952 4.10868C56.5063 4.28238 56.5256 4.45556 56.5465 4.69051C57.6278 4.51534 58.6715 4.34504 59.7155 4.17736C62.0118 3.80857 64.2965 3.30409 66.6075 3.10753C69.5441 2.85777 72.4025 5.00686 73.0024 8.01358C73.8583 12.3036 70.6609 15.1615 67.3671 15.4776C65.8726 15.6211 64.4647 15.2434 63.028 15.0345C61.0379 14.7451 59.0587 14.3814 57.0746 14.0511C56.7922 14.0041 56.6135 14.085 56.611 14.4143C56.6071 14.9249 56.3613 15.3274 55.9686 15.6267C55.7165 15.8188 55.6522 16.0458 55.6546 16.3423C55.6647 17.6065 55.6807 18.8713 55.6486 20.1346C55.6358 20.6347 55.8486 20.7262 56.2832 20.728C57.2711 20.7321 58.258 20.6718 59.2478 20.8051C60.6212 20.99 61.8382 22.1579 61.7414 23.6187C61.6554 24.9167 61.7417 26.2253 61.7133 27.5284C61.7036 27.9731 61.8609 28.1952 62.2634 28.3722C63.6011 28.9606 64.6785 29.8835 65.4706 31.1046C65.7767 31.5764 66.1265 31.7275 66.682 31.7365C72.0455 31.8238 77.0988 33.0265 81.6323 36.0064C86.1882 39.0011 89.4112 43.075 91.4394 48.1117C92.3278 50.3179 92.9186 52.601 93.1853 54.9594C93.3316 56.2527 93.3703 57.5586 93.3165 58.8613C93.2956 59.3677 93.4047 59.591 93.992 59.5954C95.6038 59.6076 96.936 60.9712 97.024 62.5901C97.1184 64.3251 97.2322 66.066 96.9046 67.7833C96.5727 69.5229 95.1893 70.6763 93.4091 70.7998C91.1342 70.9576 88.8561 70.8414 86.5796 70.8688C85.2727 70.8845 83.9655 70.8699 82.5991 70.8689ZM36.5354 46.4279C37.5514 46.3371 38.3337 46.7252 38.9483 47.5336C39.4399 48.1804 40.0562 48.7172 40.6671 49.2489C43.3104 51.5496 46.4033 52.7107 49.8935 52.9728C52.6377 53.1788 55.2425 52.7268 57.7586 51.6696C60.0347 50.7133 61.8823 49.1854 63.4529 47.3146C63.968 46.701 64.5954 46.4432 65.3698 46.438C66.7564 46.4285 68.1385 46.5171 69.4958 46.7894C73.503 47.5935 76.2188 49.8668 77.4251 53.8247C77.938 55.5075 77.9761 57.2393 77.9707 58.9746C77.9694 59.3786 78.0565 59.5874 78.5281 59.5854C82.033 59.5705 85.538 59.5726 89.043 59.5838C89.4537 59.5851 89.5885 59.4432 89.6019 59.0352C89.7032 55.9532 89.3843 52.9365 88.2888 50.0285C86.0975 44.2112 82.3094 39.8685 76.5301 37.3712C73.3239 35.9858 69.9529 35.4074 66.4757 35.4759C64.8664 35.5076 63.6639 35.061 62.7853 33.5766C61.8717 32.033 60.4465 31.2764 58.5202 31.3074C53.4126 31.3896 48.3025 31.3621 43.194 31.3151C41.8666 31.3029 40.8504 31.7923 40.0091 32.728C39.522 33.2699 39.0927 33.8658 38.6636 34.4564C38.1566 35.1544 37.4901 35.4614 36.6289 35.4477C35.1244 35.4239 33.6192 35.4385 32.1142 35.433C26.8701 35.4136 21.6259 35.392 16.3817 35.3724C15.5766 35.3694 15.5777 35.3721 15.5782 36.1415C15.5803 39.3408 15.5915 42.5401 15.5737 45.7392C15.5707 46.2746 15.7231 46.4455 16.2806 46.4438C22.9934 46.4236 29.7063 46.429 36.5354 46.4279ZM11.9627 31.1133C11.9625 30.5604 11.9672 30.0075 11.961 29.4547C11.9525 28.7034 11.5435 28.2652 10.8008 28.2585C9.31594 28.245 7.83077 28.266 6.34606 28.2477C5.88581 28.242 5.73527 28.3959 5.73605 28.8662C5.74923 36.8435 5.7501 44.8209 5.73589 52.7982C5.73498 53.3117 5.92412 53.4321 6.39468 53.4244C7.78025 53.4019 9.16644 53.4178 10.5524 53.4162C11.6726 53.4148 11.9618 53.1289 11.9619 52.0242C11.9625 45.0934 11.9625 38.1626 11.9627 31.1133ZM88.9574 63.0908C84.3238 63.0896 79.6901 63.0963 75.0565 63.0769C74.5051 63.0746 74.2677 63.2029 74.3086 63.7984C74.3585 64.5257 74.3584 65.2614 74.3101 65.9889C74.2662 66.6497 74.5977 66.9659 75.1572 67.1654C75.444 67.2677 75.7342 67.2809 76.0328 67.2807C81.2605 67.2769 86.4882 67.2737 91.7159 67.2808C92.0974 67.2813 92.4621 67.2144 92.8306 67.1469C93.2101 67.0773 93.4031 66.887 93.3907 66.4601C93.3636 65.5327 93.3597 64.6032 93.3929 63.6762C93.4105 63.1834 93.2019 63.0758 92.7593 63.0834C91.5319 63.1045 90.304 63.0908 88.9574 63.0908ZM55.7989 24.4199C52.9472 24.4205 50.0956 24.421 47.244 24.4217C46.3132 24.4219 45.3825 24.4254 44.4517 24.4212C44.119 24.4197 43.8702 24.4724 43.8793 24.8989C43.8971 25.728 43.8909 26.5577 43.8871 27.3872C43.8857 27.685 44.0152 27.8206 44.3168 27.8124C44.6532 27.8034 44.9901 27.8118 45.3267 27.8119C49.3666 27.812 53.4064 27.8054 57.4462 27.8211C57.9133 27.8229 58.1489 27.7028 58.1468 27.2088C58.1436 26.4211 58.1659 25.6332 58.1761 24.8453C58.1802 24.5246 58.0326 24.3954 57.6997 24.4084C57.1064 24.4316 56.5117 24.418 55.7989 24.4199ZM69.0256 7.7965C68.578 7.0532 67.8942 6.70598 67.05 6.69848C66.6404 6.69483 66.2282 6.78609 65.82 6.85172C63.2307 7.26798 60.6443 7.703 58.0525 8.10328C56.546 8.33593 56.552 8.31184 56.5762 9.86379C56.582 10.2369 56.7075 10.3528 57.084 10.4076C60.2426 10.8669 63.3973 11.3521 66.5521 11.8368C67.9817 12.0564 69.0251 11.3624 69.3945 9.98184C69.5997 9.21515 69.3515 8.54733 69.0256 7.7965ZM39.6414 11.2289C41.1795 10.9897 42.7145 10.7279 44.2567 10.5186C45.4758 10.3531 45.4797 10.3817 45.4775 9.16227C45.476 8.32787 45.473 8.34689 44.6447 8.21595C42.0179 7.80069 39.3954 7.35845 36.767 6.95318C36.1083 6.8516 35.4473 6.62901 34.7802 6.71525C33.2518 6.91285 32.4277 8.21146 32.7615 9.81363C33.058 11.2364 33.8855 11.9893 35.2119 11.8621C36.6605 11.7232 38.0967 11.4562 39.6414 11.2289ZM52.9644 10.0153C52.9638 8.65475 52.9544 7.29411 52.9681 5.93371C52.9721 5.53563 52.8431 5.36144 52.4222 5.37016C51.4538 5.39023 50.4847 5.38222 49.516 5.37536C49.1806 5.37298 49.0029 5.48331 49.0043 5.85216C49.0122 7.92252 49.0112 9.99295 49.0043 12.0633C49.0032 12.3875 49.124 12.5268 49.4573 12.5235C50.4656 12.5135 51.4741 12.5133 52.4823 12.5253C52.8434 12.5296 52.9742 12.3741 52.9672 12.0266C52.9543 11.3959 52.9641 10.7648 52.9644 10.0153ZM52.0267 19.258C52.0272 18.6861 52.0398 18.1139 52.0261 17.5423C51.984 15.7792 52.3987 16.0701 50.4229 16.0404C50.051 16.0348 49.9502 16.2065 49.9532 16.5464C49.9642 17.769 49.9546 18.9918 49.9597 20.2145C49.9604 20.383 49.8995 20.5724 50.0895 20.7391C50.6881 20.7391 51.3144 20.7391 51.9684 20.7391C52.0781 20.2747 52.0025 19.8218 52.0267 19.258Z" fill="#EDD118"/>
<path d="M91.2509 84.6614C92.0677 86.3122 92.8519 87.9366 93.3109 89.6773C94.6638 94.8079 91.1725 100.124 85.9072 101.149C80.4709 102.207 75.3217 98.6492 74.3846 93.1823C73.9867 90.8609 74.7063 88.7424 75.6166 86.6617C77.1111 83.2456 79.0964 80.1082 81.1169 76.9897C81.557 76.3104 81.9362 75.5917 82.3815 74.9161C83.1532 73.7453 84.6668 73.6844 85.3867 74.8653C87.3601 78.102 89.5386 81.2178 91.2509 84.6614ZM80.7318 96.7422C81.7842 97.4042 82.9308 97.6473 84.1738 97.6359C88.0163 97.6006 90.7819 93.9133 89.7028 90.2404C89.0574 88.0432 87.9597 86.058 86.833 84.0892C85.9443 82.5361 84.9749 81.0303 83.9645 79.5529C83.896 79.5928 83.8508 79.6037 83.8324 79.632C82.0683 82.3464 80.3004 85.0595 78.9753 88.0256C78.4519 89.1973 77.949 90.396 77.9028 91.6911C77.8246 93.8813 78.9452 95.4627 80.7318 96.7422Z" fill="#EDD118"/>
</svg>
