<svg width="30" height="30" viewBox="0 0 30 30" fill="none" xmlns="http://www.w3.org/2000/svg">
<circle cx="15" cy="15" r="12.5" stroke="#EDD118" stroke-width="1.5"/>
<path d="M18.1183 9.96888L18.6489 9.43882L18.6489 9.43882L18.1183 9.96888ZM20.0448 11.8973L19.5142 12.4273V12.4273L20.0448 11.8973ZM13.5865 19.0181L13.0559 19.5482L13.5865 19.0181ZM11.0136 16.4426L11.5442 15.9125H11.5442L11.0136 16.4426ZM19.1043 16.2464L18.8405 15.5444L19.1043 16.2464ZM17.9061 16.6966L18.1699 17.3987V17.3987L17.9061 16.6966ZM13.3326 12.1136L12.6284 11.8556L12.6284 11.8556L13.3326 12.1136ZM13.7667 10.929L14.4709 11.187V11.187L13.7667 10.929ZM11.7781 13.5459L11.9775 14.2689H11.9775L11.7781 13.5459ZM12.6885 13.2095L12.2503 12.6008L12.2503 12.6008L12.6885 13.2095ZM12.9224 12.994L13.4932 13.4805L13.4932 13.4805L12.9224 12.994ZM17.0319 17.1128L17.5228 17.6798L17.5228 17.6798L17.0319 17.1128ZM16.4879 18.2507L15.7647 18.0518L15.7647 18.0518L16.4879 18.2507ZM16.8231 17.3416L16.2137 16.9044L16.2137 16.9044L16.8231 17.3416ZM9.82404 14.847L9.07405 14.8518V14.8518L9.82404 14.847ZM9.95653 14.3451L9.30661 13.9707L9.30661 13.9707L9.95653 14.3451ZM15.1908 20.2144L15.1919 19.4644H15.1919L15.1908 20.2144ZM15.6833 20.0842L15.3116 19.4328L15.3116 19.4328L15.6833 20.0842ZM15.4358 8.14754L15.5974 8.87992L15.4358 8.14754ZM8.8444 20.0949C8.55166 20.388 8.5519 20.8629 8.84494 21.1556C9.13798 21.4483 9.61286 21.4481 9.9056 21.1551L8.8444 20.0949ZM12.8139 18.2438C13.1066 17.9508 13.1064 17.4759 12.8133 17.1832C12.5203 16.8904 12.0454 16.8907 11.7527 17.1837L12.8139 18.2438ZM17.5877 10.4989L19.5142 12.4273L20.5754 11.3672L18.6489 9.43882L17.5877 10.4989ZM14.1171 18.4881L11.5442 15.9125L10.483 16.9726L13.0559 19.5482L14.1171 18.4881ZM18.8405 15.5444L17.6423 15.9946L18.1699 17.3987L19.3681 16.9485L18.8405 15.5444ZM14.0368 12.3716L14.4709 11.187L13.0624 10.671L12.6284 11.8556L14.0368 12.3716ZM11.9775 14.2689C12.4017 14.152 12.7995 14.0537 13.1267 13.8181L12.2503 12.6008C12.1928 12.6422 12.1119 12.6759 11.5788 12.8229L11.9775 14.2689ZM12.6284 11.8556C12.438 12.3752 12.3977 12.4534 12.3516 12.5075L13.4932 13.4805C13.7547 13.1736 13.8853 12.7852 14.0368 12.3716L12.6284 11.8556ZM13.1267 13.8181C13.262 13.7207 13.3851 13.6073 13.4932 13.4805L12.3516 12.5075C12.3217 12.5426 12.2877 12.5739 12.2503 12.6008L13.1267 13.8181ZM17.6423 15.9946C17.2314 16.1489 16.8452 16.2824 16.5409 16.5458L17.5228 17.6798C17.5764 17.6334 17.6537 17.5927 18.1699 17.3987L17.6423 15.9946ZM17.211 18.4497C17.3574 17.9176 17.391 17.8366 17.4324 17.7789L16.2137 16.9044C15.9791 17.2313 15.8813 17.6281 15.7647 18.0518L17.211 18.4497ZM16.5409 16.5458C16.4182 16.6521 16.3083 16.7725 16.2137 16.9044L17.4324 17.7789C17.4586 17.7424 17.489 17.7091 17.5228 17.6798L16.5409 16.5458ZM11.5442 15.9125C11.1354 15.5034 10.8753 15.2413 10.7098 15.0335C10.5434 14.8244 10.5737 14.7897 10.574 14.8423L9.07405 14.8518C9.07696 15.3117 9.30634 15.6788 9.53621 15.9676C9.76706 16.2576 10.1004 16.5897 10.483 16.9726L11.5442 15.9125ZM11.5788 12.8229C11.0573 12.9667 10.6035 13.0906 10.2596 13.2287C9.9171 13.3661 9.53626 13.572 9.30661 13.9707L10.6065 14.7194C10.5801 14.7651 10.5706 14.7201 10.8184 14.6207C11.0648 14.5218 11.4202 14.4226 11.9775 14.2689L11.5788 12.8229ZM10.574 14.8423C10.5738 14.7991 10.585 14.7567 10.6065 14.7194L9.30661 13.9707C9.15235 14.2386 9.0721 14.5427 9.07405 14.8518L10.574 14.8423ZM13.0559 19.5482C13.4409 19.9335 13.7747 20.2694 14.0663 20.5016C14.3567 20.7329 14.7264 20.9637 15.1897 20.9644L15.1919 19.4644C15.2454 19.4645 15.2111 19.4958 15.0008 19.3283C14.7919 19.1619 14.5284 18.8998 14.1171 18.4881L13.0559 19.5482ZM15.7647 18.0518C15.6103 18.6132 15.5105 18.9713 15.4109 19.2195C15.3107 19.4691 15.2653 19.4592 15.3116 19.4328L16.055 20.7356C16.4573 20.506 16.6647 20.1228 16.803 19.7782C16.9419 19.4321 17.0664 18.9751 17.211 18.4497L15.7647 18.0518ZM15.1896 20.9644C15.4931 20.9649 15.7915 20.886 16.055 20.7356L15.3116 19.4328C15.2751 19.4536 15.2338 19.4645 15.1919 19.4644L15.1896 20.9644ZM19.5142 12.4273C20.1854 13.0993 20.627 13.5441 20.8938 13.9042C21.1527 14.2536 21.1286 14.3681 21.1202 14.4071L22.5863 14.7241C22.7304 14.0577 22.4557 13.4924 22.099 13.0111C21.7503 12.5405 21.2114 12.0039 20.5754 11.3672L19.5142 12.4273ZM19.3681 16.9485C20.2102 16.6321 20.9226 16.3666 21.4346 16.0824C21.9583 15.7917 22.4422 15.3906 22.5863 14.7241L21.1202 14.4071C21.1118 14.4459 21.0866 14.56 20.7067 14.7709C20.3151 14.9882 19.7293 15.2104 18.8405 15.5444L19.3681 16.9485ZM18.6489 9.43882C18.0081 8.79735 17.4684 8.25428 16.9955 7.90317C16.5124 7.54447 15.9438 7.26741 15.2742 7.41515L15.5974 8.87992C15.6349 8.87164 15.7492 8.84612 16.1014 9.10754C16.4637 9.37654 16.9117 9.82215 17.5877 10.4989L18.6489 9.43882ZM14.4709 11.187C14.8001 10.2884 15.0194 9.69553 15.2353 9.2989C15.4451 8.91338 15.5597 8.88824 15.5974 8.87992L15.2742 7.41515C14.6047 7.56286 14.2054 8.05331 13.9177 8.58193C13.6361 9.09944 13.3745 9.81924 13.0624 10.671L14.4709 11.187ZM9.9056 21.1551L12.8139 18.2438L11.7527 17.1837L8.8444 20.0949L9.9056 21.1551Z" fill="#EDD118"/>
</svg>
