<svg width="348" height="206" viewBox="0 0 348 206" fill="none" xmlns="http://www.w3.org/2000/svg">
<path d="M172.003 1.43083C173.549 0.545057 175.449 0.548609 176.991 1.44015L340.228 95.7963C343.509 97.693 343.569 102.408 340.338 104.389L177.101 204.406C175.504 205.385 173.494 205.389 171.893 204.416L7.24141 104.399C3.98789 102.422 4.04834 97.68 7.3512 95.7873L172.003 1.43083Z" fill="#EDD118"/>
<path d="M172.543 13.085C173.858 12.3305 175.475 12.3334 176.787 13.0928L321.363 96.7676C324.15 98.3803 324.201 102.385 321.457 104.068L176.88 192.764C175.521 193.597 173.811 193.601 172.449 192.772L26.6191 104.077C23.8566 102.397 23.9084 98.3691 26.7129 96.7598L172.543 13.085Z" stroke="black" stroke-width="1.5"/>
<path d="M54 121L294 121" stroke="black"/>
<path d="M47 85L301 85" stroke="black"/>
<path d="M92.048 116.432C90.104 116.432 88.292 116.12 86.612 115.496C84.956 114.848 83.516 113.936 82.292 112.76C81.068 111.584 80.108 110.204 79.412 108.62C78.74 107.036 78.404 105.296 78.404 103.4C78.404 101.504 78.74 99.764 79.412 98.18C80.108 96.596 81.068 95.216 82.292 94.04C83.54 92.864 84.992 91.964 86.648 91.34C88.304 90.692 90.116 90.368 92.084 90.368C94.268 90.368 96.236 90.752 97.988 91.52C99.764 92.264 101.252 93.368 102.452 94.832L98.708 98.288C97.844 97.304 96.884 96.572 95.828 96.092C94.772 95.588 93.62 95.336 92.372 95.336C91.196 95.336 90.116 95.528 89.132 95.912C88.148 96.296 87.296 96.848 86.576 97.568C85.856 98.288 85.292 99.14 84.884 100.124C84.5 101.108 84.308 102.2 84.308 103.4C84.308 104.6 84.5 105.692 84.884 106.676C85.292 107.66 85.856 108.512 86.576 109.232C87.296 109.952 88.148 110.504 89.132 110.888C90.116 111.272 91.196 111.464 92.372 111.464C93.62 111.464 94.772 111.224 95.828 110.744C96.884 110.24 97.844 109.484 98.708 108.476L102.452 111.932C101.252 113.396 99.764 114.512 97.988 115.28C96.236 116.048 94.256 116.432 92.048 116.432ZM102.621 116L113.853 90.8H119.613L130.881 116H124.761L115.545 93.752H117.849L108.597 116H102.621ZM108.237 110.6L109.785 106.172H122.745L124.329 110.6H108.237ZM133.496 116V90.8H139.328V111.248H151.964V116H133.496ZM155.222 116V90.8H161.054V111.248H173.69V116H155.222ZM187.144 116V90.8H198.592C201.328 90.8 203.74 91.328 205.828 92.384C207.916 93.416 209.548 94.868 210.724 96.74C211.9 98.612 212.488 100.832 212.488 103.4C212.488 105.944 211.9 108.164 210.724 110.06C209.548 111.932 207.916 113.396 205.828 114.452C203.74 115.484 201.328 116 198.592 116H187.144ZM192.976 111.212H198.304C199.984 111.212 201.436 110.9 202.66 110.276C203.908 109.628 204.868 108.716 205.54 107.54C206.236 106.364 206.584 104.984 206.584 103.4C206.584 101.792 206.236 100.412 205.54 99.26C204.868 98.084 203.908 97.184 202.66 96.56C201.436 95.912 199.984 95.588 198.304 95.588H192.976V111.212ZM213.223 116L224.455 90.8H230.215L241.483 116H235.363L226.147 93.752H228.451L219.199 116H213.223ZM218.839 110.6L220.387 106.172H233.347L234.931 110.6H218.839ZM244.097 116V90.8H248.921L263.789 108.944H261.449V90.8H267.209V116H262.421L247.517 97.856H249.857V116H244.097Z" fill="black"/>
<path d="M99.342 136V128.3H102.103C102.748 128.3 103.302 128.403 103.764 128.608C104.226 128.813 104.582 129.11 104.831 129.499C105.08 129.88 105.205 130.346 105.205 130.896C105.205 131.431 105.08 131.893 104.831 132.282C104.582 132.671 104.226 132.968 103.764 133.173C103.302 133.378 102.748 133.481 102.103 133.481H99.65L99.903 133.217V136H99.342ZM99.903 133.25L99.65 132.975H102.103C102.932 132.975 103.559 132.795 103.984 132.436C104.417 132.069 104.633 131.556 104.633 130.896C104.633 130.229 104.417 129.715 103.984 129.356C103.559 128.989 102.932 128.806 102.103 128.806H99.65L99.903 128.531V133.25ZM107.098 136V128.3H109.859C110.504 128.3 111.058 128.403 111.52 128.608C111.982 128.813 112.338 129.11 112.587 129.499C112.836 129.88 112.961 130.346 112.961 130.896C112.961 131.431 112.836 131.893 112.587 132.282C112.338 132.663 111.982 132.96 111.52 133.173C111.058 133.378 110.504 133.481 109.859 133.481H107.406L107.659 133.217V136H107.098ZM112.444 136L110.442 133.206H111.08L113.082 136H112.444ZM107.659 133.25L107.406 132.986H109.859C110.688 132.986 111.315 132.803 111.74 132.436C112.173 132.069 112.389 131.556 112.389 130.896C112.389 130.229 112.173 129.715 111.74 129.356C111.315 128.989 110.688 128.806 109.859 128.806H107.406L107.659 128.531V133.25ZM118.282 136.055C117.71 136.055 117.178 135.96 116.687 135.769C116.203 135.571 115.778 135.296 115.411 134.944C115.052 134.585 114.773 134.17 114.575 133.701C114.377 133.224 114.278 132.707 114.278 132.15C114.278 131.593 114.377 131.079 114.575 130.61C114.773 130.133 115.052 129.719 115.411 129.367C115.778 129.008 116.203 128.733 116.687 128.542C117.178 128.344 117.71 128.245 118.282 128.245C118.854 128.245 119.382 128.344 119.866 128.542C120.357 128.733 120.783 129.004 121.142 129.356C121.501 129.708 121.78 130.122 121.978 130.599C122.183 131.068 122.286 131.585 122.286 132.15C122.286 132.715 122.183 133.235 121.978 133.712C121.78 134.181 121.501 134.592 121.142 134.944C120.783 135.296 120.357 135.571 119.866 135.769C119.382 135.96 118.854 136.055 118.282 136.055ZM118.282 135.538C118.773 135.538 119.228 135.454 119.646 135.285C120.064 135.116 120.427 134.878 120.735 134.57C121.043 134.262 121.281 133.903 121.45 133.492C121.626 133.081 121.714 132.634 121.714 132.15C121.714 131.659 121.626 131.211 121.45 130.808C121.281 130.397 121.043 130.038 120.735 129.73C120.427 129.422 120.064 129.184 119.646 129.015C119.228 128.846 118.773 128.762 118.282 128.762C117.791 128.762 117.336 128.846 116.918 129.015C116.5 129.184 116.133 129.422 115.818 129.73C115.51 130.038 115.268 130.397 115.092 130.808C114.923 131.211 114.839 131.659 114.839 132.15C114.839 132.634 114.923 133.081 115.092 133.492C115.268 133.903 115.51 134.262 115.818 134.57C116.133 134.878 116.5 135.116 116.918 135.285C117.336 135.454 117.791 135.538 118.282 135.538ZM124.232 136V128.3H126.993C127.638 128.3 128.192 128.403 128.654 128.608C129.116 128.813 129.471 129.11 129.721 129.499C129.97 129.88 130.095 130.346 130.095 130.896C130.095 131.431 129.97 131.893 129.721 132.282C129.471 132.671 129.116 132.968 128.654 133.173C128.192 133.378 127.638 133.481 126.993 133.481H124.54L124.793 133.217V136H124.232ZM124.793 133.25L124.54 132.975H126.993C127.821 132.975 128.448 132.795 128.874 132.436C129.306 132.069 129.523 131.556 129.523 130.896C129.523 130.229 129.306 129.715 128.874 129.356C128.448 128.989 127.821 128.806 126.993 128.806H124.54L124.793 128.531V133.25ZM132.483 131.842H136.652V132.337H132.483V131.842ZM132.549 135.494H137.301V136H131.988V128.3H137.136V128.806H132.549V135.494ZM139.346 136V128.3H142.107C142.752 128.3 143.306 128.403 143.768 128.608C144.23 128.813 144.586 129.11 144.835 129.499C145.084 129.88 145.209 130.346 145.209 130.896C145.209 131.431 145.084 131.893 144.835 132.282C144.586 132.663 144.23 132.96 143.768 133.173C143.306 133.378 142.752 133.481 142.107 133.481H139.654L139.907 133.217V136H139.346ZM144.692 136L142.69 133.206H143.328L145.33 136H144.692ZM139.907 133.25L139.654 132.986H142.107C142.936 132.986 143.563 132.803 143.988 132.436C144.421 132.069 144.637 131.556 144.637 130.896C144.637 130.229 144.421 129.715 143.988 129.356C143.563 128.989 142.936 128.806 142.107 128.806H139.654L139.907 128.531V133.25ZM148.629 136V128.806H145.857V128.3H151.962V128.806H149.19V136H148.629ZM155.136 136V133.206L155.268 133.569L152.034 128.3H152.65L155.587 133.085H155.279L158.216 128.3H158.799L155.565 133.569L155.697 133.206V136H155.136ZM165.847 136V128.3H166.32L169.895 134.471H169.642L173.206 128.3H173.668L173.679 136H173.129L173.118 129.147H173.272L169.895 134.977H169.62L166.232 129.147H166.397V136H165.847ZM175.076 136L178.618 128.3H179.179L182.721 136H182.116L178.772 128.652H179.014L175.681 136H175.076ZM176.374 133.833L176.561 133.36H181.17L181.357 133.833H176.374ZM184.119 136V128.3H184.68V136H184.119ZM187.363 136V128.3H187.836L193.325 135.307H193.072V128.3H193.633V136H193.171L187.671 128.993H187.924V136H187.363ZM197.796 136V128.806H195.024V128.3H201.129V128.806H198.357V136H197.796ZM203.016 131.842H207.185V132.337H203.016V131.842ZM203.082 135.494H207.834V136H202.521V128.3H207.669V128.806H203.082V135.494ZM209.879 136V128.3H210.352L215.841 135.307H215.588V128.3H216.149V136H215.687L210.187 128.993H210.44V136H209.879ZM217.551 136L221.093 128.3H221.654L225.196 136H224.591L221.247 128.652H221.489L218.156 136H217.551ZM218.849 133.833L219.036 133.36H223.645L223.832 133.833H218.849ZM226.594 136V128.3H227.067L232.556 135.307H232.303V128.3H232.864V136H232.402L226.902 128.993H227.155V136H226.594ZM238.809 136.055C238.237 136.055 237.705 135.96 237.214 135.769C236.73 135.571 236.308 135.296 235.949 134.944C235.59 134.592 235.311 134.181 235.113 133.712C234.915 133.235 234.816 132.715 234.816 132.15C234.816 131.585 234.915 131.068 235.113 130.599C235.311 130.122 235.59 129.708 235.949 129.356C236.316 129.004 236.741 128.733 237.225 128.542C237.709 128.344 238.237 128.245 238.809 128.245C239.352 128.245 239.858 128.333 240.327 128.509C240.804 128.685 241.211 128.953 241.548 129.312L241.196 129.675C240.866 129.352 240.499 129.121 240.096 128.982C239.7 128.835 239.278 128.762 238.831 128.762C238.34 128.762 237.881 128.846 237.456 129.015C237.038 129.184 236.671 129.422 236.356 129.73C236.048 130.038 235.806 130.397 235.63 130.808C235.461 131.219 235.377 131.666 235.377 132.15C235.377 132.634 235.461 133.081 235.63 133.492C235.806 133.903 236.048 134.262 236.356 134.57C236.671 134.878 237.038 135.116 237.456 135.285C237.881 135.454 238.34 135.538 238.831 135.538C239.278 135.538 239.7 135.468 240.096 135.329C240.499 135.182 240.866 134.944 241.196 134.614L241.548 134.977C241.211 135.336 240.804 135.608 240.327 135.791C239.858 135.967 239.352 136.055 238.809 136.055ZM243.922 131.842H248.091V132.337H243.922V131.842ZM243.988 135.494H248.74V136H243.427V128.3H248.575V128.806H243.988V135.494Z" fill="black"/>
<path d="M193.22 71.1369C191.481 69.7975 186.853 66.0983 182.542 61.6528C179.677 58.6964 178.458 55.7367 176.286 53.4963C174.318 51.4672 172.529 50.2846 172.529 50.2846L172.025 50.8044L168.62 47.2934L169.935 45.9369C170.042 45.8255 170.102 45.6772 170.102 45.5229C170.102 45.3685 170.042 45.2202 169.935 45.1088L169.664 44.8285C169.665 44.8272 173.534 39.6205 178.426 41.0604C178.995 41.229 179.501 41.5158 179.645 41.3694C179.841 41.1686 179.096 40.3969 178.659 39.9506C172.47 33.6178 165.643 40.6751 165.64 40.6784L165.399 40.4297C165.347 40.3756 165.285 40.3325 165.216 40.3031C165.147 40.2737 165.073 40.2585 164.998 40.2585C164.923 40.2585 164.849 40.2737 164.78 40.3031C164.711 40.3325 164.649 40.3756 164.597 40.4297L158.534 46.6824C158.427 46.7939 158.368 46.9422 158.368 47.0965C158.368 47.2509 158.427 47.3992 158.534 47.5106C158.534 47.5106 159.276 48.8094 157.33 49.043C156.546 49.1381 156.056 49.3147 155.777 49.5476C155.343 49.9857 154.91 50.4252 154.479 50.866C154.372 50.9775 154.312 51.1258 154.312 51.2801C154.312 51.4345 154.372 51.5828 154.479 51.6942L159.016 56.3746C159.068 56.4287 159.13 56.4718 159.199 56.5012C159.268 56.5307 159.342 56.5458 159.417 56.5458C159.492 56.5458 159.566 56.5307 159.635 56.5012C159.704 56.4718 159.767 56.4287 159.818 56.3746C159.818 56.3746 161.069 55.0687 161.096 55.0345C161.321 54.7471 161.493 54.2418 161.584 53.4333C161.812 51.4252 163.07 52.1917 163.07 52.1917C163.121 52.246 163.184 52.2892 163.253 52.3188C163.322 52.3483 163.396 52.3635 163.471 52.3635C163.546 52.3635 163.621 52.3483 163.69 52.3188C163.759 52.2892 163.821 52.246 163.873 52.1917L165.188 50.8352L168.591 54.3455L168.087 54.8659C168.087 54.8659 169.234 56.7119 171.202 58.741C173.373 60.9808 176.244 62.2375 179.11 65.1939C183.419 69.6394 187.006 74.4123 188.306 76.2058C188.797 76.8811 188.875 76.8188 189.474 76.1999L191.344 74.2719L193.212 72.3444C193.813 71.7236 193.875 71.6436 193.22 71.1369Z" fill="black"/>
<path d="M175.318 50.8896C175.881 51.3985 176.427 51.9255 176.956 52.4699C178.001 53.5474 178.875 54.753 179.751 56.0399L185.62 50.171C186.708 50.437 187.846 50.4182 188.925 50.1164C190.004 49.8146 190.986 49.24 191.779 48.4481C192.571 47.6561 193.146 46.6734 193.448 45.5947C193.75 44.5161 193.769 43.3777 193.504 42.2895L188.178 47.6156L184.398 46.603L183.384 42.821L188.709 37.4982C187.621 37.232 186.483 37.251 185.405 37.5533C184.326 37.8557 183.344 38.4312 182.553 39.2241C181.761 40.0154 181.185 40.9975 180.883 42.0757C180.581 43.1539 180.561 44.2918 180.826 45.3798L175.318 50.8896Z" fill="black"/>
<path d="M170.383 59.2503C169.821 58.6691 169.278 58.0687 168.757 57.4502L162.38 63.8276C161.292 63.5617 160.154 63.5808 159.075 63.883C157.997 64.1852 157.015 64.7604 156.224 65.5529C153.675 68.0992 153.676 72.2296 156.224 74.7765C156.829 75.3824 157.548 75.863 158.339 76.1909C159.13 76.5189 159.978 76.6876 160.835 76.6876C161.691 76.6876 162.54 76.5189 163.331 76.1909C164.122 75.863 164.841 75.3824 165.446 74.7765C166.239 73.9847 166.814 73.0022 167.116 71.9235C167.419 70.8449 167.438 69.7066 167.173 68.6183L173.738 62.0538C172.531 61.1757 171.397 60.2957 170.383 59.2503ZM161.848 73.945L158.068 72.9318L157.055 69.1505L159.823 66.3844L163.603 67.3957L164.616 71.1776L161.848 73.945Z" fill="black"/>
<path d="M109.52 66.582H114.7V67.464H109.52V66.582ZM109.632 71.104H115.526V72H108.596V62.2H115.316V63.096H109.632V71.104ZM120.663 72.084C119.935 72.084 119.235 71.9673 118.563 71.734C117.901 71.4913 117.387 71.1833 117.023 70.81L117.429 70.012C117.775 70.348 118.237 70.6327 118.815 70.866C119.403 71.09 120.019 71.202 120.663 71.202C121.279 71.202 121.779 71.1273 122.161 70.978C122.553 70.8193 122.838 70.6093 123.015 70.348C123.202 70.0867 123.295 69.7973 123.295 69.48C123.295 69.0973 123.183 68.7893 122.959 68.556C122.745 68.3227 122.46 68.1407 122.105 68.01C121.751 67.87 121.359 67.7487 120.929 67.646C120.5 67.5433 120.071 67.436 119.641 67.324C119.212 67.2027 118.815 67.044 118.451 66.848C118.097 66.652 117.807 66.3953 117.583 66.078C117.369 65.7513 117.261 65.3267 117.261 64.804C117.261 64.3187 117.387 63.8753 117.639 63.474C117.901 63.0633 118.297 62.7367 118.829 62.494C119.361 62.242 120.043 62.116 120.873 62.116C121.424 62.116 121.97 62.1953 122.511 62.354C123.053 62.5033 123.519 62.7133 123.911 62.984L123.561 63.81C123.141 63.53 122.693 63.3247 122.217 63.194C121.751 63.0633 121.298 62.998 120.859 62.998C120.271 62.998 119.786 63.0773 119.403 63.236C119.021 63.3947 118.736 63.6093 118.549 63.88C118.372 64.1413 118.283 64.44 118.283 64.776C118.283 65.1587 118.391 65.4667 118.605 65.7C118.829 65.9333 119.119 66.1153 119.473 66.246C119.837 66.3767 120.234 66.4933 120.663 66.596C121.093 66.6987 121.517 66.8107 121.937 66.932C122.367 67.0533 122.759 67.212 123.113 67.408C123.477 67.5947 123.767 67.8467 123.981 68.164C124.205 68.4813 124.317 68.8967 124.317 69.41C124.317 69.886 124.187 70.3293 123.925 70.74C123.664 71.1413 123.263 71.468 122.721 71.72C122.189 71.9627 121.503 72.084 120.663 72.084ZM128.342 72V63.096H124.898V62.2H132.822V63.096H129.378V72H128.342ZM134.477 72V62.2H138.467C139.512 62.2 140.427 62.41 141.211 62.83C142.004 63.2407 142.62 63.8147 143.059 64.552C143.498 65.2893 143.717 66.1387 143.717 67.1C143.717 68.0613 143.498 68.9107 143.059 69.648C142.62 70.3853 142.004 70.964 141.211 71.384C140.427 71.7947 139.512 72 138.467 72H134.477ZM135.513 71.104H138.411C139.279 71.104 140.03 70.936 140.665 70.6C141.309 70.2547 141.808 69.7833 142.163 69.186C142.518 68.5793 142.695 67.884 142.695 67.1C142.695 66.3067 142.518 65.6113 142.163 65.014C141.808 64.4167 141.309 63.95 140.665 63.614C140.03 63.2687 139.279 63.096 138.411 63.096H135.513V71.104Z" fill="black"/>
<path d="M203.546 72V71.286L207.62 67.296C207.993 66.932 208.273 66.6147 208.46 66.344C208.647 66.064 208.773 65.8027 208.838 65.56C208.903 65.3173 208.936 65.0887 208.936 64.874C208.936 64.3047 208.74 63.8567 208.348 63.53C207.965 63.2033 207.396 63.04 206.64 63.04C206.061 63.04 205.548 63.1287 205.1 63.306C204.661 63.4833 204.283 63.7587 203.966 64.132L203.252 63.516C203.635 63.068 204.125 62.7227 204.722 62.48C205.319 62.2373 205.987 62.116 206.724 62.116C207.387 62.116 207.961 62.2233 208.446 62.438C208.931 62.6433 209.305 62.9467 209.566 63.348C209.837 63.7493 209.972 64.2207 209.972 64.762C209.972 65.0793 209.925 65.392 209.832 65.7C209.748 66.008 209.589 66.3347 209.356 66.68C209.132 67.016 208.801 67.3987 208.362 67.828L204.624 71.496L204.344 71.104H210.42V72H203.546ZM215.564 72.084C214.808 72.084 214.136 71.888 213.548 71.496C212.96 71.0947 212.498 70.5253 212.162 69.788C211.826 69.0413 211.658 68.1453 211.658 67.1C211.658 66.0547 211.826 65.1633 212.162 64.426C212.498 63.6793 212.96 63.11 213.548 62.718C214.136 62.3167 214.808 62.116 215.564 62.116C216.32 62.116 216.992 62.3167 217.58 62.718C218.168 63.11 218.63 63.6793 218.966 64.426C219.311 65.1633 219.484 66.0547 219.484 67.1C219.484 68.1453 219.311 69.0413 218.966 69.788C218.63 70.5253 218.168 71.0947 217.58 71.496C216.992 71.888 216.32 72.084 215.564 72.084ZM215.564 71.16C216.142 71.16 216.646 71.006 217.076 70.698C217.505 70.3807 217.841 69.9233 218.084 69.326C218.326 68.7193 218.448 67.9773 218.448 67.1C218.448 66.2227 218.326 65.4853 218.084 64.888C217.841 64.2813 217.505 63.824 217.076 63.516C216.646 63.1987 216.142 63.04 215.564 63.04C215.004 63.04 214.504 63.1987 214.066 63.516C213.627 63.824 213.286 64.2813 213.044 64.888C212.801 65.4853 212.68 66.2227 212.68 67.1C212.68 67.9773 212.801 68.7193 213.044 69.326C213.286 69.9233 213.627 70.3807 214.066 70.698C214.504 71.006 215.004 71.16 215.564 71.16ZM220.745 72V71.286L224.819 67.296C225.193 66.932 225.473 66.6147 225.659 66.344C225.846 66.064 225.972 65.8027 226.037 65.56C226.103 65.3173 226.135 65.0887 226.135 64.874C226.135 64.3047 225.939 63.8567 225.547 63.53C225.165 63.2033 224.595 63.04 223.839 63.04C223.261 63.04 222.747 63.1287 222.299 63.306C221.861 63.4833 221.483 63.7587 221.165 64.132L220.451 63.516C220.834 63.068 221.324 62.7227 221.921 62.48C222.519 62.2373 223.186 62.116 223.923 62.116C224.586 62.116 225.16 62.2233 225.645 62.438C226.131 62.6433 226.504 62.9467 226.765 63.348C227.036 63.7493 227.171 64.2207 227.171 64.762C227.171 65.0793 227.125 65.392 227.031 65.7C226.947 66.008 226.789 66.3347 226.555 66.68C226.331 67.016 226 67.3987 225.561 67.828L221.823 71.496L221.543 71.104H227.619V72H220.745ZM230.592 72V62.62L231.04 63.096H228.282V62.2H231.6V72H230.592Z" fill="black"/>
<path d="M174 155L177.143 164.674H187.315L179.086 170.652L182.229 180.326L174 174.348L165.771 180.326L168.914 170.652L160.685 164.674H170.857L174 155Z" fill="black"/>
</svg>
