<svg width="63" height="63" viewBox="0 0 63 63" fill="none" xmlns="http://www.w3.org/2000/svg">
<path d="M49.875 23.625C49.875 33.7732 41.6482 42 31.5 42C21.3518 42 13.125 33.7732 13.125 23.625C13.125 13.4768 21.3518 5.25 31.5 5.25C41.6482 5.25 49.875 13.4768 49.875 23.625Z" fill="#EDD118" stroke="#EDD118" stroke-width="1.5"/>
<path d="M29.2581 18.4341C30.2556 16.6447 30.7543 15.75 31.5 15.75C32.2457 15.75 32.7444 16.6447 33.7419 18.4341L33.9999 18.897C34.2834 19.4055 34.4251 19.6598 34.6461 19.8275C34.8671 19.9953 35.1423 20.0575 35.6927 20.1821L36.1939 20.2955C38.1309 20.7337 39.0994 20.9529 39.3298 21.6938C39.5602 22.4348 38.8999 23.2069 37.5794 24.7511L37.2378 25.1506C36.8625 25.5894 36.6749 25.8088 36.5905 26.0802C36.5061 26.3516 36.5345 26.6444 36.5912 27.2298L36.6428 27.7628C36.8425 29.8231 36.9423 30.8532 36.3391 31.3112C35.7358 31.7691 34.829 31.3516 33.0154 30.5165L32.5462 30.3005C32.0308 30.0632 31.7731 29.9446 31.5 29.9446C31.2269 29.9446 30.9692 30.0632 30.4538 30.3005L29.9846 30.5165C28.171 31.3516 27.2642 31.7691 26.6609 31.3112C26.0577 30.8532 26.1575 29.8231 26.3571 27.7628L26.4088 27.2298C26.4655 26.6444 26.4939 26.3516 26.4095 26.0802C26.3251 25.8088 26.1375 25.5894 25.7622 25.1506L25.4206 24.7511C24.1001 23.2069 23.4398 22.4348 23.6702 21.6938C23.9006 20.9529 24.8691 20.7337 26.8061 20.2955L27.3073 20.1821C27.8577 20.0575 28.1329 19.9953 28.3539 19.8275C28.5749 19.6598 28.7166 19.4055 29.0001 18.897L29.2581 18.4341Z" stroke="black" stroke-width="1.5"/>
<path d="M31.5 42.1781L21.5999 52.4287C20.1821 53.8967 19.4732 54.6307 18.8729 54.8847C17.5049 55.4634 15.9874 54.9681 15.2677 53.7079C14.9519 53.1549 14.8535 52.1574 14.6567 50.1623C14.5456 49.0359 14.49 48.4727 14.3213 48.001C13.9438 46.9449 13.1504 46.1234 12.1304 45.7325C11.6748 45.5578 11.1309 45.5003 10.043 45.3853C8.11615 45.1815 7.15275 45.0796 6.61863 44.7526C5.40151 44.0075 4.92312 42.4362 5.48213 41.0198C5.72744 40.3982 6.43634 39.6642 7.85415 38.1962L14.3213 31.5" stroke="#EDD118" stroke-width="1.5"/>
<path d="M31.5 42.1781L41.4001 52.4287C42.8179 53.8967 43.5268 54.6307 44.1271 54.8847C45.4951 55.4634 47.0126 54.9681 47.7323 53.7079C48.0481 53.1549 48.1465 52.1574 48.3433 50.1623C48.4544 49.0359 48.51 48.4727 48.6787 48.001C49.0562 46.9449 49.8496 46.1234 50.8696 45.7325C51.3252 45.5578 51.8691 45.5003 52.957 45.3853C54.8838 45.1815 55.8472 45.0796 56.3814 44.7526C57.5985 44.0075 58.0769 42.4362 57.5179 41.0198C57.2726 40.3982 56.5637 39.6642 55.1459 38.1962L48.6787 31.5" stroke="#EDD118" stroke-width="1.5"/>
</svg>
