<svg width="95" height="95" viewBox="0 0 95 95" fill="none" xmlns="http://www.w3.org/2000/svg">
<path d="M75.1501 36.9514C75.5155 38.7865 75.846 40.5885 76.2296 42.3792C76.9679 45.8254 77.6181 49.2882 78.2483 52.7551C78.4547 53.8906 78.6566 55.0269 78.8533 56.1641C78.8847 56.3453 78.8872 56.533 78.8872 56.7177C78.889 63.211 78.8911 69.7043 78.8879 76.1976C78.8865 78.9045 76.5983 81.2065 73.8953 81.2086C66.8454 81.2142 59.7955 81.225 52.7457 81.2023C49.8213 81.1928 47.7233 79.017 47.6516 76.3268C47.6367 75.7681 47.4462 75.3554 46.9836 74.9558C44.3657 72.694 42.7584 69.8381 42.1764 66.4186C41.7527 63.9287 41.8035 61.4519 42.7337 59.0865C44.1262 55.5452 46.4038 52.7382 49.8824 51.0274C50.9821 50.4865 52.1666 50.1847 53.3492 49.8889C53.5369 49.8419 53.711 49.7792 53.8434 49.6536C55.19 48.3754 56.7944 47.4675 58.3603 46.5064C59.4963 45.8092 60.3022 44.8679 60.5225 43.5314C60.725 42.3025 60.8399 41.0594 61.0152 39.8257C61.2337 38.2877 61.326 36.7331 61.636 35.2069C61.6904 34.9392 61.6617 34.6537 61.6621 34.3764C61.6641 32.9695 61.6655 31.5626 61.6618 30.1557C61.6604 29.6108 61.7966 29.117 62.1692 28.7074C62.3117 28.5506 62.3587 28.3964 62.234 28.2086C61.74 27.4646 61.2478 26.7193 60.7146 25.9135C60.2191 27.023 59.8001 28.0792 59.2189 29.0582C57.9349 31.2215 56.322 33.0615 54.0919 34.2927C53.5247 34.6058 52.9353 34.893 52.248 34.728C51.457 34.538 50.956 33.697 51.1572 32.9081C51.3884 32.0018 52.0056 31.3024 52.4502 30.5126C53.7513 28.2012 54.8533 25.8119 55.4875 23.2249C55.5021 23.1651 55.5225 23.1066 55.534 23.0463C55.634 22.5227 55.6074 22.4869 55.0793 22.4863C54.0125 22.4849 52.9456 22.4968 51.879 22.4844C51.3723 22.4786 50.8623 22.5475 50.3589 22.4011C49.5562 22.1678 49.0518 21.5416 49.0476 20.7047C49.0405 19.2979 49.0391 17.8909 49.0489 16.4841C49.0559 15.4797 49.7436 14.811 50.7512 14.8109C57.4764 14.8098 64.2017 14.7941 70.9268 14.8174C73.9771 14.828 76.2842 16.2159 77.8271 18.8316C78.5408 20.0415 79.1652 21.304 79.832 22.5416C80.1257 23.0868 80.2987 23.6572 80.144 24.2766C79.9255 25.152 79.327 25.5922 78.221 25.7269C77.3334 25.835 76.4475 25.9694 75.5888 26.2168C74.6097 26.4989 73.786 27.0159 73.3 27.9534C73.3186 27.9936 73.3244 28.0372 73.3445 28.0453C74.3489 28.4486 74.6894 29.2492 74.6762 30.2626C74.662 31.3592 74.7027 32.4602 74.6176 33.5513C74.526 34.7261 74.9336 35.7986 75.1501 36.9514ZM73.7868 79.2299C75.7924 79.0808 76.9685 77.8191 76.9691 75.8072C76.9707 70.2568 76.9361 64.706 76.9878 59.1561C77.0061 57.1952 76.7596 55.2835 76.3806 53.3766C75.7625 50.2672 75.2345 47.1405 74.5606 44.0416C74.0111 41.515 73.5008 38.9799 72.9869 36.4458C72.9096 36.0645 72.7562 35.9228 72.3437 35.9258C69.5763 35.9456 66.8087 35.9446 64.0414 35.9246C63.6295 35.9216 63.4536 36.0616 63.405 36.4482C63.1267 38.6627 62.8264 40.8746 62.5653 43.0912C62.3043 45.3076 61.3549 47.0845 59.4094 48.2672C58.7437 48.6718 58.0889 49.0944 57.3696 49.5463C65.5849 49.9768 72.1457 57.3881 70.887 66.0264C70.298 70.0691 68.3138 73.3957 64.9661 75.725C60.1797 79.0553 55.051 79.2333 49.7909 76.8443C49.7147 77.1028 49.8036 77.2883 49.8915 77.466C50.5511 78.7997 51.7124 79.2287 53.1038 79.2291C59.9683 79.231 66.8329 79.231 73.7868 79.2299ZM67.5254 69.8964C68.6306 67.8829 69.0452 65.717 68.9969 63.4361C68.9513 61.2842 68.4365 59.2623 67.2016 57.4994C64.0847 53.0497 59.8738 50.8843 54.3856 51.7189C51.2625 52.1938 48.6618 53.7037 46.6657 56.1779C44.6507 58.6752 43.736 61.5175 43.9863 64.7414C44.1097 66.3298 44.4497 67.8507 45.1106 69.2919C47.3982 74.2803 52.9478 77.1772 58.4545 76.236C62.4444 75.554 65.4435 73.4348 67.5254 69.8964ZM69.1626 27.7065C69.5799 27.7066 70.0007 27.6729 70.4136 27.7154C70.8977 27.7652 71.1695 27.5731 71.4015 27.1572C72.1719 25.7764 73.3246 24.8485 74.8354 24.3599C75.72 24.0738 76.6365 23.9615 77.5453 23.802C77.8352 23.7511 78.1234 23.6796 77.91 23.2703C77.1471 21.8069 76.5179 20.2609 75.4865 18.9575C74.5081 17.7211 73.2009 16.8727 71.6167 16.849C66.5949 16.774 61.5715 16.8106 56.5487 16.7932C56.1546 16.7918 56.0514 16.9449 56.0582 17.3154C56.0749 18.2267 56.0649 19.1389 56.0454 20.0504C56.038 20.3945 56.1488 20.5262 56.5106 20.576C58.6619 20.8722 60.4316 21.7961 61.6233 23.6962C62.37 24.8869 63.1929 26.0295 63.957 27.2097C64.1918 27.5723 64.4534 27.7265 64.8971 27.7172C66.2875 27.6883 67.6789 27.7065 69.1626 27.7065ZM57.5244 23.4291C56.8601 26.4425 55.6015 29.2193 54.0232 32.0031C54.5011 31.7231 54.7966 31.4508 55.0808 31.1699C56.8523 29.4193 58.0172 27.3003 58.8519 24.9758C59.2713 23.8078 59.1889 23.596 58.0381 23.0916C57.721 22.9527 57.572 23.0217 57.5244 23.4291ZM53.2849 20.4712C54.0549 20.4697 54.0555 20.4697 54.0563 19.6817C54.0571 18.8637 54.0457 18.0455 54.0618 17.2278C54.0682 16.9042 53.9452 16.7881 53.6299 16.7926C52.8738 16.8032 52.1174 16.8007 51.3612 16.7904C51.0572 16.7862 50.9589 16.9217 50.962 17.2123C50.9722 18.1536 50.9738 19.0953 50.961 20.0366C50.9567 20.3524 51.0657 20.4835 51.39 20.4752C51.9916 20.4597 52.5938 20.471 53.2849 20.4712ZM68.9928 31.775C68.9927 31.4971 68.9928 31.2192 68.9926 30.9413C68.9917 29.6499 68.992 29.66 67.7106 29.6934C67.3819 29.702 67.2838 29.8238 67.2889 30.1358C67.303 30.9847 67.2832 31.8341 67.2968 32.6831C67.3205 34.1553 67.0278 33.8876 68.5788 33.927C68.9123 33.9355 69.007 33.8004 68.997 33.4887C68.9797 32.9489 68.9925 32.4081 68.9928 31.775ZM72.7005 30.3481C72.67 29.8911 72.4098 29.6965 71.9689 29.7041C71.8149 29.7067 71.6596 29.7134 71.507 29.6976C71.1357 29.659 70.9847 29.7932 70.9966 30.1888C71.0221 31.0355 71.0042 31.8834 71.0043 32.7308C71.0043 33.9549 71.0042 33.9415 72.2317 33.9303C72.6069 33.9268 72.7098 33.7796 72.7055 33.4346C72.6929 32.4333 72.7013 31.4317 72.7005 30.3481ZM63.9247 33.9186C64.1408 33.9199 64.357 33.9224 64.5731 33.9224C65.3267 33.9223 65.3657 33.8871 65.3714 33.1085C65.3774 32.2902 65.3825 31.4717 65.3709 30.6535C65.356 29.5967 65.5862 29.7103 64.3564 29.7003C63.8889 29.6964 63.6692 29.9249 63.6652 30.3811C63.656 31.431 63.6595 32.4811 63.6598 33.531C63.6598 33.6847 63.6479 33.8495 63.9247 33.9186Z" fill="#EDD118"/>
<path d="M21.7697 43.9129C23.4511 45.5467 25.3709 46.6473 27.6824 47.0263C28.905 47.2268 29.4892 48.0249 29.6318 49.4321C29.7802 50.8965 29.6381 52.3252 29.2436 53.7341C29.0805 54.3165 29.3003 54.766 29.7125 55.1372C30.1394 55.5214 30.6372 55.6115 31.1728 55.3693C31.6907 55.135 31.9997 54.7419 32.0676 54.1688C32.1169 53.7522 31.9849 53.3813 31.8125 53.011C31.151 51.5897 30.8596 50.0904 30.8564 48.5245C30.8549 47.7825 31.1797 47.2642 31.8472 47.0043C32.8435 46.6164 33.7892 46.1364 34.7224 45.6193C35.3211 45.2876 35.6366 45.3667 36.1278 45.861C36.7989 46.5363 37.2768 47.3507 37.7678 48.1555C38.0172 48.5644 38.2738 48.9689 38.5211 49.379C38.6572 49.6047 38.7851 49.7296 39.0697 49.544C39.4286 49.3099 39.7761 49.3983 40.0725 49.7027C40.2018 49.8354 40.3378 49.9619 40.4733 50.0884C41.0171 50.5962 41.0175 50.5958 40.5417 51.1452C39.5703 52.2673 37.8859 52.2043 36.9814 50.9724C36.4981 50.3142 36.1003 49.5935 35.6609 48.9029C35.4628 48.5916 35.2574 48.2849 35.0362 47.9469C34.3866 48.2432 33.7555 48.5209 33.1343 48.8192C32.8808 48.9409 32.9499 49.1994 32.9873 49.3999C33.1685 50.3706 33.4025 51.3226 33.8126 52.2332C34.6246 54.0364 34.1952 55.8855 32.71 56.9604C31.5981 57.7651 30.3756 57.9062 29.121 57.3154C27.8531 56.7183 27.1673 55.6865 27.0733 54.2924C27.0218 53.5283 27.3373 52.8116 27.4674 52.0698C27.6154 51.2253 27.6655 50.388 27.5177 49.5418C27.4743 49.2933 27.3816 49.141 27.084 49.0972C26.4904 49.0097 25.9063 48.8547 25.344 48.64C25.1157 48.5529 24.9883 48.6 24.8399 48.7924C24.22 49.5956 23.8943 50.5176 23.6891 51.4948C23.3739 52.9962 22.147 54.1411 20.6645 54.1802C19.1284 54.2207 17.6544 53.127 17.5132 51.3414C17.4015 49.9293 18.0119 48.8852 19.3224 48.3651C20.3303 47.9651 20.4877 47.0407 20.8832 46.2467C20.9638 46.0851 20.8136 45.9952 20.7208 45.8977C20.2202 45.3717 19.6777 44.8846 19.2364 44.3037C19.0892 44.11 18.929 44.1005 18.7117 44.1931C17.9879 44.5016 17.3672 44.9532 16.8329 45.5226C16.2063 46.1904 15.4934 46.6924 14.5793 46.9022C12.7206 47.3288 10.8613 46.1715 10.4599 44.3113C10.0043 42.2 11.4034 40.3597 13.6908 40.0426C14.6854 39.9048 15.6544 39.6585 16.5945 39.2972C16.8715 39.1908 17.0057 39.0273 16.9402 38.7403C16.8078 38.1597 16.8525 37.5715 16.8579 36.9865C16.8607 36.694 16.7711 36.5313 16.4773 36.452C15.4341 36.1703 14.3791 35.9595 13.3042 35.842C12.4757 35.7514 11.6472 35.6555 10.928 35.1667C9.84924 34.4336 9.37214 33.0317 9.76741 31.7279C10.1744 30.3853 11.3437 29.4902 12.6608 29.4639C13.6124 29.4449 14.4052 29.7898 15.1077 30.3966C15.7875 30.9839 16.5639 31.3729 17.4427 31.5691C17.7458 31.6368 17.9422 31.5823 18.0684 31.2758C18.2211 30.9049 18.3931 30.5401 18.5836 30.1872C18.7131 29.9472 18.6568 29.8192 18.4508 29.6505C17.5907 28.9461 16.6865 28.2914 15.9048 27.4959C15.3823 26.9642 15.2909 26.2266 15.6504 25.624C15.7022 25.6426 15.7709 25.648 15.8115 25.6845C17.4306 27.1423 19.0719 28.5762 20.5122 30.2207C20.7835 30.5306 20.7956 30.7793 20.5765 31.12C20.2176 31.6782 19.9202 32.2717 19.6883 32.8986C19.3618 33.7811 18.9337 34.021 18.0112 33.8776C16.367 33.6219 14.8444 33.0978 13.5672 31.9698C13.0088 31.4767 12.4986 31.4802 12.0816 31.8969C11.8344 32.144 11.6549 32.4273 11.7651 32.808C11.8847 33.2212 12.1596 33.4726 12.5743 33.5438C13.5454 33.7104 14.5234 33.8387 15.4911 34.0217C16.262 34.1675 17.0294 34.3441 17.7847 34.5561C18.6851 34.8088 18.9385 35.1196 18.9266 36.0462C18.911 37.2547 19.0206 38.4463 19.2126 39.6363C19.2952 40.148 18.9884 40.485 18.5918 40.7386C17.6529 41.3389 16.5961 41.6318 15.5231 41.8669C14.9673 41.9887 14.3983 42.0495 13.8403 42.163C13.2009 42.2932 12.6746 42.5755 12.5105 43.283C12.3872 43.8145 12.5982 44.2315 12.9878 44.552C13.6206 45.0727 14.4475 44.9559 15.0964 44.2643C15.7345 43.5843 16.419 42.9678 17.2378 42.508C17.8354 42.1724 18.468 41.9494 19.1344 41.789C19.6576 41.6631 20.0409 41.8206 20.3609 42.2124C20.8197 42.7743 21.2208 43.3838 21.7697 43.9129ZM20.1311 50.3279C19.9559 50.4252 19.7863 50.5188 19.6961 50.721C19.5088 51.141 19.6414 51.4813 19.9587 51.7544C20.2886 52.0381 20.6676 52.1261 21.0658 51.8794C21.4514 51.6404 21.5876 51.2511 21.6776 50.8348C21.9004 49.8041 22.2383 48.8198 22.8355 47.9371C22.9147 47.8201 23.1507 47.6601 22.9064 47.529C22.6894 47.4126 22.6686 47.6903 22.5754 47.8088C22.5475 47.8442 22.5313 47.8901 22.5151 47.9332C22.0905 49.065 21.3164 49.8534 20.1311 50.3279Z" fill="#EDD118"/>
<path d="M41.9125 25.569C41.6481 25.9596 41.3472 26.2649 40.9848 26.5129C40.2661 27.0047 39.6653 27.6301 39.0499 28.2386C38.8928 28.394 38.8095 28.5258 38.9859 28.7479C39.6139 29.5386 40.0926 30.4239 40.5195 31.334C40.6711 31.6572 40.843 31.7093 41.1702 31.611C41.9883 31.3653 42.7567 31.0084 43.5229 30.6416C44.4946 30.1765 45.5053 29.932 46.5725 30.2207C48.183 30.6565 49.1438 32.2055 48.9165 33.9485C48.7166 35.4806 47.3223 36.6599 45.7085 36.6809C44.8583 36.6919 44.0157 36.5229 43.1646 36.5889C42.7957 36.6175 42.4264 36.6458 42.0594 36.6911C41.8414 36.718 41.6952 36.8271 41.6872 37.0825C41.653 38.1818 41.4337 39.2505 41.1382 40.3061C41.094 40.4639 41.0424 40.5997 41.2548 40.7337C41.9989 41.2035 42.7205 41.7089 43.4519 42.1988C43.606 42.302 43.7481 42.3873 43.9621 42.2965C44.4302 42.0979 44.9068 42.0755 45.2944 42.4683C45.6308 42.8091 45.6815 43.2508 45.5173 43.6763C45.3188 44.1907 44.95 44.5645 44.3732 44.6476C43.7237 44.7411 43.1649 44.5665 42.683 44.0928C41.5257 42.9549 40.3525 41.8331 39.1768 40.7142C38.9551 40.5033 38.9041 40.3019 39.0151 40.0148C39.4661 38.8474 39.621 37.6334 39.5873 36.3846C39.5624 35.4585 39.7946 35.1334 40.669 34.8431C42.0674 34.3787 43.5052 34.2874 44.9641 34.4535C45.5486 34.52 46.1282 34.5311 46.5044 33.9684C46.7691 33.5724 46.7702 33.1604 46.4646 32.7682C46.1484 32.3624 45.5349 32.1891 44.9923 32.399C44.3878 32.6329 43.8005 32.9109 43.1991 33.1531C42.31 33.5109 41.4047 33.8145 40.4401 33.896C39.7246 33.9564 39.2347 33.6714 38.9264 33.0067C38.4783 32.0402 38.0179 31.0787 37.3475 30.234C35.8058 28.2917 33.8583 26.9876 31.438 26.3985C30.3512 26.134 30.0698 25.7402 30.0232 24.6234C29.9634 23.1919 30.12 21.7922 30.5281 20.4174C30.6725 19.9311 30.7895 19.4364 30.7727 18.918C30.7484 18.1698 30.2798 17.6834 29.5219 17.6476C28.7664 17.612 28.1291 18.1251 28.0501 18.8294C28.0023 19.2551 28.1034 19.6541 28.2384 20.0536C28.6901 21.3906 28.9559 22.7637 28.967 24.1775C28.9699 24.5455 28.922 24.9178 28.8589 25.2814C28.7644 25.8251 28.504 26.1977 27.8871 26.2888C27.0647 26.4102 26.2437 26.5723 25.4631 26.8731C25.1736 26.9846 25.0221 26.8093 24.8636 26.6499C24.0791 25.8606 23.2998 25.0662 22.5236 24.2688C22.0924 23.8258 21.6731 23.3714 21.2443 22.926C20.7425 22.4047 20.6956 21.6604 21.1432 21.2371C21.5707 20.8328 22.2797 20.8845 22.7536 21.4096C23.4088 22.1356 23.8147 22.9962 23.9658 23.9673C24.02 24.3157 24.052 24.6676 24.0974 25.0454C24.4094 25.0324 24.6381 24.8207 24.9123 24.7436C25.209 24.6602 25.503 24.5654 25.8032 24.4974C26.7547 24.282 26.8121 24.1629 26.6556 23.1644C26.5094 22.2319 26.2396 21.3326 26.0134 20.421C25.6912 19.1222 25.7613 17.8882 26.5933 16.763C27.4488 15.6061 29.2612 15.0346 30.6796 15.504C32.0784 15.967 33.0365 17.3296 33.0668 18.8207C33.0829 19.613 32.8355 20.3376 32.6291 21.0788C32.3719 22.0024 32.1977 22.9373 32.2177 23.9043C32.2236 24.1908 32.286 24.3571 32.5872 24.4377C33.4847 24.6777 34.3511 25.0049 35.1541 25.4793C35.4003 25.6246 35.5455 25.5487 35.6818 25.3253C36.0627 24.7014 36.3398 24.0377 36.5452 23.3353C37.1723 21.1912 39.7228 20.3868 41.4193 21.7676C42.3816 22.5509 42.6864 24.4046 41.9125 25.569ZM37.809 26.0604C37.7304 26.2372 37.6518 26.414 37.5732 26.5907C38.3584 25.8975 39.0762 25.1404 39.9603 24.5639C40.2769 24.3575 40.2365 23.9566 40.0172 23.6463C39.796 23.3334 39.4923 23.2403 39.1248 23.4044C38.7961 23.5512 38.6545 23.8351 38.5598 24.1519C38.3698 24.7876 38.1435 25.4084 37.809 26.0604Z" fill="#EDD118"/>
<path d="M13.6211 17.0868C17.4036 20.8686 21.1706 24.6196 24.9204 28.3876C31.4077 34.9064 37.8841 41.4359 44.3659 47.9601C45.172 48.7715 45.9755 49.5859 46.7973 50.3812C47.0641 50.6394 47.1018 50.8048 46.8105 51.0892C46.2922 51.5951 45.8259 52.1543 45.3685 52.6576C39.7807 47.1079 34.3043 41.6689 28.7665 36.1688C28.0177 37.6138 26.9619 38.5082 25.3197 38.4733C24.2314 38.4502 23.3562 37.9735 22.6648 37.1585C21.8771 36.2299 21.6905 35.1478 21.9611 33.9844C22.2324 32.8179 22.9972 32.0496 24.0515 31.5634C24.0046 31.3036 23.8233 31.1928 23.6862 31.0549C19.1398 26.4858 14.5912 21.9189 10.0428 17.3517C9.55561 16.8625 9.55309 16.86 10.0202 16.3857C10.4106 15.9893 10.8146 15.6062 11.1993 15.2045C11.4093 14.9853 11.5616 15.0028 11.7694 15.2198C12.368 15.8449 12.9869 16.4505 13.6211 17.0868ZM24.1045 34.4745C24.0898 34.6428 24.0548 34.8122 24.0639 34.9791C24.0983 35.6115 24.4887 35.9893 25.0284 36.2238C25.5353 36.444 25.9697 36.2396 26.33 35.887C26.7345 35.4912 26.9064 35.0111 26.6888 34.453C26.4817 33.9219 26.106 33.5695 25.5231 33.5325C24.8659 33.4907 24.4037 33.8088 24.1045 34.4745Z" fill="#EDD118"/>
<path d="M29.1744 39.316C30.4597 39.6474 31.2677 40.3809 31.5073 41.6927C31.7623 43.0888 30.849 44.5722 29.4397 44.9931C28.0816 45.3988 26.5405 44.6547 26.0472 43.2978C25.4307 41.6022 26.1252 39.8915 27.9369 39.3611C28.331 39.2457 28.7344 39.3223 29.1744 39.316ZM28.6162 41.4766C28.0917 41.5773 27.8499 41.8731 27.9331 42.3119C28.0069 42.7004 28.4479 43.0541 28.7906 42.9995C29.1689 42.9393 29.4417 42.5498 29.3699 42.1344C29.3053 41.76 29.0601 41.5493 28.6162 41.4766Z" fill="#EDD118"/>
<path d="M31.513 30.2083C33.0256 30.1363 34.1246 31.1852 34.0796 32.6206C34.0608 33.2194 33.7125 33.6578 33.2171 33.7061C32.5601 33.7701 32.1143 33.4544 31.9729 32.8171C31.9235 32.5945 31.8664 32.4311 31.5765 32.4013C30.964 32.3383 30.5096 31.8587 30.4985 31.328C30.4876 30.8011 30.8767 30.3563 31.513 30.2083Z" fill="#EDD118"/>
<path d="M53.6592 63.2344C52.1765 61.7427 50.7114 60.2785 49.259 58.802C48.5857 58.1175 48.5946 57.5856 49.2495 56.8871C49.3446 56.7857 49.4418 56.6861 49.5398 56.5874C50.1997 55.9226 50.8509 55.9226 51.5068 56.5829C53.0427 58.1289 54.5794 59.6742 56.1177 61.2179C56.2357 61.3364 56.3371 61.4788 56.5093 61.5407C56.7057 61.4956 56.8034 61.3242 56.9298 61.1966C58.4521 59.6588 59.9694 58.1163 61.4898 56.5767C62.2024 55.8551 62.8887 55.8815 63.5404 56.6504C64.5216 57.8081 64.51 57.9564 63.4247 59.0494C61.9655 60.5188 60.5132 61.9951 59.0593 63.4697C58.9631 63.5673 58.8785 63.6762 58.7603 63.8122C59.1995 64.2669 59.6215 64.7126 60.0531 65.1487C61.2708 66.3793 62.4927 67.6057 63.7126 68.8342C64.4687 69.5957 64.4694 69.9544 63.717 70.7369C63.6313 70.826 63.5436 70.9133 63.4549 70.9994C62.6321 71.7973 62.2001 71.7996 61.3835 70.9728C59.8522 69.4222 58.3303 67.8623 56.8062 66.3047C56.7202 66.2167 56.6493 66.1141 56.5945 66.0468C56.3189 66.0657 56.224 66.2445 56.1 66.37C54.6116 67.8757 53.1278 69.3861 51.6422 70.8947C51.5446 70.9937 51.4456 71.0918 51.3412 71.1836C50.6535 71.7883 50.2485 71.7732 49.5923 71.121C49.4279 70.9575 49.26 70.7972 49.1014 70.6282C48.6223 70.118 48.6185 69.569 49.1029 69.0725C50.6244 67.5128 52.149 65.956 53.6758 64.4015C54.2409 63.8261 54.2452 63.8303 53.6592 63.2344Z" fill="#EDD118"/>
</svg>
