<svg width="110" height="110" viewBox="0 0 110 110" fill="none" xmlns="http://www.w3.org/2000/svg">
<g clip-path="url(#clip0_22_202)">
<circle cx="55" cy="55" r="55" fill="white"/>
<path d="M81.1501 46.9514C81.5155 48.7864 81.846 50.5885 82.2296 52.3791C82.9679 55.8253 83.6181 59.2881 84.2483 62.755C84.4547 63.8905 84.6566 65.0269 84.8533 66.1641C84.8847 66.3452 84.8872 66.5329 84.8872 66.7176C84.889 73.2109 84.8911 79.7042 84.8879 86.1976C84.8865 88.9044 82.5983 91.2064 79.8953 91.2086C72.8454 91.2141 65.7955 91.2249 58.7457 91.2022C55.8213 91.1928 53.7233 89.0169 53.6516 86.3267C53.6367 85.768 53.4462 85.3554 52.9836 84.9557C50.3657 82.694 48.7584 79.8381 48.1764 76.4186C47.7527 73.9286 47.8035 71.4519 48.7337 69.0864C50.1262 65.5452 52.4038 62.7381 55.8824 61.0273C56.9821 60.4865 58.1666 60.1846 59.3492 59.8888C59.5369 59.8419 59.711 59.7792 59.8434 59.6535C61.19 58.3754 62.7944 57.4675 64.3603 56.5063C65.4963 55.8091 66.3022 54.8678 66.5225 53.5314C66.725 52.3024 66.8399 51.0594 67.0152 49.8256C67.2337 48.2877 67.326 46.7331 67.636 45.2068C67.6904 44.9392 67.6617 44.6536 67.6621 44.3763C67.6641 42.9694 67.6655 41.5625 67.6618 40.1556C67.6604 39.6107 67.7966 39.1169 68.1692 38.7073C68.3117 38.5505 68.3587 38.3964 68.234 38.2086C67.74 37.4646 67.2478 36.7193 66.7146 35.9135C66.2191 37.023 65.8001 38.0791 65.2189 39.0582C63.9349 41.2214 62.322 43.0615 60.0919 44.2926C59.5247 44.6057 58.9353 44.893 58.248 44.7279C57.457 44.5379 56.956 43.6969 57.1572 42.9081C57.3884 42.0017 58.0056 41.3024 58.4502 40.5125C59.7513 38.2011 60.8533 35.8119 61.4875 33.2248C61.5021 33.1651 61.5225 33.1065 61.534 33.0462C61.634 32.5226 61.6074 32.4869 61.0793 32.4862C60.0125 32.4848 58.9456 32.4967 57.879 32.4844C57.3723 32.4785 56.8623 32.5474 56.3589 32.4011C55.5562 32.1678 55.0518 31.5415 55.0476 30.7046C55.0405 29.2978 55.0391 27.8908 55.0489 26.484C55.0559 25.4796 55.7436 24.811 56.7512 24.8108C63.4764 24.8097 70.2017 24.794 76.9268 24.8173C79.9771 24.8279 82.2842 26.2158 83.8271 28.8315C84.5408 30.0414 85.1652 31.3039 85.832 32.5415C86.1257 33.0867 86.2987 33.6571 86.144 34.2766C85.9255 35.1519 85.327 35.5922 84.221 35.7268C83.3334 35.8349 82.4475 35.9694 81.5888 36.2168C80.6097 36.4989 79.786 37.0159 79.3 37.9533C79.3186 37.9935 79.3244 38.0371 79.3445 38.0452C80.3489 38.4485 80.6894 39.2491 80.6762 40.2625C80.662 41.3591 80.7027 42.4601 80.6176 43.5512C80.526 44.726 80.9336 45.7985 81.1501 46.9514ZM79.7868 89.2298C81.7924 89.0807 82.9685 87.8191 82.9691 85.8071C82.9707 80.2567 82.9361 74.706 82.9878 69.156C83.0061 67.1951 82.7596 65.2835 82.3806 63.3765C81.7625 60.2671 81.2345 57.1404 80.5606 54.0415C80.0111 51.515 79.5008 48.9798 78.9869 46.4457C78.9096 46.0645 78.7562 45.9228 78.3437 45.9257C75.5763 45.9455 72.8087 45.9445 70.0414 45.9246C69.6295 45.9216 69.4536 46.0615 69.405 46.4481C69.1267 48.6627 68.8264 50.8746 68.5653 53.0911C68.3043 55.3075 67.3549 57.0845 65.4094 58.2671C64.7437 58.6718 64.0889 59.0944 63.3696 59.5462C71.5849 59.9767 78.1457 67.3881 76.887 76.0263C76.298 80.069 74.3138 83.3957 70.9661 85.7249C66.1797 89.0552 61.051 89.2332 55.7909 86.8442C55.7147 87.1028 55.8036 87.2882 55.8915 87.4659C56.5511 88.7996 57.7124 89.2287 59.1038 89.2291C65.9683 89.2309 72.8329 89.231 79.7868 89.2298ZM73.5254 79.8964C74.6306 77.8829 75.0452 75.7169 74.9969 73.4361C74.9513 71.2842 74.4365 69.2622 73.2016 67.4993C70.0847 63.0496 65.8738 60.8843 60.3856 61.7188C57.2625 62.1937 54.6618 63.7037 52.6657 66.1778C50.6507 68.6751 49.736 71.5174 49.9863 74.7413C50.1097 76.3297 50.4497 77.8507 51.1106 79.2918C53.3982 84.2802 58.9478 87.1771 64.4545 86.2359C68.4444 85.5539 71.4435 83.4348 73.5254 79.8964ZM75.1626 37.7065C75.5799 37.7065 76.0007 37.6728 76.4136 37.7153C76.8977 37.7651 77.1695 37.573 77.4015 37.1572C78.1719 35.7764 79.3246 34.8484 80.8354 34.3598C81.72 34.0738 82.6365 33.9615 83.5453 33.8019C83.8352 33.751 84.1234 33.6795 83.91 33.2703C83.1471 31.8068 82.5179 30.2609 81.4865 28.9574C80.5081 27.721 79.2009 26.8727 77.6167 26.849C72.5949 26.7739 67.5715 26.8105 62.5487 26.7931C62.1546 26.7918 62.0514 26.9448 62.0582 27.3153C62.0749 28.2266 62.0649 29.1389 62.0454 30.0503C62.038 30.3944 62.1488 30.5261 62.5106 30.5759C64.6619 30.8721 66.4316 31.796 67.6233 33.6961C68.37 34.8868 69.1929 36.0295 69.957 37.2096C70.1918 37.5722 70.4534 37.7264 70.8971 37.7172C72.2875 37.6882 73.6789 37.7065 75.1626 37.7065ZM63.5244 33.429C62.8601 36.4424 61.6015 39.2192 60.0232 42.003C60.5011 41.723 60.7966 41.4507 61.0808 41.1698C62.8523 39.4192 64.0172 37.3002 64.8519 34.9757C65.2713 33.8077 65.1889 33.596 64.0381 33.0916C63.721 32.9526 63.572 33.0216 63.5244 33.429ZM59.2849 30.4712C60.0549 30.4697 60.0555 30.4697 60.0563 29.6817C60.0571 28.8636 60.0457 28.0454 60.0618 27.2277C60.0682 26.9042 59.9452 26.788 59.6299 26.7925C58.8738 26.8031 58.1174 26.8006 57.3612 26.7903C57.0572 26.7862 56.9589 26.9217 56.962 27.2122C56.9722 28.1536 56.9738 29.0953 56.961 30.0366C56.9567 30.3523 57.0657 30.4835 57.39 30.4751C57.9916 30.4596 58.5938 30.471 59.2849 30.4712ZM74.9928 41.7749C74.9927 41.497 74.9928 41.2191 74.9926 40.9412C74.9917 39.6498 74.992 39.6599 73.7106 39.6933C73.3819 39.7019 73.2838 39.8237 73.2889 40.1357C73.303 40.9846 73.2832 41.8341 73.2968 42.683C73.3205 44.1552 73.0278 43.8876 74.5788 43.9269C74.9123 43.9354 75.007 43.8004 74.997 43.4886C74.9797 42.9488 74.9925 42.4081 74.9928 41.7749ZM78.7005 40.3481C78.67 39.891 78.4098 39.6964 77.9689 39.704C77.8149 39.7067 77.6596 39.7134 77.507 39.6975C77.1357 39.6589 76.9847 39.7932 76.9966 40.1888C77.0221 41.0354 77.0042 41.8834 77.0043 42.7308C77.0043 43.9548 77.0042 43.9414 78.2317 43.9302C78.6069 43.9268 78.7098 43.7796 78.7055 43.4345C78.6929 42.4332 78.7013 41.4316 78.7005 40.3481ZM69.9247 43.9186C70.1408 43.9199 70.357 43.9223 70.5731 43.9223C71.3267 43.9222 71.3657 43.8871 71.3714 43.1085C71.3774 42.2902 71.3825 41.4716 71.3709 40.6534C71.356 39.5966 71.5862 39.7102 70.3564 39.7002C69.8889 39.6964 69.6692 39.9248 69.6652 40.3811C69.656 41.431 69.6595 42.481 69.6598 43.531C69.6598 43.6846 69.6479 43.8495 69.9247 43.9186Z" fill="black"/>
<path d="M27.7697 53.9129C29.4511 55.5468 31.3709 56.6474 33.6824 57.0264C34.905 57.2269 35.4892 58.0249 35.6318 59.4321C35.7802 60.8965 35.6381 62.3253 35.2436 63.7342C35.0805 64.3166 35.3003 64.7661 35.7125 65.1372C36.1394 65.5215 36.6372 65.6116 37.1728 65.3693C37.6907 65.1351 37.9997 64.7419 38.0676 64.1688C38.1169 63.7523 37.9849 63.3813 37.8125 63.0111C37.151 61.5897 36.8596 60.0905 36.8564 58.5246C36.8549 57.7825 37.1797 57.2643 37.8472 57.0044C38.8435 56.6164 39.7892 56.1364 40.7224 55.6194C41.3211 55.2876 41.6366 55.3668 42.1278 55.861C42.7989 56.5364 43.2768 57.3508 43.7678 58.1556C44.0172 58.5644 44.2738 58.9689 44.5211 59.3791C44.6572 59.6048 44.7851 59.7297 45.0697 59.5441C45.4286 59.3099 45.7761 59.3983 46.0725 59.7027C46.2018 59.8355 46.3378 59.9619 46.4733 60.0885C47.0171 60.5962 47.0175 60.5958 46.5417 61.1453C45.5703 62.2674 43.8859 62.2044 42.9814 60.9724C42.4981 60.3143 42.1003 59.5935 41.6609 58.9029C41.4628 58.5916 41.2574 58.285 41.0362 57.947C40.3866 58.2433 39.7555 58.521 39.1343 58.8192C38.8808 58.941 38.9499 59.1994 38.9873 59.4C39.1685 60.3707 39.4025 61.3226 39.8126 62.2333C40.6246 64.0365 40.1952 65.8855 38.71 66.9604C37.5981 67.7651 36.3756 67.9063 35.121 67.3155C33.8531 66.7184 33.1673 65.6866 33.0733 64.2925C33.0218 63.5283 33.3373 62.8116 33.4674 62.0699C33.6154 61.2254 33.6655 60.3881 33.5177 59.5418C33.4743 59.2934 33.3816 59.141 33.084 59.0972C32.4904 59.0098 31.9063 58.8547 31.344 58.6401C31.1157 58.5529 30.9883 58.6001 30.8399 58.7924C30.22 59.5956 29.8943 60.5177 29.6891 61.4949C29.3739 62.9963 28.147 64.1412 26.6645 64.1803C25.1284 64.2208 23.6544 63.127 23.5132 61.3415C23.4015 59.9294 24.0119 58.8853 25.3224 58.3652C26.3303 57.9652 26.4877 57.0407 26.8832 56.2468C26.9638 56.0852 26.8136 55.9953 26.7208 55.8978C26.2202 55.3718 25.6777 54.8846 25.2364 54.3038C25.0892 54.11 24.929 54.1006 24.7117 54.1932C23.9879 54.5016 23.3672 54.9532 22.8329 55.5226C22.2063 56.1905 21.4934 56.6924 20.5793 56.9023C18.7206 57.3289 16.8613 56.1715 16.4599 54.3114C16.0043 52.2001 17.4034 50.3598 19.6908 50.0427C20.6854 49.9048 21.6544 49.6586 22.5945 49.2973C22.8715 49.1909 23.0057 49.0274 22.9402 48.7404C22.8078 48.1597 22.8525 47.5716 22.8579 46.9865C22.8607 46.6941 22.7711 46.5314 22.4773 46.452C21.4341 46.1703 20.3791 45.9596 19.3042 45.8421C18.4757 45.7515 17.6472 45.6556 16.928 45.1668C15.8492 44.4336 15.3721 43.0318 15.7674 41.728C16.1744 40.3854 17.3437 39.4903 18.6608 39.464C19.6124 39.445 20.4052 39.7899 21.1077 40.3967C21.7875 40.984 22.5639 41.373 23.4427 41.5692C23.7458 41.6368 23.9422 41.5824 24.0684 41.2759C24.2211 40.905 24.3931 40.5402 24.5836 40.1872C24.7131 39.9473 24.6568 39.8192 24.4508 39.6506C23.5907 38.9462 22.6865 38.2914 21.9048 37.496C21.3823 36.9643 21.2909 36.2266 21.6504 35.6241C21.7022 35.6427 21.7709 35.648 21.8115 35.6846C23.4306 37.1423 25.0719 38.5763 26.5122 40.2208C26.7835 40.5306 26.7956 40.7794 26.5765 41.1201C26.2176 41.6783 25.9202 42.2718 25.6883 42.8986C25.3618 43.7812 24.9337 44.0211 24.0112 43.8776C22.367 43.6219 20.8444 43.0978 19.5672 41.9698C19.0088 41.4768 18.4986 41.4803 18.0816 41.8969C17.8344 42.144 17.6549 42.4273 17.7651 42.8081C17.8847 43.2212 18.1596 43.4727 18.5743 43.5438C19.5454 43.7104 20.5234 43.8388 21.4911 44.0218C22.262 44.1675 23.0294 44.3442 23.7847 44.5561C24.6851 44.8089 24.9385 45.1196 24.9266 46.0462C24.911 47.2548 25.0206 48.4464 25.2126 49.6363C25.2952 50.1481 24.9884 50.4851 24.5918 50.7387C23.6529 51.339 22.5961 51.6319 21.5231 51.8669C20.9673 51.9887 20.3983 52.0495 19.8403 52.1631C19.2009 52.2933 18.6746 52.5756 18.5105 53.2831C18.3872 53.8146 18.5982 54.2316 18.9878 54.5521C19.6206 55.0727 20.4475 54.956 21.0964 54.2644C21.7345 53.5843 22.419 52.9679 23.2378 52.5081C23.8354 52.1724 24.468 51.9495 25.1344 51.7891C25.6576 51.6631 26.0409 51.8207 26.3609 52.2125C26.8197 52.7743 27.2208 53.3838 27.7697 53.9129ZM26.1311 60.328C25.9559 60.4252 25.7863 60.5188 25.6961 60.721C25.5088 61.141 25.6414 61.4814 25.9587 61.7544C26.2886 62.0382 26.6676 62.1261 27.0658 61.8794C27.4514 61.6405 27.5876 61.2511 27.6776 60.8349C27.9004 59.8041 28.2383 58.8199 28.8355 57.9371C28.9147 57.8201 29.1507 57.6602 28.9064 57.5291C28.6894 57.4127 28.6686 57.6903 28.5754 57.8088C28.5475 57.8442 28.5313 57.8901 28.5151 57.9332C28.0905 59.0651 27.3164 59.8535 26.1311 60.328Z" fill="black"/>
<path d="M47.9125 35.5691C47.6481 35.9596 47.3472 36.265 46.9848 36.5129C46.2661 37.0047 45.6653 37.6301 45.0499 38.2387C44.8928 38.3941 44.8095 38.5259 44.9859 38.748C45.6139 39.5387 46.0926 40.4239 46.5195 41.334C46.6711 41.6573 46.843 41.7094 47.1702 41.6111C47.9883 41.3654 48.7567 41.0085 49.5229 40.6417C50.4946 40.1765 51.5053 39.9321 52.5725 40.2208C54.183 40.6565 55.1438 42.2055 54.9165 43.9485C54.7166 45.4806 53.3223 46.66 51.7085 46.681C50.8583 46.692 50.0157 46.523 49.1646 46.5889C48.7957 46.6175 48.4264 46.6458 48.0594 46.6911C47.8414 46.718 47.6952 46.8272 47.6872 47.0826C47.653 48.1819 47.4337 49.2506 47.1382 50.3062C47.094 50.464 47.0424 50.5997 47.2548 50.7338C47.9989 51.2036 48.7205 51.709 49.4519 52.1989C49.606 52.3021 49.7481 52.3874 49.9621 52.2965C50.4302 52.0979 50.9068 52.0755 51.2944 52.4683C51.6308 52.8092 51.6815 53.2509 51.5173 53.6764C51.3188 54.1908 50.95 54.5645 50.3732 54.6476C49.7237 54.7412 49.1649 54.5666 48.683 54.0928C47.5257 52.955 46.3525 51.8331 45.1768 50.7143C44.9551 50.5033 44.9041 50.302 45.0151 50.0149C45.4661 48.8475 45.621 47.6335 45.5873 46.3846C45.5624 45.4586 45.7946 45.1334 46.669 44.8431C48.0674 44.3788 49.5052 44.2875 50.9641 44.4535C51.5486 44.5201 52.1282 44.5312 52.5044 43.9685C52.7691 43.5725 52.7702 43.1604 52.4646 42.7683C52.1484 42.3625 51.5349 42.1892 50.9923 42.3991C50.3878 42.6329 49.8005 42.911 49.1991 43.1531C48.31 43.511 47.4047 43.8145 46.4401 43.896C45.7246 43.9565 45.2347 43.6715 44.9264 43.0068C44.4783 42.0403 44.0179 41.0787 43.3475 40.2341C41.8058 38.2917 39.8583 36.9877 37.438 36.3986C36.3512 36.1341 36.0698 35.7402 36.0232 34.6235C35.9634 33.1919 36.12 31.7923 36.5281 30.4175C36.6725 29.9311 36.7895 29.4365 36.7727 28.9181C36.7484 28.1699 36.2798 27.6834 35.5219 27.6477C34.7664 27.6121 34.1291 28.1251 34.0501 28.8295C34.0023 29.2552 34.1034 29.6542 34.2384 30.0536C34.6901 31.3906 34.9559 32.7638 34.967 34.1776C34.9699 34.5455 34.922 34.9178 34.8589 35.2814C34.7644 35.8252 34.504 36.1977 33.8871 36.2888C33.0647 36.4103 32.2437 36.5724 31.4631 36.8732C31.1736 36.9847 31.0221 36.8094 30.8636 36.6499C30.0791 35.8606 29.2998 35.0662 28.5236 34.2688C28.0924 33.8259 27.6731 33.3714 27.2443 32.9261C26.7425 32.4048 26.6956 31.6605 27.1432 31.2372C27.5707 30.8329 28.2797 30.8845 28.7536 31.4096C29.4088 32.1356 29.8147 32.9963 29.9658 33.9674C30.02 34.3158 30.052 34.6677 30.0974 35.0455C30.4094 35.0325 30.6381 34.8207 30.9123 34.7437C31.209 34.6603 31.503 34.5655 31.8032 34.4975C32.7547 34.282 32.8121 34.163 32.6556 33.1645C32.5094 32.232 32.2396 31.3327 32.0134 30.4211C31.6912 29.1222 31.7613 27.8883 32.5933 26.763C33.4488 25.6061 35.2612 25.0347 36.6796 25.5041C38.0784 25.967 39.0365 27.3297 39.0668 28.8207C39.0829 29.6131 38.8355 30.3377 38.6291 31.0788C38.3719 32.0025 38.1977 32.9374 38.2177 33.9044C38.2236 34.1909 38.286 34.3572 38.5872 34.4377C39.4847 34.6777 40.3511 35.0049 41.1541 35.4793C41.4003 35.6247 41.5455 35.5487 41.6818 35.3254C42.0627 34.7015 42.3398 34.0377 42.5452 33.3353C43.1723 31.1912 45.7228 30.3868 47.4193 31.7677C48.3816 32.551 48.6864 34.4046 47.9125 35.5691ZM43.809 36.0604C43.7304 36.2372 43.6518 36.414 43.5732 36.5908C44.3584 35.8976 45.0762 35.1405 45.9603 34.564C46.2769 34.3576 46.2365 33.9566 46.0172 33.6464C45.796 33.3334 45.4923 33.2403 45.1248 33.4044C44.7961 33.5512 44.6545 33.8352 44.5598 34.152C44.3698 34.7877 44.1435 35.4085 43.809 36.0604Z" fill="black"/>
<path d="M19.6211 27.0869C23.4036 30.8687 27.1706 34.6197 30.9204 38.3877C37.4077 44.9064 43.8841 51.436 50.3659 57.9601C51.172 58.7715 51.9755 59.5859 52.7973 60.3812C53.0641 60.6395 53.1018 60.8049 52.8105 61.0893C52.2922 61.5952 51.8259 62.1544 51.3685 62.6576C45.7807 57.108 40.3043 51.6689 34.7665 46.1689C34.0177 47.6139 32.9619 48.5083 31.3197 48.4734C30.2314 48.4503 29.3562 47.9736 28.6648 47.1586C27.8771 46.23 27.6905 45.1478 27.9611 43.9844C28.2324 42.8179 28.9972 42.0497 30.0515 41.5635C30.0046 41.3036 29.8233 41.1928 29.6862 41.055C25.1398 36.4859 20.5912 31.919 16.0428 27.3518C15.5556 26.8625 15.5531 26.86 16.0202 26.3857C16.4106 25.9894 16.8146 25.6062 17.1993 25.2046C17.4093 24.9854 17.5616 25.0028 17.7694 25.2199C18.368 25.8449 18.9869 26.4505 19.6211 27.0869ZM30.1045 44.4746C30.0898 44.6429 30.0548 44.8122 30.0639 44.9792C30.0983 45.6116 30.4887 45.9894 31.0284 46.2239C31.5353 46.4441 31.9697 46.2397 32.33 45.887C32.7345 45.4912 32.9064 45.0112 32.6888 44.4531C32.4817 43.922 32.106 43.5696 31.5231 43.5325C30.8659 43.4907 30.4037 43.8089 30.1045 44.4746Z" fill="black"/>
<path d="M35.1744 49.3161C36.4597 49.6475 37.2677 50.381 37.5073 51.6928C37.7623 53.0888 36.849 54.5722 35.4397 54.9932C34.0816 55.3988 32.5405 54.6548 32.0472 53.2979C31.4307 51.6022 32.1252 49.8916 33.9369 49.3612C34.331 49.2458 34.7344 49.3224 35.1744 49.3161ZM34.6162 51.4767C34.0917 51.5774 33.8499 51.8732 33.9331 52.312C34.0069 52.7005 34.4479 53.0541 34.7906 52.9996C35.1689 52.9393 35.4417 52.5498 35.3699 52.1344C35.3053 51.7601 35.0601 51.5494 34.6162 51.4767Z" fill="black"/>
<path d="M37.513 40.2084C39.0256 40.1363 40.1246 41.1853 40.0796 42.6206C40.0608 43.2195 39.7125 43.6579 39.2171 43.7061C38.5601 43.7701 38.1143 43.4545 37.9729 42.8171C37.9235 42.5946 37.8664 42.4311 37.5765 42.4013C36.964 42.3384 36.5096 41.8588 36.4985 41.328C36.4876 40.8012 36.8767 40.3564 37.513 40.2084Z" fill="black"/>
<path d="M59.6592 73.2344C58.1765 71.7427 56.7114 70.2786 55.259 68.802C54.5857 68.1175 54.5946 67.5857 55.2495 66.8872C55.3446 66.7857 55.4418 66.6861 55.5398 66.5874C56.1997 65.9227 56.8509 65.9227 57.5068 66.5829C59.0427 68.129 60.5794 69.6742 62.1177 71.218C62.2357 71.3364 62.3371 71.4789 62.5093 71.5407C62.7057 71.4957 62.8034 71.3243 62.9298 71.1966C64.4521 69.6589 65.9694 68.1163 67.4898 66.5767C68.2024 65.8551 68.8887 65.8815 69.5404 66.6505C70.5216 67.8082 70.51 67.9565 69.4247 69.0494C67.9655 70.5189 66.5132 71.9951 65.0593 73.4698C64.9631 73.5673 64.8785 73.6762 64.7603 73.8123C65.1995 74.2669 65.6215 74.7127 66.0531 75.1488C67.2708 76.3794 68.4927 77.6058 69.7126 78.8343C70.4687 79.5957 70.4694 79.9545 69.717 80.737C69.6313 80.8261 69.5436 80.9134 69.4549 80.9994C68.6321 81.7974 68.2001 81.7997 67.3835 80.9729C65.8522 79.4223 64.3303 77.8624 62.8062 76.3047C62.7202 76.2168 62.6493 76.1141 62.5945 76.0468C62.3189 76.0658 62.224 76.2446 62.1 76.37C60.6116 77.8758 59.1278 79.3862 57.6422 80.8947C57.5446 80.9938 57.4456 81.0919 57.3412 81.1837C56.6535 81.7883 56.2485 81.7732 55.5923 81.121C55.4279 80.9576 55.26 80.7972 55.1014 80.6283C54.6223 80.1181 54.6185 79.569 55.1029 79.0726C56.6244 77.5128 58.149 75.9561 59.6758 74.4015C60.2409 73.8261 60.2452 73.8304 59.6592 73.2344Z" fill="black"/>
</g>
<defs>
<clipPath id="clip0_22_202">
<rect width="110" height="110" fill="white"/>
</clipPath>
</defs>
</svg>
