<svg width="30" height="35" viewBox="0 0 30 35" fill="none" xmlns="http://www.w3.org/2000/svg">
<path d="M7.056 34V3.28L10.416 6.64H0.336V0.399998H14.832V34H7.056ZM25.0849 34.384C23.8049 34.384 22.7009 33.952 21.7729 33.088C20.8769 32.192 20.4289 31.056 20.4289 29.68C20.4289 28.304 20.8769 27.2 21.7729 26.368C22.7009 25.504 23.8049 25.072 25.0849 25.072C26.3969 25.072 27.5009 25.504 28.3969 26.368C29.2929 27.2 29.7409 28.304 29.7409 29.68C29.7409 31.056 29.2929 32.192 28.3969 33.088C27.5009 33.952 26.3969 34.384 25.0849 34.384Z" fill="#EDD118"/>
</svg>
