<svg width="41" height="41" viewBox="0 0 41 41" fill="none" xmlns="http://www.w3.org/2000/svg">
<path d="M17.1475 9.08171L18.2562 11.0684C19.2568 12.8612 18.8551 15.2132 17.2792 16.7891C17.2792 16.7891 15.3677 18.7006 18.8335 22.1664C22.2992 25.6321 24.2108 23.7206 24.2108 23.7206C25.7867 22.1447 28.1386 21.7431 29.9315 22.7436L31.9181 23.8524C34.6254 25.3632 34.9451 29.1599 32.5655 31.5395C31.1356 32.9694 29.3839 34.082 27.4476 34.1554C24.1878 34.279 18.652 33.454 13.0989 27.9009C7.54584 22.3479 6.72087 16.812 6.84444 13.5523C6.91785 11.6159 8.03046 9.86424 9.46034 8.43436C11.84 6.05473 15.6366 6.37446 17.1475 9.08171Z" stroke="#EDD118" stroke-width="1.5" stroke-linecap="round"/>
</svg>
