<svg width="127" height="126" viewBox="0 0 127 126" fill="none" xmlns="http://www.w3.org/2000/svg">
<circle cx="64" cy="63" r="63" fill="white"/>
<path d="M29.9761 29.5289C36.1667 29.5275 42.1337 29.5383 48.1005 29.5185C50.294 29.5113 52.3086 29.7209 53.1312 32.2665C53.379 33.0333 54.1026 33.0523 54.8144 33.0518C62.4215 33.0464 70.0287 33.067 77.6358 33.0563C78.2171 33.0555 78.941 33.0587 79.3562 32.7405C81.9662 30.7402 84.9194 31.4449 87.774 31.6044C89.6024 31.7066 90.5643 32.8538 90.5537 34.7464C90.5436 36.5451 90.5623 38.344 90.5472 40.1427C90.5304 42.1395 89.4932 43.3211 87.5287 43.2491C84.7672 43.1478 81.852 44.0632 79.301 42.1154C78.9031 41.8115 78.144 41.9453 77.5518 41.9446C70.2423 41.9363 62.9326 41.966 55.6234 41.9188C54.2678 41.91 53.3863 42.1693 52.9932 43.6574C52.5912 45.1792 51.4266 45.9879 49.8388 46.0622C47.979 46.1491 46.1139 46.3044 44.2578 46.2384C42.2165 46.1657 41.4347 47.2171 41.3152 49.0553C41.2172 50.5632 41.2581 52.0329 42.0537 53.412C42.6704 54.481 43.2217 55.7948 41.7801 56.5378C40.2027 57.3509 39.4986 55.9742 38.9309 54.8318C37.7173 52.3898 37.578 49.8119 38.1635 47.1702C38.2224 46.9047 38.1714 46.6146 38.1714 46.3459C37.0245 46.071 36.7641 46.8965 36.4125 47.5065C34.5067 50.8128 32.6627 54.1558 30.716 57.4373C30.1459 58.3983 30.267 59.2222 30.5606 60.1968C31.64 63.7811 30.2159 65.7467 26.5727 65.7981C23.4223 65.8426 23.4192 65.8426 23.4182 69.0654C23.416 76.5604 23.4147 84.0554 23.4208 91.5504C23.4213 92.2228 23.367 92.9239 23.5308 93.5617C23.8981 94.9927 24.8076 96.0878 26.3494 95.9517C27.8972 95.8151 28.9479 94.8368 28.9589 93.1175C28.9828 89.3702 28.9833 85.6227 28.9851 81.8753C28.988 75.9439 31.2092 73.6812 37.0513 73.6708C37.5734 73.6699 38.0956 73.6771 38.6176 73.6689C40.4062 73.6409 42.3355 74.0223 43.947 73.4696C45.882 72.8059 45.1191 70.363 45.8718 68.8049C47.2475 65.9573 49.0309 63.5335 51.7777 61.9563C53.1065 61.1933 53.6651 60.2194 53.5815 58.6817C53.48 56.8138 53.5063 54.9332 53.5834 53.0625C53.7005 50.2211 55.4625 48.4439 58.2586 48.4001C61.987 48.3417 65.718 48.3333 69.4459 48.4051C72.1762 48.4577 73.8507 50.2084 73.9845 52.9358C73.9992 53.235 74.015 53.5377 73.9878 53.8348C73.6173 57.8762 73.8944 61.291 78.0738 63.8398C81.6781 66.0378 82.7658 70.2725 82.8614 74.4866C82.9515 78.4569 82.9837 82.4343 82.8461 86.4018C82.7758 88.4293 83.51 89.1532 85.431 88.8933C85.8703 88.8339 86.3254 88.8743 86.7722 88.8922C89.4646 89 90.9165 90.3998 90.9686 93.1026C91.0293 96.2494 90.9834 99.3982 90.9828 102.546C90.9819 107.507 90.0113 108.503 85.1566 108.503C71.8055 108.505 58.4545 108.504 45.1035 108.504C43.7609 108.504 42.4174 108.53 41.076 108.489C38.1806 108.4 36.6806 106.956 36.6205 104.009C36.5472 100.413 36.5411 96.8118 36.6397 93.2169C36.7212 90.2445 38.1824 88.9438 41.1841 88.8888C44.7255 88.8239 44.725 88.8239 44.7304 85.3534C44.7338 83.1799 44.7192 81.0061 44.7505 78.8329C44.768 77.6157 44.2535 77.0477 43.0153 77.0647C40.7036 77.0963 38.3893 77.0131 36.0795 77.0862C33.5052 77.1678 32.4353 78.2475 32.3926 80.8715C32.3279 84.8428 32.3821 88.816 32.3665 92.7883C32.3509 96.7765 29.9492 99.4124 26.3341 99.4411C22.862 99.4686 20.0765 96.6765 20.0349 92.8942C19.9624 86.2994 20.0125 79.7032 20.0112 73.1076C20.011 71.8335 20.0128 70.5593 20.0105 69.2852C20.0048 66.0444 20.0041 66.0444 16.8899 65.7908C13.848 65.543 12.029 62.3217 13.5445 59.4883C15.9083 55.0688 18.4039 50.7153 20.9917 46.4239C22.5304 43.8724 22.6991 41.4127 21.4276 38.7545C20.848 37.5429 20.3809 36.2712 19.9382 35.0002C18.8517 31.8811 20.3851 29.6505 23.7119 29.545C25.7236 29.4812 27.7388 29.5305 29.9761 29.5289ZM79.5049 91.0471C79.5043 85.6554 79.5603 80.263 79.4888 74.8723C79.3988 68.0775 74.4938 63.1611 67.7515 63.0445C64.8464 62.9943 61.9359 62.9629 59.0339 63.0783C53.2607 63.3078 48.4924 67.9818 48.4104 73.766C48.2725 83.4987 48.374 93.2347 48.3352 102.969C48.3292 104.468 48.8227 105.103 50.41 105.094C59.4267 105.041 68.4441 105.046 77.4609 105.092C79.0369 105.101 79.5476 104.474 79.5226 102.954C79.4596 99.1358 79.5037 95.316 79.5049 91.0471ZM24.6503 37.5871C26.2916 41.3746 25.9936 44.9512 23.8077 48.4994C21.4933 52.2563 19.3839 56.1414 17.2146 59.9874C16.7506 60.8101 16.0206 62.1221 17.581 62.2428C20.7971 62.4914 24.0455 62.3176 27.5059 62.3176C26.8506 59.9062 26.2929 57.9643 27.5814 55.915C29.6907 52.5604 31.6119 49.0812 33.4983 45.5922C34.63 43.4991 36.2742 42.6105 38.5888 42.6462C41.7211 42.6945 44.8552 42.6228 47.9879 42.6569C49.41 42.6724 50.0229 42.0768 49.9729 40.6344C49.9132 38.9124 49.8561 37.178 49.9931 35.4647C50.1544 33.4473 49.3149 32.8974 47.4 32.9196C40.0157 33.0055 32.6297 32.9451 25.2443 32.9655C24.5456 32.9674 23.7302 32.6876 23.1767 33.4817C23.2813 34.8585 24.0809 35.9955 24.6503 37.5871ZM56.9987 58.4149C57.0842 59.7472 58.066 59.6459 58.9612 59.6254C61.1929 59.5745 63.4236 59.4685 65.6554 59.4361C70.7829 59.3619 70.783 59.3743 70.6029 54.1512C70.5978 54.0017 70.5906 53.8519 70.5947 53.7025C70.63 52.3957 69.9976 51.7786 68.6985 51.7892C66.8375 51.8043 64.9759 51.7691 63.1151 51.7927C56.1947 51.8806 57.0231 50.782 56.9987 58.4149ZM82.8892 99.1392C82.89 100.559 82.9343 101.98 82.8803 103.398C82.8159 105.092 83.9075 105.105 85.1023 105.071C86.2891 105.036 87.5886 105.279 87.5659 103.389C87.5282 100.251 87.5475 97.1118 87.5723 93.9735C87.581 92.8726 87.1537 92.3885 86.0056 92.3037C83.2132 92.0973 82.8922 92.3345 82.8861 95.1065C82.8835 96.3021 82.8879 97.4977 82.8892 99.1392ZM41.9498 105.063C44.084 105.403 44.8876 104.524 44.769 102.341C44.623 99.6552 44.6901 96.9525 44.7718 94.2602C44.8229 92.577 43.95 92.2494 42.539 92.306C41.2332 92.3584 39.9325 92.1978 39.9691 94.169C40.0261 97.2368 39.9936 100.306 39.9778 103.375C39.9721 104.477 40.4407 105.067 41.9498 105.063ZM56.6757 36.4534C56.3774 36.4535 56.0717 36.4111 55.7821 36.4617C54.9194 36.6124 53.4989 36.0235 53.4953 37.4944C53.4916 38.9999 54.9228 38.4776 55.771 38.4849C61.2152 38.5321 66.6599 38.5101 72.1045 38.5064C74.0434 38.5051 75.9824 38.4999 77.9211 38.4781C78.4841 38.4718 78.9624 38.2824 79.0183 37.6119C79.0605 37.1061 78.8476 36.687 78.346 36.6011C77.6902 36.4888 77.0144 36.4554 76.3472 36.4546C69.933 36.4462 63.5189 36.4519 56.6757 36.4534ZM82.5034 37.9353C82.7717 39.7995 83.8748 40.593 85.9787 39.7808C88.3359 38.8709 86.7653 36.7862 87.0812 35.2325C82.5757 34.6439 82.5516 34.657 82.5034 37.9353Z" fill="black"/>
<path d="M94.978 28.2904C96.6132 25.598 98.4566 23.4179 101.576 22.6994C103.368 22.2866 104.975 22.49 106.165 23.9845C107.453 25.6034 107.117 27.2503 106.062 28.8663C104.774 30.839 102.932 31.9884 100.652 32.4606C98.926 32.8181 97.18 33.0802 95.4523 33.4304C94.5393 33.6155 93.7807 33.5353 93.2479 32.6731C92.7621 31.8871 93.0681 31.2103 93.4995 30.5429C93.9568 29.8354 94.4209 29.1322 94.978 28.2904ZM102.417 27.7141C102.776 27.2762 103.444 26.9736 103.046 26.0949C101.047 26.2043 99.8649 27.3629 98.8624 29.134C100.291 29.1505 101.284 28.6609 102.417 27.7141Z" fill="black"/>
<path d="M108.611 33.7574C109.919 35.2292 110.419 36.7843 109.606 38.5382C108.478 40.9706 106.299 41.5096 104.19 41.5122C101.205 41.5159 98.5524 39.929 95.9615 38.4314C94.8964 37.8158 94.6372 36.6755 95.5861 35.5951C98.3298 32.4713 104.996 31.4752 108.611 33.7574ZM104.666 35.9097C103.589 35.8768 102.506 35.8203 101.557 36.8922C103.191 38.0478 104.709 38.029 106.291 37.0877C106.139 36.1459 105.5 36.1257 104.666 35.9097Z" fill="black"/>
<path d="M104.147 51.3966C101.098 51.895 98.79 50.7449 97.0191 48.6655C95.6329 47.0378 94.4871 45.1895 93.373 43.3558C92.427 41.7988 93.3751 40.2467 95.1514 40.5506C97.6381 40.9761 100.189 41.2024 102.544 42.2544C103.918 42.8682 105.055 43.7559 105.918 44.9637C107.794 47.589 107.248 49.7239 104.147 51.3966ZM100.391 45.1381C99.9614 45.0093 99.532 44.7922 98.9803 45.2289C99.8413 46.9254 101.085 47.9638 103.318 47.9899C102.918 46.405 101.873 45.7602 100.391 45.1381Z" fill="black"/>
<path d="M51.6742 82.4952C49.2919 74.3986 53.4093 66.8188 61.09 64.8921C68.3765 63.0643 75.3879 68.0062 76.8031 75.9672C77.9436 82.3829 74.0195 88.9599 67.9064 90.8787C61.2062 92.9818 54.8609 89.7626 51.6742 82.4952ZM70.7889 70.9576C70.2686 70.5342 69.7732 70.0723 69.224 69.6934C65.4408 67.0838 60.3082 67.6724 57.0738 71.0688C53.885 74.4172 53.4449 79.8413 56.0524 83.6559C59.2784 88.3753 65.4973 89.3745 69.901 85.8809C74.4698 82.2565 74.9375 76.0666 70.7889 70.9576Z" fill="black"/>
<path d="M60.1391 75.06C61.0901 74.1322 62.1215 73.55 63.2542 73.6077C64.8264 73.6878 65.9962 73.1991 67.0178 72.0945C67.7412 71.3123 68.6373 71.343 69.4064 72.0377C70.1986 72.7531 70.1807 73.6676 69.4554 74.3594C68.2294 75.5289 67.9998 76.8363 68.032 78.4669C68.0721 80.4954 66.649 81.775 64.6596 82.3266C62.8016 82.8417 61.1772 82.2659 60.0476 80.8321C58.6237 79.0245 58.6486 77.0787 60.1391 75.06ZM64.46 78.1441C64.3198 77.2645 63.7783 77.0591 63.0434 77.474C62.6232 77.7112 62.5239 78.199 62.8662 78.5929C63.4427 79.2565 63.9869 79.191 64.46 78.1441Z" fill="black"/>
</svg>
