<svg width="129" height="114" viewBox="0 0 129 114" fill="none" xmlns="http://www.w3.org/2000/svg">
<path d="M30.3537 21.7208C36.913 21.7193 43.2354 21.7306 49.5576 21.7098C51.8818 21.7022 54.0163 21.9235 54.8879 24.6118C55.1505 25.4216 55.9172 25.4416 56.6713 25.4411C64.7316 25.4355 72.7918 25.4572 80.852 25.4459C81.468 25.445 82.235 25.4484 82.6748 25.1124C85.4403 22.9999 88.5694 23.7442 91.5941 23.9126C93.5314 24.0205 94.5505 25.232 94.5393 27.2307C94.5287 29.1303 94.5485 31.03 94.5324 32.9295C94.5146 35.0383 93.4157 36.2861 91.3342 36.2101C88.4082 36.1031 85.3194 37.0698 82.6164 35.0128C82.1948 34.6919 81.3905 34.8332 80.763 34.8325C73.0181 34.8237 65.2731 34.8551 57.5286 34.8052C56.0922 34.7959 55.1582 35.0698 54.7417 36.6413C54.3158 38.2483 53.0818 39.1025 51.3994 39.1809C49.4288 39.2727 47.4526 39.4367 45.486 39.3669C43.3232 39.2902 42.4947 40.4005 42.3682 42.3417C42.2643 43.9342 42.3076 45.4862 43.1506 46.9427C43.804 48.0716 44.3881 49.459 42.8608 50.2437C41.1893 51.1024 40.4433 49.6485 39.8418 48.4421C38.5559 45.8632 38.4084 43.1408 39.0287 40.351C39.0911 40.0706 39.0371 39.7642 39.0371 39.4804C37.8219 39.1902 37.546 40.062 37.1734 40.7061C35.1541 44.1978 33.2003 47.7281 31.1377 51.1936C30.5336 52.2085 30.6619 53.0786 30.9729 54.1079C32.1167 57.8931 30.6078 59.9689 26.7476 60.0232C23.4095 60.0701 23.4062 60.0701 23.4052 63.4736C23.4028 71.3887 23.4015 79.3039 23.4079 87.2191C23.4085 87.9292 23.3509 88.6696 23.5244 89.3432C23.9137 90.8544 24.8773 92.0108 26.5109 91.8671C28.1509 91.7228 29.2643 90.6896 29.2759 88.874C29.3012 84.9166 29.3018 80.959 29.3037 77.0016C29.3067 70.7377 31.6603 68.3482 37.8502 68.3372C38.4034 68.3362 38.9568 68.3438 39.5098 68.3352C41.405 68.3056 43.4493 68.7083 45.1567 68.1246C47.2069 67.4238 46.3986 64.8439 47.1962 63.1985C48.6538 60.1913 50.5434 57.6316 53.4538 55.9659C54.8617 55.1602 55.4536 54.1317 55.365 52.5078C55.2575 50.5352 55.2854 48.5492 55.367 46.5736C55.4911 43.5729 57.3581 41.6961 60.3207 41.6498C64.2711 41.5882 68.2243 41.5793 72.1743 41.6552C75.0672 41.7107 76.8415 43.5595 76.9833 46.4398C76.9988 46.7558 77.0156 47.0754 76.9868 47.3892C76.5942 51.6572 76.8878 55.2634 81.3161 57.955C85.1351 60.2763 86.2876 64.7484 86.3889 69.1987C86.4844 73.3916 86.5184 77.5919 86.3727 81.7818C86.2982 83.923 87.0761 84.6875 89.1115 84.413C89.577 84.3502 90.0591 84.3929 90.5326 84.4119C93.3854 84.5257 94.9237 86.0039 94.9789 88.8583C95.0432 92.1814 94.9947 95.5068 94.994 98.8311C94.993 104.071 93.9647 105.121 88.8207 105.122C74.6745 105.124 60.5283 105.123 46.3821 105.123C44.9595 105.123 43.536 105.151 42.1147 105.107C39.0468 105.013 37.4575 103.488 37.3939 100.376C37.3162 96.5781 37.3097 92.7755 37.4142 88.979C37.5005 85.84 39.0488 84.4664 42.2292 84.4083C45.9815 84.3397 45.9811 84.3397 45.9867 80.6746C45.9903 78.3793 45.9749 76.0836 46.008 73.7887C46.0266 72.5032 45.4815 71.9034 44.1695 71.9213C41.7201 71.9547 39.2679 71.8668 36.8205 71.9441C34.093 72.0302 32.9594 73.1705 32.9141 75.9415C32.8455 80.1355 32.903 84.3314 32.8865 88.5263C32.8699 92.7381 30.3252 95.5218 26.4947 95.5521C22.8158 95.5812 19.8644 92.6326 19.8204 88.6382C19.7436 81.6737 19.7966 74.7078 19.7953 67.7424C19.795 66.3969 19.7969 65.0513 19.7945 63.7057C19.7885 60.2833 19.7878 60.2833 16.488 60.0154C13.265 59.7537 11.3376 56.3519 12.9434 53.3596C15.448 48.6924 18.0922 44.0948 20.8342 39.5629C22.4645 36.8683 22.6433 34.2707 21.296 31.4635C20.6819 30.184 20.187 28.841 19.7179 27.4988C18.5667 24.2048 20.1914 21.8492 23.7164 21.7377C25.8479 21.6703 27.9832 21.7225 30.3537 21.7208ZM82.8325 86.6875C82.8318 80.9936 82.8911 75.2989 82.8154 69.606C82.72 62.4304 77.5229 57.2383 70.379 57.1152C67.3008 57.0622 64.217 57.029 61.1422 57.1508C55.0252 57.3932 49.9728 62.3292 49.886 68.4377C49.7398 78.716 49.8474 88.9978 49.8063 99.278C49.7999 100.86 50.3228 101.531 52.0046 101.522C61.5584 101.466 71.1128 101.471 80.6667 101.52C82.3365 101.529 82.8777 100.867 82.8512 99.2617C82.7844 95.2296 82.8312 91.1957 82.8325 86.6875ZM24.7107 30.2307C26.4497 34.2305 26.1339 38.0076 23.8179 41.7548C21.3657 45.7222 19.1306 49.8251 16.8321 53.8867C16.3404 54.7555 15.5669 56.1411 17.2203 56.2685C20.6279 56.5311 24.0699 56.3475 27.7363 56.3475C27.042 53.8009 26.4511 51.7502 27.8164 49.586C30.0513 46.0433 32.0869 42.3691 34.0857 38.6846C35.2848 36.4741 37.0269 35.5357 39.4793 35.5734C42.7982 35.6244 46.119 35.5487 49.4383 35.5847C50.945 35.6011 51.5944 34.9721 51.5415 33.4488C51.4782 31.6303 51.4178 29.7986 51.5629 27.9893C51.7338 25.8588 50.8443 25.2781 48.8154 25.3016C40.9912 25.3923 33.1653 25.3285 25.3401 25.35C24.5998 25.352 23.7358 25.0566 23.1493 25.8951C23.2602 27.3492 24.1074 28.5499 24.7107 30.2307ZM58.9858 52.226C59.0763 53.633 60.1166 53.526 61.0652 53.5044C63.4298 53.4507 65.7933 53.3387 68.1581 53.3045C73.591 53.2261 73.5911 53.2393 73.4003 47.7233C73.3948 47.5654 73.3872 47.4072 73.3915 47.2495C73.429 45.8694 72.7589 45.2178 71.3824 45.2289C69.4105 45.2449 67.4381 45.2077 65.4664 45.2327C58.1339 45.3255 59.0116 44.1653 58.9858 52.226ZM86.4184 95.2333C86.4192 96.7326 86.4661 98.2338 86.4089 99.731C86.3407 101.52 87.4972 101.534 88.7632 101.497C90.0207 101.461 91.3976 101.717 91.3736 99.721C91.3337 96.4071 91.3541 93.0922 91.3804 89.778C91.3896 88.6153 90.9368 88.1042 89.7203 88.0145C86.7617 87.7966 86.4215 88.0472 86.415 90.9745C86.4123 92.2371 86.417 93.4998 86.4184 95.2333ZM43.0406 101.489C45.3018 101.848 46.1534 100.92 46.0277 98.615C45.873 95.7782 45.944 92.924 46.0306 90.0808C46.0848 88.3033 45.1599 87.9572 43.6648 88.017C42.2812 88.0723 40.9031 87.9027 40.9419 89.9845C41.0022 93.2242 40.9678 96.466 40.951 99.7067C40.945 100.87 41.4416 101.493 43.0406 101.489ZM58.6435 29.0334C58.3274 29.0335 58.0035 28.9888 57.6967 29.0422C56.7826 29.2013 55.2775 28.5794 55.2737 30.1328C55.2697 31.7227 56.7862 31.1711 57.6849 31.1789C63.4534 31.2286 69.2224 31.2054 74.9913 31.2016C77.0457 31.2002 79.1001 31.1947 81.1544 31.1717C81.7509 31.165 82.2577 30.965 82.3169 30.2569C82.3616 29.7227 82.136 29.2801 81.6045 29.1894C80.9096 29.0708 80.1936 29.0356 79.4866 29.0347C72.6905 29.0259 65.8943 29.0319 58.6435 29.0334ZM86.0096 30.5984C86.2939 32.5671 87.4626 33.4051 89.6919 32.5474C92.1894 31.5864 90.5253 29.3849 90.86 27.7441C86.0862 27.1225 86.0606 27.1364 86.0096 30.5984Z" fill="#EDD118"/>
<path d="M98.7842 20.5924C100.46 17.8093 102.349 15.5558 105.546 14.8131C107.383 14.3865 109.03 14.5966 110.249 16.1415C111.57 17.8149 111.226 19.5173 110.144 21.1877C108.824 23.2268 106.936 24.415 104.599 24.9031C102.83 25.2727 101.041 25.5435 99.2703 25.9056C98.3345 26.0969 97.557 26.014 97.011 25.1227C96.5132 24.3102 96.8268 23.6107 97.2689 22.9208C97.7375 22.1894 98.2132 21.4626 98.7842 20.5924ZM106.408 19.9967C106.776 19.5441 107.46 19.2312 107.053 18.323C105.004 18.4361 103.793 19.6337 102.765 21.4644C104.23 21.4815 105.247 20.9754 106.408 19.9967Z" fill="#EDD118"/>
<path d="M113.298 27.0917C114.705 28.5161 115.244 30.021 114.368 31.7183C113.155 34.0722 110.81 34.5938 108.539 34.5963C105.327 34.5999 102.472 33.0642 99.6835 31.6149C98.5372 31.0192 98.2583 29.9157 99.2795 28.8702C102.232 25.8471 109.407 24.8832 113.298 27.0917ZM109.051 29.1746C107.893 29.1428 106.727 29.088 105.705 30.1254C107.465 31.2437 109.098 31.2256 110.8 30.3146C110.637 29.4032 109.949 29.3836 109.051 29.1746Z" fill="#EDD118"/>
<path d="M108.193 45.2941C105.084 45.8058 102.73 44.6252 100.924 42.4908C99.5108 40.82 98.3424 38.9227 97.2063 37.0405C96.2417 35.4423 97.2085 33.849 99.0198 34.161C101.556 34.5977 104.157 34.83 106.559 35.9099C107.96 36.54 109.119 37.4512 109.999 38.6909C111.912 41.3857 111.355 43.5772 108.193 45.2941ZM104.363 38.8699C103.925 38.7377 103.487 38.5149 102.924 38.9632C103.802 40.7046 105.071 41.7705 107.348 41.7972C106.94 40.1704 105.874 39.5085 104.363 38.8699Z" fill="#EDD118"/>
<path d="M53.0374 78.2679C50.4875 69.8524 54.8945 61.9741 63.1153 59.9715C70.9141 58.0718 78.4185 63.2083 79.9332 71.4828C81.1539 78.1512 76.9539 84.9872 70.4109 86.9816C63.2397 89.1676 56.4482 85.8215 53.0374 78.2679ZM73.4961 66.2759C72.9393 65.8358 72.409 65.3557 71.8212 64.962C67.772 62.2496 62.2785 62.8614 58.8167 66.3915C55.4037 69.8718 54.9326 75.5094 57.7235 79.4743C61.1763 84.3796 67.8325 85.4181 72.5459 81.787C77.4359 78.0198 77.9365 71.5861 73.4961 66.2759Z" fill="#EDD118"/>
<path d="M62.6199 70.3891C63.6188 69.3793 64.7022 68.7455 65.8921 68.8083C67.5436 68.8955 68.7725 68.3636 69.8456 67.1611C70.6055 66.3097 71.5468 66.3432 72.3547 67.0994C73.1868 67.8781 73.168 68.8735 72.4062 69.6266C71.1183 70.8995 70.8772 72.3226 70.911 74.0976C70.9531 76.3056 69.4582 77.6985 67.3685 78.2989C65.4167 78.8596 63.7103 78.2329 62.5238 76.6721C61.028 74.7046 61.0541 72.5865 62.6199 70.3891ZM67.1588 73.7462C67.0114 72.7887 66.4426 72.5651 65.6707 73.0168C65.2293 73.275 65.125 73.806 65.4845 74.2348C66.0901 74.9571 66.6617 74.8857 67.1588 73.7462Z" fill="#EDD118"/>
</svg>
