<svg width="20" height="20" viewBox="0 0 20 20" fill="none" xmlns="http://www.w3.org/2000/svg">
<g clip-path="url(#clip0_14_270)">
<path d="M15.5297 13.0588L16.9601 8.76766C18.2097 5.019 18.8344 3.14468 17.8451 2.15529C16.8557 1.1659 14.9813 1.79067 11.2327 3.04022L6.94158 4.47059C3.91605 5.4791 2.40329 5.98336 1.9734 6.72281C1.56445 7.42626 1.56445 8.29507 1.9734 8.99852C2.40329 9.73797 3.91605 10.2422 6.94157 11.2507C7.42737 11.4127 7.67027 11.4936 7.8733 11.6296C8.07005 11.7613 8.23908 11.9303 8.3708 12.1271C8.50671 12.3301 8.58768 12.573 8.74961 13.0588C9.75812 16.0843 10.2624 17.5971 11.0018 18.0269C11.7053 18.4359 12.5741 18.4359 13.2775 18.0269C14.017 17.5971 14.5212 16.0843 15.5297 13.0588Z" stroke="black" stroke-width="1.5"/>
<path d="M13.5975 7.46305C13.892 7.17179 13.8947 6.69692 13.6034 6.40241C13.3121 6.1079 12.8373 6.10526 12.5428 6.39653L13.5975 7.46305ZM8.97343 12.0362L13.5975 7.46305L12.5428 6.39653L7.91866 10.9697L8.97343 12.0362Z" fill="black"/>
</g>
<defs>
<clipPath id="clip0_14_270">
<rect width="20" height="20" fill="white"/>
</clipPath>
</defs>
</svg>
