<svg width="41" height="35" viewBox="0 0 41 35" fill="none" xmlns="http://www.w3.org/2000/svg">
<path d="M13.768 34.576C11.432 34.576 9.112 34.272 6.808 33.664C4.504 33.024 2.552 32.128 0.952 30.976L3.976 25.024C5.256 25.952 6.744 26.688 8.44 27.232C10.136 27.776 11.848 28.048 13.576 28.048C15.528 28.048 17.064 27.664 18.184 26.896C19.304 26.128 19.864 25.072 19.864 23.728C19.864 22.448 19.368 21.44 18.376 20.704C17.384 19.968 15.784 19.6 13.576 19.6H10.024V14.464L19.384 3.856L20.248 6.64H2.632V0.399998H26.152V5.44L16.84 16.048L12.904 13.792H15.16C19.288 13.792 22.408 14.72 24.52 16.576C26.632 18.432 27.688 20.816 27.688 23.728C27.688 25.616 27.192 27.392 26.2 29.056C25.208 30.688 23.688 32.016 21.64 33.04C19.592 34.064 16.968 34.576 13.768 34.576ZM35.6943 34.384C34.4143 34.384 33.3103 33.952 32.3823 33.088C31.4863 32.192 31.0383 31.056 31.0383 29.68C31.0383 28.304 31.4863 27.2 32.3823 26.368C33.3103 25.504 34.4143 25.072 35.6943 25.072C37.0063 25.072 38.1103 25.504 39.0063 26.368C39.9023 27.2 40.3503 28.304 40.3503 29.68C40.3503 31.056 39.9023 32.192 39.0063 33.088C38.1103 33.952 37.0063 34.384 35.6943 34.384Z" fill="#EDD118"/>
</svg>
