<svg width="40" height="36" viewBox="0 0 40 36" fill="none" xmlns="http://www.w3.org/2000/svg">
<path d="M1.584 35V29.96L14.544 17.72C15.568 16.792 16.32 15.96 16.8 15.224C17.28 14.488 17.6 13.816 17.76 13.208C17.952 12.6 18.048 12.04 18.048 11.528C18.048 10.184 17.584 9.16 16.656 8.456C15.76 7.72 14.432 7.352 12.672 7.352C11.264 7.352 9.952 7.624 8.736 8.168C7.552 8.712 6.544 9.56 5.712 10.712L0.048 7.064C1.328 5.144 3.12 3.624 5.424 2.504C7.728 1.384 10.384 0.823999 13.392 0.823999C15.888 0.823999 18.064 1.24 19.92 2.072C21.808 2.872 23.264 4.008 24.288 5.48C25.344 6.952 25.872 8.712 25.872 10.76C25.872 11.848 25.728 12.936 25.44 14.024C25.184 15.08 24.64 16.2 23.808 17.384C23.008 18.568 21.824 19.896 20.256 21.368L9.504 31.496L8.016 28.664H26.976V35H1.584ZM35.0693 35.384C33.7893 35.384 32.6853 34.952 31.7573 34.088C30.8613 33.192 30.4133 32.056 30.4133 30.68C30.4133 29.304 30.8613 28.2 31.7573 27.368C32.6853 26.504 33.7893 26.072 35.0693 26.072C36.3813 26.072 37.4853 26.504 38.3813 27.368C39.2773 28.2 39.7253 29.304 39.7253 30.68C39.7253 32.056 39.2773 33.192 38.3813 34.088C37.4853 34.952 36.3813 35.384 35.0693 35.384Z" fill="#EDD118"/>
</svg>
