<svg width="110" height="110" viewBox="0 0 110 110" fill="none" xmlns="http://www.w3.org/2000/svg">
<g clip-path="url(#clip0_22_329)">
<circle cx="55" cy="55" r="55" fill="white"/>
<path d="M75.4971 59.8838C75.1443 60.3422 74.8172 60.7726 74.4756 61.191C74.2976 61.4089 74.2571 61.5808 74.4164 61.8592C74.9655 62.8188 74.9286 63.7885 74.3105 64.7102C73.507 65.9086 72.5385 66.9796 71.652 68.1141C70.6876 69.3484 69.7145 70.576 68.7301 71.7943C68.4954 72.0848 68.533 72.2666 68.7969 72.5138C69.6771 73.338 70.1951 74.3265 70.1113 75.578C70.0195 76.9485 69.4011 77.9866 68.1712 78.5967C67.78 78.7908 67.5623 79.0218 67.4297 79.4313C67.098 80.4551 66.4415 81.2637 65.6179 81.9363C65.0159 82.4278 64.3128 82.6591 63.5521 82.4788C63.1213 82.3768 62.9223 82.5427 62.7162 82.8558C62.3501 83.4119 61.9739 83.9595 61.5197 84.4536C60.4896 85.5742 59.1941 85.8243 57.7721 85.6024C57.3629 85.5386 57.1096 85.5902 56.8561 85.9392C56.3065 86.696 55.6751 87.3938 55.1373 88.1583C54.481 89.0915 53.5639 89.2403 52.5592 89.0869C52.2065 89.033 52.0363 89.0998 51.8613 89.3839C51.0397 90.7179 50.2004 92.041 49.3737 93.3719C49.1581 93.7189 48.9186 94.0328 48.4838 94.0892C48.0553 94.1448 47.648 94.0888 47.374 93.7001C47.061 93.2559 47.0551 92.7887 47.3379 92.3311C47.8586 91.4885 48.3926 90.6543 48.9191 89.8153C49.1584 89.4339 49.376 89.0377 49.6336 88.6693C50.0436 88.0831 50.2906 87.5526 50.0086 86.7568C49.7325 85.9777 49.9555 85.1121 50.3429 84.351C50.5047 84.0332 50.4301 83.8853 50.1204 83.7278C49.4702 83.3971 48.8911 83.3541 48.1953 83.7142C46.3717 84.658 44.4616 85.391 42.4159 85.7151C41.9688 85.7859 41.5536 85.8223 41.2434 85.408C41.1504 85.2838 41.0239 85.2342 40.87 85.2262C40.2246 85.1927 39.58 85.1402 38.9344 85.1185C35.4304 85.0005 31.9246 84.9228 28.4229 84.7562C27.3683 84.706 26.3013 84.7834 25.195 84.4954C25.1496 85.2399 25.0645 85.9165 25.0754 86.5916C25.1112 88.7923 24.991 90.9893 24.9582 93.1883C24.9487 93.8254 24.5923 94.2417 24.0203 94.3101C23.2603 94.4009 22.8801 94.1525 22.6831 93.4575C22.5968 93.1531 22.6272 92.8478 22.6427 92.544C22.7697 90.0425 22.7706 87.5363 22.8903 85.0362C22.9381 84.0391 22.7664 83.4068 21.9097 82.7446C20.2747 81.4807 19.2486 79.724 18.8952 77.6533C18.6701 76.334 18.7961 74.9882 18.8776 73.665C18.945 72.5695 18.9612 71.4702 19.0187 70.3755C19.1075 68.6871 19.1721 66.9939 19.288 65.3081C19.4764 62.5686 19.4511 59.8034 20.021 57.1014C21.0785 52.0871 23.9973 48.5633 28.6569 46.4888C30.7417 45.5606 32.9513 45.0966 35.2166 44.9018C35.5563 44.8726 35.7544 44.7242 35.8858 44.451C36.2374 43.7207 36.5714 42.9819 36.9245 42.2524C37.0547 41.9835 36.9456 41.7615 36.8361 41.5345C35.9624 39.7239 35.4398 37.8394 35.5735 35.8029C35.6356 34.8577 35.8823 33.9596 36.2058 33.0824C36.7851 31.5117 37.3945 29.9521 37.9893 28.3871C38.0392 28.2557 38.0741 28.1185 38.1151 27.987C37.8909 27.7725 37.6084 27.7549 37.3647 27.6524C36.5173 27.2962 36.1856 26.6451 36.4795 25.7947C36.9381 24.4679 37.4295 23.1526 37.9017 21.8305C38.1397 21.1643 38.6065 20.7919 39.3076 20.7659C39.6701 20.7524 39.7813 20.5156 39.932 20.2626C41.7431 17.2237 44.1351 14.8267 47.4935 13.5476C49.527 12.7732 51.6472 12.6317 53.8038 12.8184C57.8455 13.1682 61.5619 14.713 65.3574 15.9613C67.0284 16.5109 68.7176 17.009 70.3484 17.6838C71.0338 17.9675 71.5393 18.4018 71.9323 19.0061C73.2217 20.9886 73.5172 23.1288 72.9843 25.4164C72.6746 26.7457 72.4235 28.0886 72.1151 29.4183C72.0451 29.7198 72.1103 29.8911 72.3428 30.0591C73.5326 30.919 73.8141 31.8974 73.2546 33.2721C72.1345 36.0239 71.0053 38.772 69.8803 41.5218C69.56 42.3047 69.2377 43.0868 68.9228 43.8718C68.3943 45.189 67.5692 45.6777 66.1745 45.4385C65.7945 45.3733 65.7009 45.5813 65.595 45.8409C64.9897 47.3249 64.3246 48.7831 63.6929 50.2554C62.6738 52.6304 61.0685 54.3619 58.5992 55.2258C58.5343 55.2485 58.4755 55.2891 58.3173 55.3719C58.7649 55.8529 59.1664 56.3232 59.5301 56.8223C60.6941 58.4199 61.2612 60.2421 61.569 62.1626C61.7371 63.2113 61.8443 64.2677 61.7885 65.3324C61.7693 65.6978 61.9268 65.8484 62.2812 65.8874C62.7969 65.9441 63.3218 65.9924 63.8174 66.1337C64.2435 66.2552 64.5068 66.1083 64.7606 65.8182C66.2066 64.1648 67.6708 62.5269 69.0941 60.8541C70.0343 59.7491 70.6512 59.507 72.0083 59.9585C72.45 60.1055 72.6521 59.8691 72.8673 59.6071C73.6328 58.6752 74.3954 57.7407 75.1437 56.7949C76.7441 54.772 79.6809 53.8528 82.2284 55.0254C84.3689 56.0106 86.5257 56.9601 88.6755 57.9251C88.756 57.9612 88.838 57.9941 88.9708 58.0503C88.9866 57.3161 88.7745 56.6539 88.6671 55.9801C88.5591 55.3023 88.7691 54.7521 89.2602 54.5637C89.8265 54.3465 90.334 54.5633 90.6872 55.1942C91.035 55.8153 91.3671 56.4452 91.7324 57.1199C92.2946 56.6481 92.6349 56.0919 93.0443 55.6013C94.1518 54.2738 95.2678 52.9542 96.4404 51.6837C96.8431 51.2473 97.2924 51.1549 97.75 51.3994C98.2276 51.6547 98.4009 52.0885 98.2284 52.6902C97.7905 54.2178 97.134 55.6617 96.5193 57.1215C96.3676 57.4819 96.2278 57.8473 96.0656 58.2525C96.7983 58.405 97.4434 58.2018 98.0928 58.1521C98.9498 58.0866 99.7899 57.8618 100.657 57.8748C100.929 57.8788 101.191 57.9175 101.456 57.9773C101.85 58.0663 102.186 58.2235 102.274 58.6534C102.367 59.103 102.186 59.4698 101.831 59.7424C101.158 60.2581 100.424 60.6799 99.6954 61.1085C98.8901 61.5822 98.0781 62.0445 97.2515 62.5219C97.3372 62.8148 97.5641 62.9427 97.751 63.0939C98.9405 64.0557 100.136 65.0096 101.328 65.9681C101.862 66.3973 101.998 66.8412 101.753 67.3289C101.5 67.8296 100.935 68.0456 100.316 67.823C98.8789 67.3061 97.4509 66.7641 96.0182 66.2349C95.8533 66.1739 95.6823 66.1295 95.49 66.07C95.3053 66.4203 95.3676 66.7675 95.3991 67.0924C95.557 68.7186 95.7411 70.3421 95.9094 71.9673C95.9714 72.5658 95.6536 73.0678 95.1567 73.1884C94.6599 73.3089 94.2084 73.0613 93.964 72.4955C93.2284 70.7928 92.5227 69.0767 91.6541 67.435C91.5793 67.2936 91.4999 67.1546 91.3757 66.9292C90.8296 67.4211 90.2934 67.8599 89.8084 68.3497C88.7693 69.399 87.7573 70.4751 86.733 71.539C86.4156 71.8686 86.0837 72.1517 85.5749 72.1326C84.9632 72.1096 84.6868 71.8301 84.7266 71.2187C84.7485 70.8827 84.9127 70.6025 85.0715 70.3201C86.1136 68.4676 87.1567 66.6156 88.1978 64.7625C88.2578 64.6557 88.3039 64.5412 88.402 64.3342C87.3693 64.3342 86.4043 64.3309 85.4393 64.3361C85.1138 64.3378 84.7936 64.321 84.4795 64.2258C83.7266 63.9976 83.5052 63.1641 84.0727 62.609C84.5535 62.1388 85.1801 61.8754 85.7383 61.5149C86.4287 61.0691 87.1281 60.6374 87.799 60.2151C87.7594 60.013 87.6581 59.9666 87.5614 59.9227C85.7762 59.1125 83.9918 58.3003 82.2029 57.4981C81.8265 57.3294 81.4392 57.1797 81.0463 57.0544C79.2625 56.4855 77.7137 56.9861 76.5732 58.483C76.2241 58.9412 75.8691 59.395 75.4971 59.8838ZM42.5477 20.8471C42.4544 21.0365 42.2883 21.1985 42.3235 21.4527C42.3746 21.491 42.4251 21.5496 42.4886 21.5731C42.994 21.7606 43.503 21.9382 44.0087 22.1251C44.9729 22.4813 45.4163 23.2577 45.0838 24.2208C44.5788 25.6831 44.0162 27.1269 43.4306 28.5591C43.12 29.319 42.4881 29.5473 41.7006 29.2892C41.3764 29.1829 41.0466 29.0867 40.7358 28.9487C40.3791 28.7902 40.1938 28.8567 40.0475 29.2442C39.5514 30.5578 39.0338 31.8637 38.499 33.1621C37.514 35.5537 37.6347 37.895 38.745 40.2134C39.559 41.9131 40.5621 43.4873 41.7782 44.9247C45.4086 49.2156 49.735 52.3547 55.4536 53.1537C57.0879 53.3821 58.5957 53.0832 59.8532 51.9041C60.4789 51.3175 60.9968 50.6683 61.3648 49.8871C62.1998 48.1146 62.9926 46.3249 63.7296 44.4878C63.4917 44.3906 63.2945 44.307 63.0952 44.229C59.2283 42.7154 55.3626 41.1989 51.493 39.6922C50.6816 39.3762 50.1287 38.8473 49.9195 37.9831C49.767 37.3533 49.7898 36.7342 50.0141 36.1272C51.3759 32.4429 52.9294 28.8377 54.5105 25.2448C54.9666 24.2082 56.0761 23.8097 57.2111 24.2338C60.2423 25.3663 63.2666 26.5172 66.2938 27.6604C67.466 28.103 68.6385 28.5445 69.8579 29.0041C70.2563 27.5977 70.5049 26.241 70.7896 24.8928C70.9725 24.0267 71.1088 23.1625 70.8972 22.277C70.5438 20.7981 69.9036 19.6745 68.2652 19.199C64.3867 18.0733 60.6164 16.5898 56.6967 15.5925C54.5592 15.0486 52.3882 14.7546 50.1912 15.1559C46.75 15.7843 44.2067 17.6654 42.5477 20.8471ZM34.3731 82.6592C34.8228 82.6641 35.2704 82.7069 35.7184 82.7322C37.0461 82.807 38.3768 82.8278 39.7061 82.8771C40.047 82.8898 40.1742 82.7467 40.0889 82.4192C39.7756 81.2159 39.6032 79.9872 39.5209 78.7518C39.4216 77.2604 39.4024 75.7637 39.5386 74.2714C39.6243 73.3317 39.7319 72.394 39.8321 71.4324C39.6981 71.4093 39.5948 71.3754 39.4918 71.376C37.0631 71.3907 34.6412 71.1833 32.2139 71.1567C31.8776 71.153 31.5641 71.0844 31.3016 70.8816C30.8948 70.5673 30.723 70.152 30.8817 69.6409C31.0375 69.1396 31.5251 68.8135 32.1491 68.8217C32.5609 68.8271 32.9732 68.8726 33.3833 68.9183C33.84 68.9691 33.9555 68.7641 33.9677 68.3276C34.0162 66.6011 34.1062 64.8758 34.1758 63.1499C34.1867 62.8799 34.2941 62.6596 34.4799 62.4789C34.8531 62.1161 35.2789 62.0422 35.7672 62.2386C36.227 62.4235 36.4289 62.7369 36.4191 63.2384C36.387 64.8774 36.3185 66.5142 36.2091 68.15C36.1898 68.4386 36.0384 68.8265 36.3388 69.0076C36.7532 69.2574 37.2701 69.2049 37.7041 69.0775C38.0224 68.9841 37.9482 68.561 37.9517 68.2622C37.964 67.2164 37.8889 66.1627 37.9918 65.1264C38.1906 63.1231 37.8779 61.186 37.4494 59.2487C36.494 54.9293 34.0802 51.4619 31.1208 48.3071C30.9352 48.1092 30.773 48.1173 30.5489 48.1983C26.8121 49.5497 24.0785 51.9576 22.6795 55.7453C21.7796 58.1816 21.8228 60.7645 21.6273 63.3012C21.4421 65.7045 21.4281 68.1208 21.2584 70.5256C21.1899 71.4976 21.2073 72.4689 21.1398 73.4394C21.059 74.6016 20.9588 75.7669 21.067 76.9348C21.3248 79.7167 23.6873 82.1038 26.4577 82.327C29.0556 82.5364 31.6633 82.5491 34.3731 82.6592ZM63.7529 74.8825C64.1357 74.9367 64.4588 75.1234 64.7869 75.3168C65.453 75.7094 66.1387 76.0683 66.808 76.4554C67.1741 76.6672 67.4352 76.5264 67.6315 76.2261C67.867 75.8658 67.9463 75.4767 67.7925 75.0445C67.5879 74.4692 67.2008 74.0609 66.6925 73.7602C65.2371 72.899 63.7453 72.1047 62.2372 71.3404C61.2888 70.8597 61.1542 69.9993 61.8931 69.2406C62.1336 68.9937 62.4293 68.7762 62.4893 68.3529C61.5831 68.3529 60.7186 68.3097 59.8611 68.3685C59.3148 68.406 58.7566 68.4744 58.2363 68.7101C56.8446 69.3407 55.4454 69.9545 54.048 70.5723C53.1335 70.9766 52.1893 71.1884 51.1753 71.1629C48.352 71.0919 45.5273 71.0756 42.704 71.0033C42.1642 70.9895 41.9839 71.1944 41.9122 71.6879C41.7104 73.0774 41.5854 74.4698 41.564 75.8748C41.5283 78.2213 41.6175 80.5496 42.3353 82.8115C42.5709 83.5539 42.5599 83.5614 43.3382 83.3591C44.8594 82.9636 46.3212 82.39 47.6871 81.6295C48.6435 81.0971 49.5168 81.128 50.517 81.4384C52.9305 82.1874 55.3386 82.974 57.8451 83.3734C58.9107 83.5431 59.8636 83.4215 60.4114 82.3102C60.5139 82.1022 60.6615 81.9134 60.8071 81.7308C61.0295 81.4518 61.0851 81.2101 60.884 80.8586C60.6275 80.4102 60.6394 79.9075 61.0419 79.5164C61.4293 79.1401 61.9071 79.0934 62.3916 79.3017C62.6873 79.4288 62.9605 79.6089 63.2422 79.7681C64.3297 80.3824 64.4233 80.3586 65.0803 79.2928C65.1086 79.2468 65.137 79.2007 65.1631 79.1534C65.4664 78.605 65.4357 78.4515 64.9031 78.0966C64.3795 77.7478 63.848 77.4102 63.3129 77.0792C62.789 76.7551 62.6007 76.2875 62.7024 75.6959C62.7944 75.1611 63.206 74.9915 63.7529 74.8825ZM42.0554 57.3445C40.8269 53.7108 38.693 50.6342 36.1876 47.7881C35.9644 47.5345 35.7513 47.1667 35.3988 47.175C34.7861 47.1895 34.1514 47.1892 33.5077 47.5031C33.6702 47.7181 33.8025 47.9046 33.9464 48.0816C34.6849 48.9907 35.3912 49.9239 36.0487 50.8935C38.8156 54.9743 40.4321 59.4221 40.2548 64.4147C40.2062 65.7848 40.201 67.1533 40.1933 68.5228C40.1923 68.7088 40.1133 68.9209 40.3364 69.1198C41.1037 68.6544 41.9648 68.6073 42.8563 68.6336C45.9124 68.7239 48.9684 68.8401 52.0268 68.8036C52.2184 68.8014 52.4209 68.7475 52.5981 68.6707C53.5879 68.2419 54.5698 67.7945 55.5583 67.3627C55.8792 67.2225 56.007 67.0085 55.9986 66.6489C55.973 65.5687 55.9379 64.4883 55.9146 63.4092C55.8669 61.2119 55.7326 59.0165 55.7684 56.8164C55.7906 55.4497 55.9594 55.8073 54.6242 55.5768C54.1738 55.4991 53.9769 55.651 53.9961 56.1557C54.0586 57.7934 53.9742 59.4335 54.1034 61.0724C54.174 61.9679 53.5229 62.6844 52.6739 62.7085C50.2296 62.778 47.788 62.9224 45.3416 62.9447C44.4081 62.9533 43.7914 62.5856 43.4433 61.7401C43.3274 61.4585 43.2291 61.1679 43.1471 60.8746C42.8226 59.7149 42.508 58.5525 42.0554 57.3445ZM68.8501 38.0366C69.5745 36.2528 70.3007 34.4698 71.0223 32.6849C71.2719 32.0676 71.2177 31.9444 70.6207 31.7166C67.1305 30.3851 63.6414 29.0506 60.1488 27.7256C58.9285 27.2626 57.6991 26.8237 56.4795 26.3759C56.4188 26.4742 56.3843 26.5166 56.3639 26.565C54.9515 29.9138 53.5113 33.2511 52.1977 36.6408C51.9449 37.2931 52.0342 37.4625 52.7189 37.7302C56.5673 39.2348 60.4141 40.7437 64.2672 42.2364C65.0792 42.551 65.875 42.9212 66.7684 43.1465C67.4639 41.4431 68.1433 39.7791 68.8501 38.0366ZM39.2345 47.9587C40.0657 48.8646 40.76 49.8744 41.3986 50.9185C43.1091 53.7149 44.3343 56.7284 45.2725 59.8609C45.4352 60.4041 45.6463 60.6472 46.2675 60.6104C47.8101 60.5191 49.3577 60.5093 50.9036 60.477C51.732 60.4596 51.7551 60.4396 51.7796 59.5881C51.8221 58.1094 51.6963 56.634 51.7035 55.157C51.7059 54.6777 51.5332 54.4709 51.0941 54.3076C46.8553 52.7314 43.3356 50.1191 40.3314 46.7663C39.6731 46.0317 39.0821 45.2441 38.4166 44.3867C38.1549 44.9177 37.9382 45.3846 37.6963 45.8382C37.5476 46.1167 37.6265 46.3047 37.8461 46.4944C38.3377 46.9187 38.7807 47.3917 39.2345 47.9587ZM68.1379 68.914C69.3226 67.4418 70.493 65.9578 71.6961 64.5009C72.7453 63.2304 72.7179 63.0094 71.2618 62.2151C71.1865 62.174 71.099 62.1553 70.9989 62.1196C68.7762 64.6555 66.57 67.1843 64.4227 69.8699C65.0033 70.1819 65.517 70.4324 66.0034 70.7281C66.3447 70.9356 66.5658 70.9061 66.8085 70.574C67.2113 70.0227 67.6571 69.5028 68.1379 68.914ZM89.3993 62.3172C89.9361 62.4509 90.423 62.6455 90.677 63.2018C90.9289 63.7534 90.6681 64.2718 90.5546 64.8687C91.0329 64.4999 91.5032 64.3351 92.0225 64.389C92.6094 64.4499 92.8341 64.9643 93.219 65.5588C93.2489 64.3513 93.1282 63.167 94.7715 63.4375C94.5881 63.1858 94.3556 63.0193 94.3283 62.691C94.2754 62.0567 94.4958 61.6221 95.0728 61.3327C95.472 61.1325 95.9383 61.0256 96.2779 60.613C95.8657 60.5092 95.5201 60.5683 95.1647 60.6279C94.0429 60.8161 93.3392 60.1179 93.6155 59.0957C93.6996 58.7845 93.8386 58.4882 93.9733 58.1294C93.5018 58.3815 93.2956 58.7687 93.0371 59.1122C92.6684 59.6021 92.2643 60.0318 91.551 59.8144C91.3148 59.7424 91.202 59.8679 91.1393 60.1062C90.9833 60.6987 90.5833 61.0982 90.0594 61.3911C89.7936 61.5397 89.5088 61.667 89.3082 61.9087C89.2004 62.0385 89.0017 62.1885 89.3993 62.3172ZM58.4208 58.9346C58.3072 58.7817 58.2753 58.5691 58.0121 58.4188C58.0121 58.6935 58.0123 58.9185 58.0121 59.1435C58.0102 61.1375 58.1443 63.1266 58.2206 65.1178C58.2643 66.2588 58.0788 66.1926 59.2667 65.8969C59.5332 65.8305 59.6829 65.735 59.6847 65.4429C59.6983 63.2148 59.4382 61.0399 58.4208 58.9346ZM39.3745 24.3824C39.2203 24.8377 39.0661 25.2929 38.8907 25.8108C39.7806 26.126 40.6216 26.4239 41.4626 26.7215C41.6382 26.7837 41.7397 26.6953 41.7943 26.5426C42.0817 25.7385 42.3653 24.9329 42.666 24.0833C41.6921 23.7535 40.7859 23.4467 39.8425 23.1273C39.6796 23.5677 39.5433 23.9361 39.3745 24.3824ZM52.2491 85.8282C52.1917 86.1598 52.3162 86.4319 52.5477 86.6519C52.7883 86.8807 53.0774 87.1212 53.3808 86.7967C53.8653 86.2787 54.2936 85.7105 54.6805 85.1022C54.3343 84.853 53.9634 84.838 53.6285 84.7256C52.8701 84.4709 52.7246 84.5446 52.408 85.2885C52.3453 85.4359 52.3138 85.5965 52.2491 85.8282Z" fill="black"/>
<path d="M82.7787 46.911C84.1714 48.7234 85.5381 50.5059 86.907 52.2866C87.1945 52.6605 87.4993 53.0272 87.3585 53.5503C87.2482 53.9601 87.0114 54.2727 86.581 54.3591C86.1343 54.4488 85.7288 54.3649 85.4258 53.9716C84.22 52.406 83.0076 50.8454 81.8001 49.2811C81.5368 48.94 81.2721 48.5989 81.0285 48.2437C80.5984 47.6167 80.6452 46.9923 81.1321 46.6092C81.5963 46.2441 82.245 46.3526 82.7787 46.911Z" fill="black"/>
<path d="M92.2176 44.0756C92.4158 44.3573 92.4568 44.6354 92.4567 44.931C92.4566 46.8424 92.4639 48.7539 92.4655 50.6654C92.4662 51.5053 92.0804 51.9765 91.3846 51.9982C90.7381 52.0183 90.2537 51.498 90.2389 50.7C90.2172 49.5282 90.2315 48.3558 90.2309 47.1836C90.2305 46.4803 90.2419 45.7768 90.2274 45.0738C90.2168 44.5611 90.2764 44.0832 90.7864 43.8252C91.2934 43.5686 91.7629 43.6989 92.2176 44.0756Z" fill="black"/>
<path d="M61.5687 39.5048C59.6042 38.6955 57.673 37.9146 55.7536 37.1058C54.8599 36.7292 54.585 35.9123 54.9708 35.0099C55.6212 33.4884 56.2611 31.9624 56.8981 30.4352C57.2623 29.5618 58.0436 29.1982 58.9527 29.5177C61.6475 30.4649 64.2994 31.5228 66.9299 32.6356C67.3931 32.8315 67.8622 33.0133 68.3275 33.2041C68.9908 33.4761 69.3125 34.1017 69.0502 34.7729C68.3305 36.6146 67.5901 38.4488 66.8249 40.272C66.5463 40.9359 65.8103 41.151 65.0194 40.8516C63.8777 40.4195 62.744 39.966 61.5687 39.5048ZM57.4028 35.0671C57.3041 35.393 57.5788 35.4175 57.7621 35.4917C59.7449 36.2933 61.7287 37.0927 63.7162 37.8823C64.1592 38.0583 64.5801 38.312 65.1139 38.356C65.5664 37.1907 66.0135 36.0397 66.4765 34.8475C63.8821 33.7892 61.3485 32.759 58.733 31.8905C58.2799 32.972 57.8562 33.9833 57.4028 35.0671Z" fill="black"/>
</g>
<defs>
<clipPath id="clip0_22_329">
<rect width="110" height="110" fill="white"/>
</clipPath>
</defs>
</svg>
