<svg width="90" height="88" viewBox="0 0 90 88" fill="none" xmlns="http://www.w3.org/2000/svg">
<path d="M59.4971 48.8838C59.1443 49.3422 58.8171 49.7726 58.4755 50.191C58.2976 50.4089 58.2571 50.5808 58.4163 50.8592C58.9654 51.8188 58.9285 52.7885 58.3104 53.7102C57.5069 54.9086 56.5384 55.9796 55.6519 57.1141C54.6875 58.3484 53.7144 59.576 52.7301 60.7943C52.4954 61.0848 52.533 61.2666 52.7969 61.5138C53.677 62.338 54.195 63.3265 54.1112 64.578C54.0194 65.9485 53.401 66.9866 52.1712 67.5967C51.7799 67.7908 51.5623 68.0218 51.4296 68.4313C51.098 69.4551 50.4414 70.2637 49.6178 70.9363C49.0158 71.4278 48.3127 71.6591 47.552 71.4788C47.1212 71.3768 46.9223 71.5427 46.7161 71.8558C46.35 72.4119 45.9738 72.9595 45.5196 73.4536C44.4896 74.5742 43.194 74.8243 41.772 74.6024C41.3628 74.5386 41.1095 74.5902 40.856 74.9392C40.3064 75.696 39.675 76.3938 39.1373 77.1583C38.4809 78.0915 37.5638 78.2403 36.5591 78.0869C36.2064 78.033 36.0363 78.0998 35.8613 78.3839C35.0396 79.7179 34.2004 81.041 33.3736 82.3719C33.158 82.7189 32.9185 83.0328 32.4838 83.0892C32.0553 83.1448 31.648 83.0888 31.374 82.7001C31.0609 82.2559 31.055 81.7887 31.3378 81.3311C31.8585 80.4885 32.3925 79.6543 32.919 78.8153C33.1583 78.4339 33.376 78.0377 33.6336 77.6693C34.0435 77.0831 34.2906 76.5526 34.0085 75.7568C33.7324 74.9777 33.9555 74.1121 34.3429 73.351C34.5047 73.0332 34.43 72.8853 34.1204 72.7278C33.4701 72.3971 32.891 72.3541 32.1953 72.7142C30.3717 73.658 28.4616 74.391 26.4158 74.7151C25.9687 74.7859 25.5535 74.8223 25.2433 74.408C25.1504 74.2838 25.0238 74.2342 24.8699 74.2262C24.2246 74.1927 23.58 74.1402 22.9343 74.1185C19.4303 74.0005 15.9245 73.9228 12.4229 73.7562C11.3683 73.706 10.3013 73.7834 9.1949 73.4954C9.14958 74.2399 9.06441 74.9165 9.07537 75.5916C9.11111 77.7923 8.99089 79.9893 8.95811 82.1883C8.9486 82.8254 8.59224 83.2417 8.02019 83.3101C7.26022 83.4009 6.88005 83.1525 6.68306 82.4575C6.59678 82.1531 6.62718 81.8478 6.64261 81.544C6.76968 79.0425 6.77049 76.5363 6.89029 74.0362C6.93807 73.0391 6.76632 72.4068 5.90967 71.7446C4.27467 70.4807 3.24853 68.724 2.89517 66.6533C2.67003 65.334 2.79603 63.9882 2.8775 62.665C2.94495 61.5695 2.96114 60.4702 3.01867 59.3755C3.1074 57.6871 3.17204 55.9939 3.28796 54.3081C3.47635 51.5686 3.45105 48.8034 4.02093 46.1014C5.07848 41.0871 7.9972 37.5633 12.6568 35.4888C14.7417 34.5606 16.9512 34.0966 19.2165 33.9018C19.5562 33.8726 19.7543 33.7242 19.8858 33.451C20.2373 32.7207 20.5713 31.9819 20.9245 31.2524C21.0546 30.9835 20.9456 30.7615 20.8361 30.5345C19.9624 28.7239 19.4397 26.8394 19.5735 24.8029C19.6356 23.8577 19.8823 22.9596 20.2058 22.0824C20.785 20.5117 21.3944 18.9521 21.9892 17.3871C22.0392 17.2557 22.074 17.1185 22.115 16.987C21.8909 16.7725 21.6084 16.7549 21.3646 16.6524C20.5173 16.2962 20.1855 15.6451 20.4795 14.7947C20.938 13.4679 21.4294 12.1526 21.9016 10.8305C22.1396 10.1643 22.6065 9.79192 23.3076 9.76588C23.67 9.75241 23.7812 9.51559 23.932 9.26262C25.743 6.22366 28.1351 3.82669 31.4935 2.54762C33.527 1.77316 35.6471 1.63169 37.8037 1.81837C41.8455 2.16823 45.5618 3.71295 49.3573 4.96128C51.0284 5.51088 52.7175 6.00904 54.3483 6.68384C55.0338 6.96745 55.5392 7.40183 55.9322 8.00612C57.2216 9.98864 57.5171 12.1288 56.9842 14.4164C56.6746 15.7457 56.4234 17.0886 56.115 18.4183C56.0451 18.7198 56.1103 18.8911 56.3428 19.0591C57.5326 19.919 57.8141 20.8974 57.2545 22.2721C56.1345 25.0239 55.0052 27.772 53.8802 30.5218C53.5599 31.3047 53.2377 32.0868 52.9227 32.8718C52.3943 34.189 51.5692 34.6777 50.1744 34.4385C49.7945 34.3733 49.7008 34.5813 49.5949 34.8409C48.9897 36.3249 48.3246 37.7831 47.6928 39.2554C46.6737 41.6304 45.0685 43.3619 42.5992 44.2258C42.5342 44.2485 42.4755 44.2891 42.3173 44.3719C42.7648 44.8529 43.1663 45.3232 43.53 45.8223C44.6941 47.4199 45.2612 49.2421 45.569 51.1626C45.737 52.2113 45.8442 53.2677 45.7884 54.3324C45.7692 54.6978 45.9267 54.8484 46.2811 54.8874C46.7968 54.9441 47.3218 54.9924 47.8174 55.1337C48.2434 55.2552 48.5068 55.1083 48.7605 54.8182C50.2066 53.1648 51.6707 51.5269 53.0941 49.8541C54.0343 48.7491 54.6512 48.507 56.0083 48.9585C56.4499 49.1055 56.6521 48.8691 56.8673 48.6071C57.6328 47.6752 58.3954 46.7407 59.1436 45.7949C60.744 43.772 63.6808 42.8528 66.2283 44.0254C68.3688 45.0106 70.5257 45.9601 72.6754 46.9251C72.756 46.9612 72.8379 46.9941 72.9707 47.0503C72.9866 46.3161 72.7744 45.6539 72.667 44.9801C72.5591 44.3023 72.769 43.7521 73.2602 43.5637C73.8264 43.3465 74.334 43.5633 74.6872 44.1942C75.0349 44.8153 75.367 45.4452 75.7323 46.1199C76.2946 45.6481 76.6349 45.0919 77.0442 44.6013C78.1517 43.2738 79.2677 41.9542 80.4403 40.6837C80.843 40.2473 81.2924 40.1549 81.7499 40.3994C82.2275 40.6547 82.4009 41.0885 82.2284 41.6902C81.7905 43.2178 81.134 44.6617 80.5193 46.1215C80.3675 46.4819 80.2277 46.8473 80.0655 47.2525C80.7982 47.405 81.4433 47.2018 82.0928 47.1521C82.9497 47.0866 83.7898 46.8618 84.6568 46.8748C84.9288 46.8788 85.1906 46.9175 85.4555 46.9773C85.8497 47.0663 86.1858 47.2235 86.2744 47.6534C86.3671 48.103 86.1863 48.4698 85.8306 48.7424C85.1579 49.2581 84.4239 49.6799 83.6953 50.1085C82.89 50.5822 82.078 51.0445 81.2514 51.5219C81.3372 51.8148 81.564 51.9427 81.7509 52.0939C82.9404 53.0557 84.1363 54.0096 85.3284 54.9681C85.8622 55.3973 85.9981 55.8412 85.7525 56.3289C85.5004 56.8296 84.9348 57.0456 84.3159 56.823C82.8789 56.3061 81.4508 55.7641 80.0181 55.2349C79.8532 55.1739 79.6822 55.1295 79.4899 55.07C79.3052 55.4203 79.3676 55.7675 79.3991 56.0924C79.5569 57.7186 79.7411 59.3421 79.9094 60.9673C79.9714 61.5658 79.6536 62.0678 79.1567 62.1884C78.6598 62.3089 78.2084 62.0613 77.964 61.4955C77.2284 59.7928 76.5226 58.0767 75.6541 56.435C75.5792 56.2936 75.4999 56.1546 75.3757 55.9292C74.8295 56.4211 74.2933 56.8599 73.8083 57.3497C72.7693 58.399 71.7573 59.4751 70.7329 60.539C70.4156 60.8686 70.0837 61.1517 69.5749 61.1326C68.9632 61.1096 68.6867 60.8301 68.7265 60.2187C68.7484 59.8827 68.9126 59.6025 69.0715 59.3201C70.1136 57.4676 71.1566 55.6156 72.1977 53.7625C72.2577 53.6557 72.3039 53.5412 72.402 53.3342C71.3693 53.3342 70.4042 53.3309 69.4393 53.3361C69.1137 53.3378 68.7936 53.321 68.4795 53.2258C67.7266 52.9976 67.5051 52.1641 68.0727 51.609C68.5535 51.1388 69.18 50.8754 69.7383 50.5149C70.4286 50.0691 71.1281 49.6374 71.7989 49.2151C71.7594 49.013 71.6581 48.9666 71.5614 48.9227C69.7761 48.1125 67.9917 47.3003 66.2029 46.4981C65.8265 46.3294 65.4391 46.1797 65.0462 46.0544C63.2624 45.4855 61.7136 45.9861 60.5731 47.483C60.224 47.9412 59.869 48.395 59.4971 48.8838ZM26.5476 9.8471C26.4543 10.0365 26.2883 10.1985 26.3234 10.4527C26.3745 10.491 26.4251 10.5496 26.4886 10.5731C26.9939 10.7606 27.503 10.9382 28.0086 11.1251C28.9728 11.4813 29.4163 12.2577 29.0837 13.2208C28.5788 14.6831 28.0161 16.1269 27.4306 17.5591C27.1199 18.319 26.4881 18.5473 25.7005 18.2892C25.3764 18.1829 25.0466 18.0867 24.7358 17.9487C24.3791 17.7902 24.1937 17.8567 24.0474 18.2442C23.5514 19.5578 23.0337 20.8637 22.499 22.1621C21.514 24.5537 21.6346 26.895 22.7449 29.2134C23.559 30.9131 24.5621 32.4873 25.7782 33.9247C29.4085 38.2156 33.735 41.3547 39.4535 42.1537C41.0878 42.3821 42.5956 42.0832 43.8532 40.9041C44.4789 40.3175 44.9968 39.6683 45.3648 38.8871C46.1997 37.1146 46.9925 35.3249 47.7296 33.4878C47.4916 33.3906 47.2945 33.307 47.0951 33.229C43.2283 31.7154 39.3625 30.1989 35.493 28.6922C34.6816 28.3762 34.1286 27.8473 33.9194 26.9831C33.7669 26.3533 33.7897 25.7342 34.0141 25.1272C35.3758 21.4429 36.9294 17.8377 38.5104 14.2448C38.9666 13.2082 40.076 12.8097 41.211 13.2338C44.2422 14.3663 47.2665 15.5172 50.2938 16.6604C51.4659 17.103 52.6385 17.5445 53.8578 18.0041C54.2562 16.5977 54.5048 15.241 54.7895 13.8928C54.9724 13.0267 55.1087 12.1625 54.8972 11.277C54.5437 9.79807 53.9035 8.67446 52.2652 8.19896C48.3867 7.07329 44.6163 5.5898 40.6967 4.5925C38.5592 4.04865 36.3881 3.75463 34.1911 4.15586C30.75 4.78432 28.2067 6.6654 26.5476 9.8471ZM18.3731 71.6592C18.8227 71.6641 19.2704 71.7069 19.7183 71.7322C21.046 71.807 22.3767 71.8278 23.706 71.8771C24.047 71.8898 24.1741 71.7467 24.0888 71.4192C23.7756 70.2159 23.6031 68.9872 23.5208 67.7518C23.4215 66.2604 23.4024 64.7637 23.5385 63.2714C23.6243 62.3317 23.7319 61.394 23.8321 60.4324C23.698 60.4093 23.5948 60.3754 23.4918 60.376C21.063 60.3907 18.6411 60.1833 16.2139 60.1567C15.8776 60.153 15.564 60.0844 15.3016 59.8816C14.8947 59.5673 14.7229 59.152 14.8817 58.6409C15.0374 58.1396 15.5251 57.8135 16.149 57.8217C16.5609 57.8271 16.9732 57.8726 17.3833 57.9183C17.8399 57.9691 17.9554 57.7641 17.9677 57.3276C18.0161 55.6011 18.1061 53.8758 18.1757 52.1499C18.1866 51.8799 18.294 51.6596 18.4798 51.4789C18.853 51.1161 19.2789 51.0422 19.7672 51.2386C20.227 51.4235 20.4289 51.7369 20.419 52.2384C20.3869 53.8774 20.3184 55.5142 20.209 57.15C20.1897 57.4386 20.0384 57.8265 20.3388 58.0076C20.7531 58.2574 21.27 58.2049 21.7041 58.0775C22.0223 57.9841 21.9481 57.561 21.9516 57.2622C21.964 56.2164 21.8888 55.1627 21.9917 54.1264C22.1906 52.1231 21.8778 50.186 21.4493 48.2487C20.4939 43.9293 18.0802 40.4619 15.1207 37.3071C14.9351 37.1092 14.7729 37.1173 14.5489 37.1983C10.812 38.5497 8.07848 40.9576 6.67946 44.7453C5.77959 47.1816 5.82272 49.7645 5.62723 52.3012C5.44202 54.7045 5.42799 57.1208 5.25838 59.5256C5.18984 60.4976 5.20721 61.4689 5.13976 62.4394C5.05898 63.6016 4.95879 64.7669 5.06698 65.9348C5.32471 68.7167 7.68729 71.1038 10.4577 71.327C13.0555 71.5364 15.6633 71.5491 18.3731 71.6592ZM47.7528 63.8825C48.1357 63.9367 48.4587 64.1234 48.7869 64.3168C49.4529 64.7094 50.1386 65.0683 50.808 65.4554C51.1741 65.6672 51.4351 65.5264 51.6314 65.2261C51.8669 64.8658 51.9462 64.4767 51.7924 64.0445C51.5878 63.4692 51.2008 63.0609 50.6925 62.7602C49.2371 61.899 47.7453 61.1047 46.2371 60.3404C45.2887 59.8597 45.1541 58.9993 45.8931 58.2406C46.1335 57.9937 46.4293 57.7762 46.4892 57.3529C45.5831 57.3529 44.7186 57.3097 43.861 57.3685C43.3148 57.406 42.7566 57.4744 42.2362 57.7101C40.8446 58.3407 39.4453 58.9545 38.0479 59.5723C37.1334 59.9766 36.1892 60.1884 35.1753 60.1629C32.3519 60.0919 29.5272 60.0756 26.704 60.0033C26.1641 59.9895 25.9838 60.1944 25.9122 60.6879C25.7103 62.0774 25.5853 63.4698 25.5639 64.8748C25.5282 67.2213 25.6175 69.5496 26.3352 71.8115C26.5708 72.5539 26.5598 72.5614 27.3381 72.3591C28.8593 71.9636 30.3212 71.39 31.6871 70.6295C32.6435 70.0971 33.5167 70.128 34.5169 70.4384C36.9304 71.1874 39.3386 71.974 41.8451 72.3734C42.9106 72.5431 43.8635 72.4215 44.4114 71.3102C44.5139 71.1022 44.6615 70.9134 44.8071 70.7308C45.0294 70.4518 45.085 70.2101 44.8839 69.8586C44.6274 69.4102 44.6394 68.9075 45.0419 68.5164C45.4292 68.1401 45.907 68.0934 46.3915 68.3017C46.6872 68.4288 46.9604 68.6089 47.2421 68.7681C48.3296 69.3824 48.4233 69.3586 49.0802 68.2928C49.1086 68.2468 49.1369 68.2007 49.1631 68.1534C49.4664 67.605 49.4356 67.4515 48.903 67.0966C48.3794 66.7478 47.848 66.4102 47.3129 66.0792C46.7889 65.7551 46.6006 65.2875 46.7023 64.6959C46.7943 64.1611 47.2059 63.9915 47.7528 63.8825ZM26.0553 46.3445C24.8268 42.7108 22.693 39.6342 20.1875 36.7881C19.9643 36.5345 19.7512 36.1667 19.3988 36.175C18.7861 36.1895 18.1514 36.1892 17.5076 36.5031C17.6701 36.7181 17.8025 36.9046 17.9463 37.0816C18.6848 37.9907 19.3912 38.9239 20.0486 39.8935C22.8155 43.9743 24.432 48.4221 24.2547 53.4147C24.2061 54.7848 24.201 56.1533 24.1932 57.5228C24.1922 57.7088 24.1132 57.9209 24.3363 58.1198C25.1036 57.6544 25.9648 57.6073 26.8563 57.6336C29.9123 57.7239 32.9684 57.8401 36.0267 57.8036C36.2183 57.8014 36.4208 57.7475 36.598 57.6707C37.5879 57.2419 38.5697 56.7945 39.5583 56.3627C39.8792 56.2225 40.007 56.0085 39.9985 55.6489C39.973 54.5687 39.9379 53.4883 39.9145 52.4092C39.8669 50.2119 39.7325 48.0165 39.7683 45.8164C39.7906 44.4497 39.9593 44.8073 38.6241 44.5768C38.1737 44.4991 37.9768 44.651 37.9961 45.1557C38.0585 46.7934 37.9742 48.4335 38.1033 50.0724C38.1739 50.9679 37.5229 51.6844 36.6738 51.7085C34.2295 51.778 31.788 51.9224 29.3416 51.9447C28.408 51.9533 27.7913 51.5856 27.4432 50.7401C27.3274 50.4585 27.2291 50.1679 27.147 49.8746C26.8226 48.7149 26.5079 47.5525 26.0553 46.3445ZM52.85 27.0366C53.5744 25.2528 54.3007 23.4698 55.0223 21.6849C55.2718 21.0676 55.2177 20.9444 54.6207 20.7166C51.1305 19.3851 47.6414 18.0506 44.1487 16.7256C42.9284 16.2626 41.699 15.8237 40.4795 15.3759C40.4188 15.4742 40.3842 15.5166 40.3638 15.565C38.9514 18.9138 37.5113 22.2511 36.1976 25.6408C35.9448 26.2931 36.0342 26.4625 36.7188 26.7302C40.5673 28.2348 44.4141 29.7437 48.2671 31.2364C49.0791 31.551 49.8749 31.9212 50.7683 32.1465C51.4638 30.4431 52.1432 28.7791 52.85 27.0366ZM23.2344 36.9587C24.0656 37.8646 24.7599 38.8744 25.3985 39.9185C27.109 42.7149 28.3342 45.7284 29.2724 48.8609C29.4351 49.4041 29.6462 49.6472 30.2674 49.6104C31.81 49.5191 33.3577 49.5093 34.9035 49.477C35.732 49.4596 35.7551 49.4396 35.7796 48.5881C35.8221 47.1094 35.6963 45.634 35.7035 44.157C35.7058 43.6777 35.5331 43.4709 35.094 43.3076C30.8553 41.7314 27.3355 39.1191 24.3313 35.7663C23.6731 35.0317 23.0821 34.2441 22.4166 33.3867C22.1549 33.9177 21.9381 34.3846 21.6962 34.8382C21.5476 35.1167 21.6264 35.3047 21.8461 35.4944C22.3376 35.9187 22.7806 36.3917 23.2344 36.9587ZM52.1379 57.914C53.3225 56.4418 54.493 54.9578 55.6961 53.5009C56.7453 52.2304 56.7178 52.0094 55.2617 51.2151C55.1864 51.174 55.0989 51.1553 54.9988 51.1196C52.7761 53.6555 50.5699 56.1843 48.4226 58.8699C49.0032 59.1819 49.517 59.4324 50.0034 59.7281C50.3447 59.9356 50.5658 59.9061 50.8084 59.574C51.2113 59.0227 51.6571 58.5028 52.1379 57.914ZM73.3992 51.3172C73.936 51.4509 74.423 51.6455 74.677 52.2018C74.9288 52.7534 74.668 53.2718 74.5545 53.8687C75.0328 53.4999 75.5032 53.3351 76.0225 53.389C76.6094 53.4499 76.834 53.9643 77.2189 54.5588C77.2489 53.3513 77.1281 52.167 78.7715 52.4375C78.588 52.1858 78.3556 52.0193 78.3282 51.691C78.2754 51.0567 78.4957 50.6221 79.0727 50.3327C79.472 50.1325 79.9382 50.0256 80.2778 49.613C79.8657 49.5092 79.52 49.5683 79.1647 49.6279C78.0428 49.8161 77.3392 49.1179 77.6154 48.0957C77.6996 47.7845 77.8385 47.4882 77.9733 47.1294C77.5017 47.3815 77.2956 47.7687 77.037 48.1122C76.6683 48.6021 76.2643 49.0318 75.551 48.8144C75.3147 48.7424 75.2019 48.8679 75.1392 49.1062C74.9833 49.6987 74.5833 50.0982 74.0594 50.3911C73.7936 50.5397 73.5088 50.667 73.3081 50.9087C73.2003 51.0385 73.0017 51.1885 73.3992 51.3172ZM42.4207 47.9346C42.3072 47.7817 42.2753 47.5691 42.0121 47.4188C42.0121 47.6935 42.0123 47.9185 42.012 48.1435C42.0101 50.1375 42.1443 52.1266 42.2206 54.1178C42.2643 55.2588 42.0787 55.1926 43.2666 54.8969C43.5332 54.8305 43.6828 54.735 43.6846 54.4429C43.6983 52.2148 43.4381 50.0399 42.4207 47.9346ZM23.3745 13.3824C23.2203 13.8377 23.0661 14.2929 22.8906 14.8108C23.7806 15.126 24.6215 15.4239 25.4625 15.7215C25.6382 15.7837 25.7396 15.6953 25.7942 15.5426C26.0816 14.7385 26.3652 13.9329 26.6659 13.0833C25.692 12.7535 24.7858 12.4467 23.8425 12.1273C23.6795 12.5677 23.5432 12.9361 23.3745 13.3824ZM36.2491 74.8282C36.1916 75.1598 36.3161 75.4319 36.5476 75.6519C36.7883 75.8807 37.0773 76.1212 37.3808 75.7967C37.8652 75.2787 38.2935 74.7105 38.6804 74.1022C38.3342 73.853 37.9633 73.838 37.6285 73.7256C36.8701 73.4709 36.7245 73.5446 36.4079 74.2885C36.3452 74.4359 36.3137 74.5965 36.2491 74.8282Z" fill="#EDD118"/>
<path d="M66.7788 35.9108C68.1716 37.7232 69.5382 39.5056 70.9071 41.2863C71.1946 41.6603 71.4994 42.027 71.3586 42.5501C71.2483 42.9599 71.0115 43.2725 70.5811 43.3589C70.1345 43.4486 69.7289 43.3647 69.426 42.9714C68.2201 41.4058 67.0077 39.8452 65.8002 38.2808C65.5369 37.9397 65.2723 37.5986 65.0287 37.2435C64.5985 36.6164 64.6453 35.992 65.1322 35.609C65.5964 35.2438 66.2452 35.3524 66.7788 35.9108Z" fill="#EDD118"/>
<path d="M76.2176 33.0756C76.4158 33.3573 76.4568 33.6354 76.4567 33.931C76.4566 35.8424 76.4639 37.7539 76.4655 39.6654C76.4662 40.5053 76.0804 40.9765 75.3846 40.9982C74.7381 41.0183 74.2537 40.498 74.2389 39.7C74.2172 38.5282 74.2315 37.3558 74.2309 36.1836C74.2305 35.4803 74.2419 34.7768 74.2274 34.0738C74.2168 33.5611 74.2764 33.0832 74.7864 32.8252C75.2934 32.5686 75.7629 32.6989 76.2176 33.0756Z" fill="#EDD118"/>
<path d="M45.5687 28.5048C43.6042 27.6955 41.673 26.9146 39.7536 26.1058C38.8599 25.7292 38.585 24.9123 38.9708 24.0099C39.6212 22.4884 40.2611 20.9624 40.8981 19.4352C41.2623 18.5618 42.0436 18.1982 42.9527 18.5177C45.6475 19.4649 48.2994 20.5228 50.9299 21.6356C51.3931 21.8315 51.8622 22.0133 52.3275 22.2041C52.9908 22.4761 53.3125 23.1017 53.0502 23.7729C52.3305 25.6146 51.5901 27.4488 50.8249 29.272C50.5463 29.9359 49.8103 30.151 49.0194 29.8516C47.8777 29.4195 46.744 28.966 45.5687 28.5048ZM41.4028 24.0671C41.3041 24.393 41.5788 24.4175 41.7621 24.4917C43.7449 25.2933 45.7287 26.0927 47.7162 26.8823C48.1592 27.0583 48.5801 27.312 49.1139 27.356C49.5664 26.1907 50.0135 25.0397 50.4765 23.8475C47.8821 22.7892 45.3485 21.759 42.733 20.8905C42.2799 21.972 41.8562 22.9833 41.4028 24.0671Z" fill="#EDD118"/>
</svg>
