<svg width="89" height="82" viewBox="0 0 89 82" fill="none" xmlns="http://www.w3.org/2000/svg">
<path d="M24.6902 36.8736C25.4026 36.6308 25.9519 36.8614 26.442 37.3165C28.9044 39.6031 31.2275 42.0301 33.6025 44.4048C35.5846 46.3865 37.588 48.3469 39.5648 50.3338C39.8891 50.6598 40.0831 50.6543 40.4024 50.3293C44.3552 46.3058 48.3203 42.2945 52.2828 38.2806C52.8431 37.713 53.4064 37.1484 54.0272 36.523C53.357 35.8573 52.6948 35.1987 52.0317 34.5411C49.5967 32.1259 47.1591 29.7134 44.7272 27.2952C43.3697 25.9454 42.0212 24.5865 40.6692 23.2312C40.3681 22.9293 40.1053 22.61 40.1737 22.1387C40.3105 21.1958 41.2701 20.8222 42.0738 21.4047C42.6535 21.8249 43.1635 22.3242 43.6693 22.8285C46.5543 25.7049 49.424 28.597 52.3372 31.4447C53.3699 32.4542 54.4038 33.4622 55.4088 34.499C55.6823 34.7811 55.864 34.7607 56.1314 34.4897C57.4883 33.114 58.893 31.7842 60.2193 30.3801C61.3465 29.1866 63.0953 29.435 63.9481 30.4633C64.1588 30.7174 64.3997 30.9464 64.6258 31.1879C65.0416 31.6319 65.4317 32.0508 66.153 32.0115C66.5994 31.9871 66.9829 32.3313 67.3087 32.6599C67.7501 33.1049 68.157 33.5944 68.645 33.981C69.8088 34.903 69.8742 37.4734 68.6763 38.6041C66.7278 40.4432 64.8395 42.3461 62.9279 44.2242C62.1796 44.9593 61.6789 45.8365 61.3867 46.8464C60.8397 48.737 61.4559 50.3635 62.4856 51.9066C63.0741 52.7883 63.0385 53.1291 62.2543 53.8694C62.0655 54.0476 62.138 54.2004 62.2124 54.3817C62.4242 54.8976 62.8607 55.1881 63.3033 55.4673C63.6132 55.6629 63.9156 55.8617 64.1738 56.1268C64.4515 56.4121 64.7809 56.5717 65.2002 56.5294C65.7054 56.4785 66.1206 56.7091 66.465 57.0448C68.2221 58.7572 69.9589 60.4907 71.7235 62.1953C73.3496 63.7662 75.0337 65.278 76.6329 66.8753C77.9502 68.1908 79.254 69.523 80.6332 70.7697C82.2274 72.2108 82.5471 74.3556 81.6609 76.285C80.5943 78.6073 77.3265 79.9378 74.9349 78.4602C74.2142 78.015 73.69 77.3509 73.1345 76.7339C70.7279 74.061 68.3413 71.3701 65.9492 68.6842C64.2729 66.802 62.6039 64.9134 60.9228 63.0357C60.3091 62.3501 60.0493 61.5713 60.2877 60.6779C60.3846 60.3146 60.2701 60.0898 60.0336 59.8535C59.2966 59.1173 58.5 58.4384 57.8343 57.5434C57.1379 58.3161 56.4647 57.9889 55.7383 57.5765C54.2644 56.7396 52.6875 56.5982 51.0467 57.0072C50.1665 57.2266 49.4455 57.7023 48.8757 58.3754C47.5342 59.9602 45.9777 61.3321 44.5455 62.8266C43.9433 63.4549 43.323 64.0661 42.7037 64.6779C41.46 65.9066 39.6593 65.8996 38.4158 64.6648C37.8722 64.125 37.3458 63.567 36.7856 63.0451C36.4489 62.7315 36.2185 62.3634 36.1816 61.9239C36.1477 61.5202 35.9581 61.2531 35.6821 60.9977C35.2228 60.5725 34.8067 60.1044 34.3279 59.6961C33.5661 59.0465 33.4428 57.9218 34.0037 56.9263C34.252 56.4855 34.6108 56.1449 34.9877 55.7976C36.0491 54.819 37.0472 53.7717 38.0703 52.7515C38.2831 52.5393 38.2109 52.3586 38.023 52.1712C36.3469 50.4987 34.687 48.8098 32.9959 47.1526C31.6286 45.8128 30.2687 44.4675 28.9372 43.0909C27.5228 41.6286 26.0308 40.2407 24.5566 38.8372C24.1922 38.4902 24.0561 38.104 24.1251 37.6231C24.1733 37.2872 24.3549 37.0485 24.6902 36.8736ZM63.4086 36.9345C55.2107 45.1206 47.2725 53.5635 38.7559 61.6502C39.2963 62.1394 39.73 62.5394 40.1722 62.9297C40.4744 63.1965 40.7294 63.0849 40.9873 62.8298C42.2119 61.6182 43.4491 60.4194 44.6735 59.2076C45.4035 58.4853 46.1608 57.7841 46.8282 57.0068C47.5691 56.1439 48.3978 55.4324 49.4606 55.0181C51.7214 54.1369 53.9769 54.2291 56.2264 55.0713C56.3876 55.1316 56.5322 55.3176 56.7368 55.1078C57.7057 54.1134 58.6436 53.0843 59.8554 52.3085C58.9802 50.7789 58.6638 49.1674 58.8086 47.4599C58.9242 46.0966 59.3616 44.8502 60.1652 43.7417C60.9963 42.5952 62.0979 41.7002 63.0673 40.6826C64.2673 39.4228 65.5453 38.2377 66.7749 37.0057C67.2864 36.4932 67.2931 36.2109 66.8321 35.6512C66.6238 35.3985 66.3332 35.2147 66.1163 34.9676C65.8537 34.6684 65.6491 34.7067 65.3894 34.9718C64.7562 35.6181 64.1047 36.2464 63.4086 36.9345ZM74.1644 67.9425C71.3228 65.1768 68.4815 62.4109 65.6394 59.6458C65.3949 59.4079 65.1449 59.1755 64.7958 58.8441C64.113 59.5716 63.4773 60.2629 62.824 60.937C62.6127 61.155 62.6532 61.3112 62.837 61.5096C63.3568 62.0706 63.8708 62.6373 64.378 63.2098C66.5234 65.631 68.6586 68.0612 70.811 70.4761C72.453 72.3184 74.0674 74.186 75.7764 75.9678C76.3941 76.612 77.1363 76.9102 77.9917 76.5632C78.9512 76.1739 79.6057 75.4841 79.7174 74.397C79.7787 73.8003 79.6533 73.2768 79.1911 72.8324C77.524 71.2291 75.8764 69.6057 74.1644 67.9425ZM53.4249 43.5631C56.6799 40.1405 60.0716 36.8514 63.4387 33.4251C63.0614 33.0696 62.7173 32.7959 62.4367 32.468C62.0983 32.0725 61.8645 32.1255 61.5177 32.4805C59.0264 35.0302 56.4484 37.4936 54.0031 40.0901C51.6305 42.6094 49.0955 44.9688 46.7019 47.471C43.5752 50.7396 40.3418 53.9062 37.1494 57.1119C36.1677 58.0978 36.1714 58.0798 37.1421 59.0779C37.4357 59.3797 37.6331 59.3607 37.913 59.0817C38.935 58.0634 39.99 57.0767 41.012 56.0609C45.1582 51.9397 49.2561 47.77 53.4249 43.5631ZM60.0337 55.2836C59.4536 55.6191 59.4102 55.734 59.7914 56.2173C60.3416 56.9151 60.9588 57.5439 61.6957 58.0588C62.0843 58.3303 62.2749 58.2017 62.5025 57.8004C61.4736 57.18 60.5171 56.4939 60.0337 55.2836Z" fill="#EDD118"/>
<path d="M11.0238 40.783C11.0239 45.1314 11.0239 49.4276 11.0239 53.7502C11.5825 53.7502 12.0822 53.7518 12.5818 53.7499C15.0333 53.7408 17.4847 53.7251 19.9361 53.7224C22.7384 53.7194 25.5406 53.7257 28.3429 53.7343C28.6017 53.7352 28.8659 53.7578 29.1181 53.8133C29.7476 53.9521 30.1799 54.5327 30.1032 55.101C30.009 55.7994 29.5833 56.1858 28.8681 56.1864C24.3594 56.1903 19.8507 56.1867 15.342 56.19C13.6207 56.1912 11.8996 56.281 10.1782 56.1899C9.15281 56.1357 8.65717 55.6342 8.65495 54.6066C8.64977 52.2037 8.65841 49.8008 8.65206 47.3979C8.62996 39.0417 8.55009 30.6852 8.60242 22.3295C8.62782 18.2742 8.61268 14.2186 8.65329 10.1634C8.66344 9.14996 9.14951 8.66921 10.1704 8.66919C26.4335 8.6688 42.6967 8.66884 58.9598 8.6696C60.1125 8.66966 60.7415 9.25832 60.7474 10.4365C60.7666 14.2845 60.7588 18.1327 60.7606 21.9807C60.7615 23.7568 60.765 25.5329 60.758 27.3089C60.7554 27.9416 60.4068 28.3964 59.8429 28.5511C59.3473 28.6871 58.8874 28.5238 58.6187 28.0897C58.4212 27.7707 58.3883 27.4095 58.3886 27.0378C58.3926 21.9883 58.3914 16.9387 58.391 11.8891C58.3909 11.1321 58.39 11.1312 57.6095 11.1311C50.5749 11.1298 43.5403 11.1287 36.5057 11.128C35.7981 11.1279 35.7931 11.1292 35.7928 11.849C35.7908 18.0652 35.7901 24.2814 35.7907 30.4976C35.7907 31.1383 35.7956 31.1241 36.441 31.0903C37.1012 31.0558 37.7644 31.0365 38.4224 31.1236C39.0647 31.2086 39.5226 31.7214 39.5139 32.3187C39.5053 32.9192 39.033 33.4239 38.3937 33.4944C38.1699 33.5191 37.9415 33.5046 37.7151 33.5046C29.0786 33.5049 20.4421 33.5048 11.8056 33.5049C11.023 33.5049 11.0241 33.5057 11.0242 34.3059C11.0246 36.4475 11.024 38.5891 11.0238 40.783ZM11.6383 31.1032C13.4833 31.1109 15.3282 31.1238 17.1731 31.125C20.6353 31.1273 24.0979 31.1513 27.5596 31.1096C29.3876 31.0876 31.215 31.0662 33.0424 31.0994C33.4277 31.1063 33.4176 30.8957 33.4176 30.6382C33.4171 24.2998 33.4143 17.9613 33.4245 11.6229C33.4252 11.2171 33.2635 11.1173 32.8969 11.1254C32.1137 11.1427 31.3298 11.1301 30.5462 11.13C24.26 11.1294 17.9738 11.1346 11.6876 11.1176C11.1615 11.1162 11.0109 11.2616 11.0124 11.7943C11.0309 18.0107 11.027 24.2273 11.0189 30.4439C11.0183 30.8425 11.051 31.1487 11.6383 31.1032Z" fill="#EDD118"/>
<path d="M8.06264 58.6183C15.15 58.6183 22.1851 58.6178 29.2203 58.6204C29.4623 58.6205 29.7167 58.6087 29.9439 58.6755C30.6223 58.8752 30.963 59.4042 30.8735 60.0515C30.7733 60.7752 30.3857 61.0854 29.5615 61.0855C23.6409 61.0863 17.7202 61.085 11.7995 61.0844C9.7099 61.0843 7.61869 61.0355 5.53118 61.1023C4.22543 61.144 3.63814 60.3813 3.63941 59.1757C3.64231 56.4244 3.64152 53.673 3.64145 50.9217C3.64107 35.8762 3.64836 20.8308 3.62586 5.78537C3.62392 4.4915 4.28759 3.84686 5.54635 3.84815C24.893 3.868 44.2396 3.86176 63.5862 3.8618C63.7952 3.8618 64.0049 3.85285 64.2129 3.86805C65.0293 3.92772 65.5653 4.48643 65.5666 5.30265C65.5717 8.64607 65.5716 11.9895 65.5669 15.3329C65.566 16.0203 65.0295 16.5634 64.3986 16.5474C63.7793 16.5317 63.2087 15.9639 63.2073 15.3278C63.2012 12.559 63.2046 9.79024 63.2043 7.02147C63.2042 6.33548 63.2038 6.33426 62.5139 6.33425C43.9683 6.33403 25.4227 6.33401 6.87714 6.33429C6.1062 6.3343 6.10482 6.33575 6.1048 7.11588C6.10442 24.0594 6.10648 41.0029 6.09407 57.9464C6.0937 58.4601 6.20853 58.6868 6.75787 58.628C7.171 58.5838 7.59259 58.6186 8.06264 58.6183Z" fill="#EDD118"/>
<path d="M75.2587 29.1718C75.2296 29.425 75.1971 29.6316 75.1843 29.8394C75.1346 30.6452 74.631 31.2074 73.956 31.202C73.2948 31.1968 72.7571 30.6139 72.71 29.8429C72.6632 29.078 72.5659 28.3212 72.3018 27.5981C71.3038 24.8663 69.3983 23.2166 66.507 22.7266C65.9251 22.6279 65.2722 22.623 64.997 21.9079C64.7159 21.1774 65.0288 20.4824 65.8006 20.2773C66.3185 20.1397 66.8593 20.0896 67.379 19.9576C70.0734 19.2736 72.2133 16.8756 72.6089 14.1201C72.6679 13.709 72.7228 13.2965 72.8048 12.8897C72.9318 12.2585 73.3968 11.8931 74.019 11.9082C74.627 11.9228 75.0645 12.2819 75.1754 12.9029C75.3185 13.7039 75.3672 14.5219 75.6658 15.2923C76.7256 18.026 78.6247 19.7452 81.5817 20.1612C82.7825 20.3302 83.3666 21.2796 82.7542 22.146C82.4551 22.5692 81.9857 22.6682 81.5174 22.7258C78.2642 23.1257 75.5527 25.8958 75.2587 29.1718ZM76.323 22.4696C76.7668 22.1163 77.2106 21.7631 77.7012 21.3726C76.1168 20.4135 74.9203 19.1415 74.0157 17.4715C73.0618 19.1373 71.8476 20.436 70.2764 21.462C71.9251 22.4158 73.0845 23.7241 73.9757 25.3527C74.669 24.2876 75.376 23.3268 76.323 22.4696Z" fill="#EDD118"/>
<path d="M24.8069 45.7708C24.4334 45.4059 24.0673 45.1042 24.1064 44.5229C24.1656 43.6431 25.0321 43.1469 25.7977 43.6097C26.5047 44.0371 27.025 44.6846 27.6117 45.2466C29.2572 46.8226 30.8544 48.4488 32.4808 50.0449C32.8577 50.4148 33.0387 50.8312 32.9649 51.3553C32.9076 51.7618 32.7268 52.086 32.3281 52.2367C31.9162 52.3924 31.4821 52.4222 31.1531 52.0909C29.6709 50.5987 28.0836 49.2131 26.6868 47.6333C26.112 46.9831 25.4537 46.4069 24.8069 45.7708Z" fill="#EDD118"/>
<path d="M19.9326 21.3058C21.6917 19.544 23.4257 17.8094 25.1585 16.0737C25.5658 15.6657 26.035 15.4242 26.6145 15.6244C27.5174 15.9362 27.6998 16.969 26.9558 17.6894C25.6819 18.9229 24.4892 20.2362 23.172 21.4286C22.1417 22.3612 21.2023 23.3938 20.2169 24.3763C19.8489 24.7432 19.4309 24.9335 18.8996 24.7135C18.1186 24.3901 17.8727 23.4512 18.4427 22.8199C18.9085 22.304 19.4174 21.8269 19.9326 21.3058Z" fill="#EDD118"/>
<path d="M15.8634 21.584C15.4137 20.8508 15.467 20.4068 16.0448 19.842C17.0507 18.8588 18.0514 17.8701 19.0652 16.895C19.4713 16.5043 20.0209 16.4555 20.5073 16.7228C20.9874 16.9866 21.0996 17.4174 21.0482 17.9199C21.018 18.2154 20.8342 18.4294 20.6375 18.6254C19.6774 19.5818 18.7185 20.5396 17.7453 21.4826C17.1243 22.0844 16.5755 22.1114 15.8634 21.584Z" fill="#EDD118"/>
</svg>
