<svg width="110" height="110" viewBox="0 0 110 110" fill="none" xmlns="http://www.w3.org/2000/svg">
<g clip-path="url(#clip0_22_258)">
<circle cx="55" cy="55" r="55" fill="white"/>
<path d="M37.3612 56.3768C37.9775 56.1636 38.4528 56.3661 38.8768 56.7657C41.0072 58.7734 43.017 60.9045 45.0719 62.9896C46.7866 64.7296 48.52 66.4509 50.2302 68.1955C50.5108 68.4817 50.6786 68.477 50.9549 68.1916C54.3747 64.6588 57.8052 61.1366 61.2334 57.6122C61.7182 57.1138 62.2055 56.6181 62.7426 56.069C62.1628 55.4844 61.5899 54.9062 61.0162 54.3287C58.9095 52.2081 56.8006 50.0898 54.6966 47.9665C53.5221 46.7813 52.3554 45.5882 51.1857 44.3981C50.9252 44.1331 50.6978 43.8526 50.757 43.4389C50.8754 42.611 51.7056 42.2829 52.4009 42.7944C52.9025 43.1633 53.3437 43.6017 53.7813 44.0445C56.2773 46.5702 58.7601 49.1095 61.2805 51.6099C62.174 52.4964 63.0685 53.3814 63.9379 54.2917C64.1746 54.5395 64.3318 54.5216 64.5631 54.2836C65.7371 53.0757 66.9524 51.9081 68.0998 50.6752C69.0751 49.6272 70.588 49.8454 71.3259 50.7483C71.5082 50.9714 71.7166 51.1725 71.9122 51.3845C72.2719 51.7744 72.6094 52.1421 73.2335 52.1076C73.6197 52.0862 73.9515 52.3884 74.2334 52.6769C74.6153 53.0677 74.9673 53.4975 75.3895 53.8369C76.3964 54.6465 76.453 56.9035 75.4166 57.8962C73.7308 59.5111 72.0971 61.1819 70.4432 62.831C69.7959 63.4764 69.3627 64.2466 69.1099 65.1334C68.6366 66.7935 69.1697 68.2216 70.0606 69.5765C70.5697 70.3507 70.5389 70.6499 69.8605 71.2999C69.6971 71.4564 69.7598 71.5906 69.8242 71.7498C70.0074 72.2028 70.3851 72.4578 70.768 72.703C71.0362 72.8748 71.2978 73.0492 71.5211 73.2821C71.7614 73.5325 72.0464 73.6727 72.4091 73.6356C72.8462 73.5909 73.2055 73.7934 73.5035 74.0881C75.0236 75.5917 76.5262 77.1138 78.0529 78.6105C79.4598 79.9898 80.9168 81.3173 82.3004 82.7197C83.44 83.8749 84.5681 85.0445 85.7613 86.1392C87.1405 87.4046 87.4172 89.2878 86.6505 90.9819C85.7276 93.021 82.9005 94.1893 80.8313 92.8919C80.2078 92.5009 79.7543 91.9178 79.2737 91.3761C77.1916 89.0291 75.1267 86.6664 73.0571 84.308C71.6069 82.6554 70.1629 80.9972 68.7085 79.3484C68.1776 78.7464 67.9527 78.0626 68.159 77.2782C68.2429 76.9591 68.1438 76.7617 67.9392 76.5543C67.3015 75.9078 66.6123 75.3118 66.0364 74.5259C65.4339 75.2043 64.8514 74.9171 64.223 74.555C62.9478 73.8201 61.5835 73.696 60.164 74.0551C59.4025 74.2478 58.7787 74.6655 58.2857 75.2565C57.1251 76.648 55.7784 77.8526 54.5394 79.1648C54.0184 79.7165 53.4817 80.2532 52.9459 80.7903C51.8699 81.8692 50.312 81.8631 49.2361 80.7789C48.7658 80.3049 48.3104 79.8149 47.8257 79.3567C47.5345 79.0813 47.3351 78.7581 47.3032 78.3722C47.2738 78.0177 47.1098 77.7832 46.871 77.5589C46.4737 77.1856 46.1137 76.7746 45.6995 76.4161C45.0403 75.8457 44.9336 74.8581 45.4189 73.9841C45.6338 73.597 45.9442 73.298 46.2702 72.993C47.1885 72.1337 48.0521 71.2142 48.9372 70.3184C49.1213 70.1321 49.0589 69.9734 48.8963 69.8088C47.4462 68.3403 46.0101 66.8574 44.547 65.4023C43.364 64.2258 42.1875 63.0446 41.0356 61.8359C39.8119 60.5519 38.521 59.3333 37.2456 58.1009C36.9303 57.7962 36.8126 57.4571 36.8723 57.0349C36.914 56.74 37.0711 56.5304 37.3612 56.3768ZM70.8591 56.4303C63.7666 63.618 56.8987 71.0313 49.5304 78.1319C49.9979 78.5614 50.3731 78.9126 50.7557 79.2553C51.0172 79.4896 51.2378 79.3916 51.4609 79.1676C52.5204 78.1038 53.5908 77.0512 54.6501 75.9872C55.2817 75.3529 55.9369 74.7372 56.5143 74.0547C57.1553 73.2971 57.8722 72.6723 58.7917 72.3086C60.7477 71.5348 62.6991 71.6157 64.6453 72.3552C64.7848 72.4082 64.9099 72.5716 65.0869 72.3873C65.9251 71.5142 66.7366 70.6106 67.785 69.9294C67.0279 68.5863 66.7541 67.1714 66.8793 65.6721C66.9793 64.4751 67.3578 63.3806 68.053 62.4073C68.7721 61.4006 69.7252 60.6148 70.5638 59.7212C71.602 58.6151 72.7077 57.5745 73.7716 56.4928C74.2141 56.0428 74.2198 55.7949 73.821 55.3035C73.6408 55.0816 73.3894 54.9202 73.2017 54.7033C72.9745 54.4406 72.7975 54.4742 72.5728 54.707C72.0251 55.2744 71.4614 55.8261 70.8591 56.4303ZM80.1647 83.6568C77.7063 81.2284 75.2481 78.7998 72.7892 76.3719C72.5776 76.163 72.3613 75.959 72.0593 75.668C71.4686 76.3068 70.9185 76.9137 70.3533 77.5057C70.1706 77.6971 70.2055 77.8342 70.3646 78.0084C70.8144 78.501 71.259 78.9986 71.6978 79.5013C73.5539 81.6272 75.4013 83.761 77.2634 85.8814C78.684 87.4991 80.0808 89.1389 81.5593 90.7034C82.0938 91.269 82.7359 91.5309 83.4759 91.2262C84.3061 90.8844 84.8723 90.2787 84.969 89.3242C85.022 88.8002 84.9135 88.3406 84.5136 87.9504C83.0714 86.5426 81.6459 85.1172 80.1647 83.6568ZM62.2216 62.2505C65.0376 59.2453 67.972 56.3573 70.8851 53.3488C70.5587 53.0367 70.261 52.7964 70.0183 52.5085C69.7255 52.1612 69.5232 52.2077 69.2232 52.5194C67.0677 54.7582 64.8374 56.9212 62.7218 59.2011C60.6691 61.4131 58.4758 63.4848 56.405 65.6818C53.6999 68.5518 50.9024 71.3323 48.1405 74.147C47.2911 75.0126 47.2944 74.9969 48.1342 75.8732C48.3882 76.1383 48.5589 76.1216 48.8012 75.8766C49.6853 74.9825 50.5981 74.1161 51.4823 73.2242C55.0694 69.6055 58.6149 65.9443 62.2216 62.2505ZM67.9392 72.5417C67.4374 72.8362 67.3999 72.9372 67.7296 73.3615C68.2057 73.9742 68.7396 74.5263 69.3772 74.9784C69.7134 75.2168 69.8783 75.1039 70.0752 74.7515C69.185 74.2068 68.3575 73.6044 67.9392 72.5417Z" fill="black"/>
<path d="M25.5375 59.8095C25.5376 63.6277 25.5376 67.3999 25.5376 71.1953C26.0209 71.1953 26.4532 71.1967 26.8854 71.1951C29.0064 71.1871 31.1273 71.1733 33.2482 71.171C35.6726 71.1683 38.097 71.1738 40.5214 71.1814C40.7454 71.1821 40.9739 71.202 41.1921 71.2508C41.7368 71.3726 42.1107 71.8825 42.0444 72.3815C41.9629 72.9946 41.5946 73.3339 40.9759 73.3345C37.0751 73.3379 33.1742 73.3347 29.2734 73.3376C27.7843 73.3387 26.2952 73.4175 24.8059 73.3376C23.9188 73.2899 23.49 72.8496 23.488 71.9473C23.4836 69.8375 23.491 67.7276 23.4855 65.6177C23.4664 58.2806 23.3973 50.9432 23.4426 43.6064C23.4646 40.0457 23.4515 36.4847 23.4866 32.924C23.4954 32.0342 23.9159 31.612 24.7992 31.612C38.8695 31.6117 52.9399 31.6117 67.0102 31.6124C68.0075 31.6124 68.5517 32.1293 68.5568 33.1638C68.5734 36.5426 68.5667 39.9214 68.5682 43.3002C68.569 44.8597 68.572 46.4192 68.5659 47.9786C68.5637 48.5342 68.2622 48.9335 67.7743 49.0693C67.3455 49.1887 66.9476 49.0453 66.7151 48.6642C66.5442 48.3841 66.5158 48.067 66.516 47.7406C66.5195 43.3068 66.5184 38.873 66.5181 34.4393C66.5181 33.7746 66.5172 33.7738 65.842 33.7737C59.7559 33.7726 53.6698 33.7716 47.5837 33.771C46.9714 33.7709 46.9671 33.772 46.9669 34.4041C46.9651 39.8622 46.9645 45.3203 46.965 50.7784C46.9651 51.341 46.9693 51.3286 47.5276 51.2989C48.0988 51.2685 48.6726 51.2517 49.2419 51.3281C49.7976 51.4028 50.1937 51.853 50.1863 52.3774C50.1788 52.9047 49.7702 53.3478 49.2171 53.4098C49.0234 53.4315 48.8258 53.4187 48.63 53.4187C41.158 53.419 33.6859 53.4189 26.2139 53.419C25.5368 53.419 25.5377 53.4197 25.5378 54.1223C25.5382 56.0027 25.5377 57.8832 25.5375 59.8095ZM26.0692 51.3102C27.6653 51.3169 29.2615 51.3283 30.8577 51.3294C33.8531 51.3314 36.8488 51.3524 39.8437 51.3158C41.4252 51.2965 43.0063 51.2777 44.5873 51.3068C44.9206 51.3129 44.9119 51.128 44.9119 50.9019C44.9114 45.3365 44.909 39.771 44.9179 34.2055C44.9184 33.8492 44.7786 33.7616 44.4614 33.7687C43.7838 33.7839 43.1056 33.7728 42.4277 33.7728C36.989 33.7722 31.5504 33.7768 26.1118 33.7618C25.6567 33.7606 25.5263 33.8883 25.5277 34.356C25.5437 39.8144 25.5402 45.2728 25.5332 50.7313C25.5328 51.0813 25.561 51.3501 26.0692 51.3102Z" fill="black"/>
<path d="M22.9755 75.4698C29.1073 75.4698 35.1939 75.4693 41.2804 75.4716C41.4898 75.4717 41.71 75.4613 41.9065 75.52C42.4934 75.6954 42.7882 76.1599 42.7107 76.7282C42.6241 77.3636 42.2888 77.636 41.5757 77.6361C36.4533 77.6368 31.3309 77.6356 26.2086 77.6352C24.4007 77.635 22.5914 77.5922 20.7854 77.6508C19.6557 77.6875 19.1476 77.0178 19.1487 75.9592C19.1512 73.5434 19.1505 71.1276 19.1505 68.7117C19.1501 55.5011 19.1564 42.2905 19.137 29.0799C19.1353 27.9438 19.7095 27.3778 20.7985 27.3789C37.5366 27.3963 54.2747 27.3909 71.0128 27.3909C71.1935 27.3909 71.3751 27.383 71.555 27.3964C72.2612 27.4488 72.7251 27.9393 72.7261 28.656C72.7306 31.5917 72.7305 34.5274 72.7264 37.4631C72.7256 38.0667 72.2615 38.5435 71.7156 38.5295C71.1799 38.5157 70.6862 38.0171 70.6849 37.4586C70.6797 35.0275 70.6826 32.5964 70.6823 30.1652C70.6823 29.5629 70.6819 29.5618 70.0851 29.5618C54.04 29.5616 37.9949 29.5616 21.9499 29.5619C21.2829 29.5619 21.2817 29.5631 21.2817 30.2481C21.2813 45.1254 21.2831 60.0026 21.2724 74.8799C21.2721 75.3309 21.3714 75.5299 21.8467 75.4783C22.2041 75.4395 22.5689 75.4701 22.9755 75.4698Z" fill="black"/>
<path d="M81.1115 49.6143C81.0864 49.8366 81.0582 50.018 81.0471 50.2004C81.0041 50.908 80.5684 51.4016 79.9845 51.3969C79.4124 51.3923 78.9473 50.8805 78.9065 50.2036C78.866 49.5319 78.7818 48.8674 78.5533 48.2325C77.6899 45.8338 76.0413 44.3853 73.5398 43.955C73.0364 43.8684 72.4715 43.8641 72.2334 43.2362C71.9903 42.5948 72.2609 41.9845 72.9287 41.8045C73.3767 41.6837 73.8446 41.6396 74.2942 41.5238C76.6254 40.9232 78.4767 38.8176 78.819 36.3981C78.8701 36.0372 78.9176 35.675 78.9884 35.3178C79.0984 34.7636 79.5007 34.4428 80.039 34.456C80.565 34.4688 80.9435 34.7841 81.0395 35.3294C81.1632 36.0327 81.2054 36.751 81.4638 37.4274C82.3806 39.8277 84.0237 41.3373 86.582 41.7026C87.6209 41.8509 88.1262 42.6846 87.5964 43.4453C87.3376 43.8169 86.9315 43.9038 86.5264 43.9543C83.7118 44.3055 81.3659 46.7378 81.1115 49.6143ZM82.0323 43.7294C82.4163 43.4192 82.8003 43.1091 83.2247 42.7662C81.8539 41.9241 80.8188 40.8072 80.0361 39.3408C79.2108 40.8035 78.1603 41.9439 76.801 42.8447C78.2274 43.6822 79.2305 44.831 80.0015 46.2609C80.6013 45.3257 81.213 44.4821 82.0323 43.7294Z" fill="black"/>
<path d="M37.4622 64.189C37.1391 63.8686 36.8223 63.6037 36.8561 63.0932C36.9073 62.3208 37.6571 61.8851 38.3194 62.2914C38.9311 62.6667 39.3812 63.2352 39.8888 63.7287C41.3124 65.1125 42.6943 66.5404 44.1014 67.9419C44.4275 68.2666 44.5841 68.6322 44.5202 69.0924C44.4707 69.4493 44.3142 69.734 43.9693 69.8663C43.6129 70.0031 43.2374 70.0292 42.9527 69.7383C41.6704 68.4281 40.2971 67.2114 39.0886 65.8243C38.5913 65.2535 38.0218 64.7475 37.4622 64.189Z" fill="black"/>
<path d="M33.2451 42.7075C34.767 41.1605 36.2672 39.6375 37.7664 38.1134C38.1187 37.7552 38.5247 37.5432 39.0261 37.7189C39.8072 37.9927 39.965 38.8995 39.3213 39.5321C38.2192 40.6152 37.1873 41.7683 36.0477 42.8153C35.1564 43.6342 34.3436 44.5408 33.491 45.4035C33.1727 45.7257 32.811 45.8928 32.3514 45.6996C31.6756 45.4157 31.463 44.5913 31.9561 44.0369C32.3591 43.5839 32.7994 43.1651 33.2451 42.7075Z" fill="black"/>
<path d="M29.7245 42.9518C29.3354 42.308 29.3815 41.9182 29.8814 41.4223C30.7517 40.5589 31.6174 39.6908 32.4945 38.8347C32.846 38.4916 33.3214 38.4487 33.7422 38.6834C34.1576 38.9151 34.2547 39.2933 34.2102 39.7346C34.1841 39.994 34.0251 40.1819 33.8549 40.354C33.0242 41.1937 32.1946 42.0348 31.3527 42.8628C30.8153 43.3912 30.3405 43.4149 29.7245 42.9518Z" fill="black"/>
</g>
<defs>
<clipPath id="clip0_22_258">
<rect width="110" height="110" fill="white"/>
</clipPath>
</defs>
</svg>
