<svg width="128" height="128" viewBox="0 0 128 128" fill="none" xmlns="http://www.w3.org/2000/svg">
<path d="M63.7761 24.2815C64.0834 24.107 64.4601 24.1077 64.7668 24.2834L125.528 59.0796C126.189 59.4581 126.201 60.407 125.55 60.8023L64.7886 97.6864C64.4709 97.8792 64.0725 97.88 63.7541 97.6883L2.4655 60.8043C1.81008 60.4098 1.8222 59.4555 2.48742 59.0779L63.7761 24.2815Z" fill="#EDD118"/>
<path d="M82.3044 74.4638C80.6488 73.1882 76.2406 69.6651 72.135 65.4313C69.4063 62.6157 68.2457 59.7969 66.1769 57.6632C64.3032 55.7307 62.5988 54.6044 62.5988 54.6044L62.1188 55.0994L58.8763 51.7557L60.1288 50.4638C60.2305 50.3577 60.2872 50.2164 60.2872 50.0694C60.2872 49.9225 60.2305 49.7812 60.1288 49.6751L59.87 49.4082C59.8713 49.4069 63.5563 44.4482 68.2156 45.8194C68.7569 45.9801 69.2394 46.2532 69.3763 46.1138C69.5625 45.9226 68.8531 45.1876 68.4375 44.7626C62.5431 38.7313 56.0413 45.4526 56.0381 45.4557L55.8088 45.2188C55.7594 45.1673 55.7001 45.1263 55.6345 45.0982C55.5689 45.0702 55.4983 45.0558 55.4269 45.0558C55.3555 45.0558 55.2849 45.0702 55.2193 45.0982C55.1537 45.1263 55.0944 45.1673 55.045 45.2188L49.2707 51.1738C49.169 51.2799 49.1122 51.4212 49.1122 51.5682C49.1122 51.7152 49.169 51.8565 49.2707 51.9626C49.2707 51.9626 49.9775 53.1994 48.1238 53.4219C47.3775 53.5126 46.91 53.6807 46.645 53.9026C46.2314 54.3198 45.8191 54.7383 45.4082 55.1582C45.3065 55.2643 45.2497 55.4056 45.2497 55.5526C45.2497 55.6995 45.3065 55.8408 45.4082 55.9469L49.7294 60.4044C49.7788 60.456 49.8381 60.497 49.9038 60.525C49.9695 60.5531 50.0402 60.5675 50.1116 60.5675C50.183 60.5675 50.2537 60.5531 50.3194 60.525C50.385 60.497 50.4444 60.456 50.4938 60.4044C50.4938 60.4044 51.685 59.1607 51.7107 59.1282C51.925 58.8544 52.0888 58.3732 52.175 57.6032C52.3925 55.6907 53.59 56.4207 53.59 56.4207C53.6394 56.4724 53.6988 56.5136 53.7645 56.5417C53.8302 56.5699 53.901 56.5844 53.9725 56.5844C54.044 56.5844 54.1148 56.5699 54.1806 56.5417C54.2463 56.5136 54.3057 56.4724 54.355 56.4207L55.6075 55.1288L58.8488 58.4719L58.3688 58.9676C58.3688 58.9676 59.4613 60.7257 61.335 62.6582C63.4031 64.7913 66.1369 65.9882 68.8663 68.8038C72.9706 73.0376 76.3863 77.5832 77.625 79.2913C78.0925 79.9344 78.1669 79.8751 78.7375 79.2857L80.5181 77.4494L82.2975 75.6138C82.8694 75.0226 82.9281 74.9463 82.3044 74.4638Z" fill="black"/>
<path d="M65.255 55.1804C65.7914 55.665 66.3119 56.167 66.8156 56.6854C67.8106 57.7117 68.6431 58.8598 69.4775 60.0854L75.0663 54.4961C76.1026 54.7493 77.1867 54.7314 78.2141 54.444C79.2416 54.1566 80.1776 53.6094 80.9321 52.8551C81.6866 52.1009 82.2341 51.165 82.5219 50.1377C82.8096 49.1104 82.8279 48.0263 82.575 46.9898L77.5025 52.0623L73.9025 51.0979L72.9375 47.4961L78.0088 42.4267C76.9726 42.1732 75.8886 42.1912 74.8615 42.4792C73.8344 42.7671 72.899 43.3152 72.1456 44.0704C71.391 44.8241 70.8433 45.7594 70.5553 46.7862C70.2673 47.8131 70.2487 48.8968 70.5013 49.9329L65.255 55.1804Z" fill="black"/>
<path d="M60.5556 63.1431C60.0196 62.5896 59.5029 62.0178 59.0062 61.4287L52.9331 67.5025C51.897 67.2492 50.8131 67.2674 49.7861 67.5552C48.7591 67.843 47.8236 68.3908 47.07 69.1456C44.6431 71.5706 44.6437 75.5043 47.07 77.93C47.6466 78.507 48.3312 78.9647 49.0848 79.277C49.8384 79.5893 50.6461 79.7501 51.4619 79.7501C52.2776 79.7501 53.0853 79.5893 53.8389 79.277C54.5925 78.9647 55.2771 78.507 55.8537 77.93C56.6084 77.1759 57.1561 76.2401 57.4441 75.2128C57.7321 74.1856 57.7507 73.1015 57.4981 72.065L63.7506 65.8131C62.6006 64.9768 61.5212 64.1387 60.5556 63.1431ZM52.4269 77.1381L48.8262 76.1731L47.8619 72.5718L50.4981 69.9375L54.0981 70.9006L55.0625 74.5025L52.4269 77.1381Z" fill="black"/>
</svg>
